<?xml version="1.0" encoding="utf-8" standalone="no"?>
<!DOCTYPE svg PUBLIC "-//W3C//DTD SVG 1.1//EN"
  "http://www.w3.org/Graphics/SVG/1.1/DTD/svg11.dtd">
<svg xmlns:xlink="http://www.w3.org/1999/xlink" width="460.8pt" height="345.6pt" viewBox="0 0 460.8 345.6" xmlns="http://www.w3.org/2000/svg" version="1.1">
 <metadata>
  <rdf:RDF xmlns:dc="http://purl.org/dc/elements/1.1/" xmlns:cc="http://creativecommons.org/ns#" xmlns:rdf="http://www.w3.org/1999/02/22-rdf-syntax-ns#">
   <cc:Work>
    <dc:type rdf:resource="http://purl.org/dc/dcmitype/StillImage"/>
    <dc:date>2023-05-11T07:56:59.160442</dc:date>
    <dc:format>image/svg+xml</dc:format>
    <dc:creator>
     <cc:Agent>
      <dc:title>Matplotlib v3.7.1, https://matplotlib.org/</dc:title>
     </cc:Agent>
    </dc:creator>
   </cc:Work>
  </rdf:RDF>
 </metadata>
 <defs>
  <style type="text/css">*{stroke-linejoin: round; stroke-linecap: butt}</style>
 </defs>
 <g id="figure_1">
  <g id="patch_1">
   <path d="M 0 345.6 
L 460.8 345.6 
L 460.8 0 
L 0 0 
z
" style="fill: #ffffff"/>
  </g>
  <g id="axes_1">
   <g id="patch_2">
    <path d="M 44.203125 304.44375 
L 448.572614 304.44375 
L 448.572614 16.149656 
L 44.203125 16.149656 
z
" style="fill: #ffffff"/>
   </g>
   <g id="PathCollection_1">
    <path d="M 136.105282 240.156913 
C 138.57133 240.156913 140.936708 239.177141 142.680468 237.433381 
C 144.424228 235.689622 145.404 233.324244 145.404 230.858195 
C 145.404 228.392146 144.424228 226.026768 142.680468 224.283008 
C 140.936708 222.539248 138.57133 221.559476 136.105282 221.559476 
C 133.639233 221.559476 131.273855 222.539248 129.530095 224.283008 
C 127.786335 226.026768 126.806563 228.392146 126.806563 230.858195 
C 126.806563 233.324244 127.786335 235.689622 129.530095 237.433381 
C 131.273855 239.177141 133.639233 240.156913 136.105282 240.156913 
z
" clip-path="url(#p9f138036e4)" style="fill: #1f77b4; stroke: #1f77b4"/>
    <path d="M 209.627007 296.823558 
C 211.081403 296.823558 212.476427 296.24572 213.50484 295.217307 
C 214.533254 294.188893 215.111092 292.793869 215.111092 291.339473 
C 215.111092 289.885077 214.533254 288.490053 213.50484 287.461639 
C 212.476427 286.433226 211.081403 285.855388 209.627007 285.855388 
C 208.17261 285.855388 206.777587 286.433226 205.749173 287.461639 
C 204.72076 288.490053 204.142922 289.885077 204.142922 291.339473 
C 204.142922 292.793869 204.72076 294.188893 205.749173 295.217307 
C 206.777587 296.24572 208.17261 296.823558 209.627007 296.823558 
z
" clip-path="url(#p9f138036e4)" style="fill: #1f77b4; stroke: #1f77b4"/>
    <path d="M 307.655974 297.470866 
C 309.282038 297.470866 310.841722 296.824824 311.991524 295.675023 
C 313.141325 294.525222 313.787367 292.965538 313.787367 291.339473 
C 313.787367 289.713408 313.141325 288.153724 311.991524 287.003923 
C 310.841722 285.854122 309.282038 285.20808 307.655974 285.20808 
C 306.029909 285.20808 304.470225 285.854122 303.320424 287.003923 
C 302.170623 288.153724 301.52458 289.713408 301.52458 291.339473 
C 301.52458 292.965538 302.170623 294.525222 303.320424 295.675023 
C 304.470225 296.824824 306.029909 297.470866 307.655974 297.470866 
z
" clip-path="url(#p9f138036e4)" style="fill: #1f77b4; stroke: #1f77b4"/>
    <path d="M 62.583556 296.823558 
C 64.037953 296.823558 65.432976 296.24572 66.46139 295.217307 
C 67.489803 294.188893 68.067641 292.793869 68.067641 291.339473 
C 68.067641 289.885077 67.489803 288.490053 66.46139 287.461639 
C 65.432976 286.433226 64.037953 285.855388 62.583556 285.855388 
C 61.12916 285.855388 59.734136 286.433226 58.705723 287.461639 
C 57.677309 288.490053 57.099471 289.885077 57.099471 291.339473 
C 57.099471 292.793869 57.677309 294.188893 58.705723 295.217307 
C 59.734136 296.24572 61.12916 296.823558 62.583556 296.823558 
z
" clip-path="url(#p9f138036e4)" style="fill: #1f77b4; stroke: #1f77b4"/>
    <path d="M 209.627007 117.889997 
C 211.747135 117.889997 213.780715 117.047661 215.279872 115.548503 
C 216.77903 114.049346 217.621366 112.015767 217.621366 109.895638 
C 217.621366 107.775509 216.77903 105.74193 215.279872 104.242772 
C 213.780715 102.743615 211.747135 101.901279 209.627007 101.901279 
C 207.506878 101.901279 205.473299 102.743615 203.974141 104.242772 
C 202.474984 105.74193 201.632648 107.775509 201.632648 109.895638 
C 201.632648 112.015767 202.474984 114.049346 203.974141 115.548503 
C 205.473299 117.047661 207.506878 117.889997 209.627007 117.889997 
z
" clip-path="url(#p9f138036e4)" style="fill: #1f77b4; stroke: #1f77b4"/>
    <path d="M 136.105282 155.700575 
C 137.559678 155.700575 138.954702 155.122737 139.983115 154.094324 
C 141.011529 153.06591 141.589366 151.670886 141.589366 150.21649 
C 141.589366 148.762094 141.011529 147.36707 139.983115 146.338656 
C 138.954702 145.310243 137.559678 144.732405 136.105282 144.732405 
C 134.650885 144.732405 133.255861 145.310243 132.227448 146.338656 
C 131.199034 147.36707 130.621197 148.762094 130.621197 150.21649 
C 130.621197 151.670886 131.199034 153.06591 132.227448 154.094324 
C 133.255861 155.122737 134.650885 155.700575 136.105282 155.700575 
z
" clip-path="url(#p9f138036e4)" style="fill: #1f77b4; stroke: #1f77b4"/>
    <path d="M 209.627007 217.414373 
C 211.408271 217.414373 213.116819 216.70667 214.376364 215.447125 
C 215.635908 214.187581 216.343612 212.479033 216.343612 210.697768 
C 216.343612 208.916504 215.635908 207.207956 214.376364 205.948412 
C 213.116819 204.688867 211.408271 203.981164 209.627007 203.981164 
C 207.845742 203.981164 206.137194 204.688867 204.87765 205.948412 
C 203.618106 207.207956 202.910402 208.916504 202.910402 210.697768 
C 202.910402 212.479033 203.618106 214.187581 204.87765 215.447125 
C 206.137194 216.70667 207.845742 217.414373 209.627007 217.414373 
z
" clip-path="url(#p9f138036e4)" style="fill: #1f77b4; stroke: #1f77b4"/>
    <path d="M 87.090798 254.376923 
C 87.98143 254.376923 88.835704 254.023071 89.465476 253.393299 
C 90.095249 252.763527 90.449101 251.909253 90.449101 251.018621 
C 90.449101 250.127989 90.095249 249.273714 89.465476 248.643942 
C 88.835704 248.01417 87.98143 247.660318 87.090798 247.660318 
C 86.200166 247.660318 85.345892 248.01417 84.71612 248.643942 
C 84.086347 249.273714 83.732496 250.127989 83.732496 251.018621 
C 83.732496 251.909253 84.086347 252.763527 84.71612 253.393299 
C 85.345892 254.023071 86.200166 254.376923 87.090798 254.376923 
z
" clip-path="url(#p9f138036e4)" style="fill: #1f77b4; stroke: #1f77b4"/>
    <path d="M 307.655974 198.29301 
C 309.712801 198.29301 311.685662 197.475824 313.140059 196.021427 
C 314.594455 194.567031 315.411641 192.594169 315.411641 190.537342 
C 315.411641 188.480515 314.594455 186.507654 313.140059 185.053257 
C 311.685662 183.598861 309.712801 182.781675 307.655974 182.781675 
C 305.599147 182.781675 303.626285 183.598861 302.171889 185.053257 
C 300.717492 186.507654 299.900306 188.480515 299.900306 190.537342 
C 299.900306 192.594169 300.717492 194.567031 302.171889 196.021427 
C 303.626285 197.475824 305.599147 198.29301 307.655974 198.29301 
z
" clip-path="url(#p9f138036e4)" style="fill: #1f77b4; stroke: #1f77b4"/>
    <path d="M 87.090798 113.773471 
C 88.119212 113.773471 89.105642 113.364878 89.832841 112.63768 
C 90.560039 111.910482 90.968632 110.924051 90.968632 109.895638 
C 90.968632 108.867224 90.560039 107.880793 89.832841 107.153595 
C 89.105642 106.426397 88.119212 106.017804 87.090798 106.017804 
C 86.062385 106.017804 85.075954 106.426397 84.348756 107.153595 
C 83.621557 107.880793 83.212964 108.867224 83.212964 109.895638 
C 83.212964 110.924051 83.621557 111.910482 84.348756 112.63768 
C 85.075954 113.364878 86.062385 113.773471 87.090798 113.773471 
z
" clip-path="url(#p9f138036e4)" style="fill: #1f77b4; stroke: #1f77b4"/>
    <path d="M 111.59804 133.933898 
C 112.626453 133.933898 113.612884 133.525305 114.340082 132.798106 
C 115.06728 132.070908 115.475873 131.084477 115.475873 130.056064 
C 115.475873 129.02765 115.06728 128.04122 114.340082 127.314021 
C 113.612884 126.586823 112.626453 126.17823 111.59804 126.17823 
C 110.569626 126.17823 109.583195 126.586823 108.855997 127.314021 
C 108.128799 128.04122 107.720206 129.02765 107.720206 130.056064 
C 107.720206 131.084477 108.128799 132.070908 108.855997 132.798106 
C 109.583195 133.525305 110.569626 133.933898 111.59804 133.933898 
z
" clip-path="url(#p9f138036e4)" style="fill: #1f77b4; stroke: #1f77b4"/>
    <path d="M 111.59804 31.995976 
C 112.325238 31.995976 113.02275 31.707057 113.536957 31.19285 
C 114.051163 30.678643 114.340082 29.981131 114.340082 29.253933 
C 114.340082 28.526735 114.051163 27.829223 113.536957 27.315016 
C 113.02275 26.80081 112.325238 26.511891 111.59804 26.511891 
C 110.870842 26.511891 110.17333 26.80081 109.659123 27.315016 
C 109.144916 27.829223 108.855997 28.526735 108.855997 29.253933 
C 108.855997 29.981131 109.144916 30.678643 109.659123 31.19285 
C 110.17333 31.707057 110.870842 31.995976 111.59804 31.995976 
z
" clip-path="url(#p9f138036e4)" style="fill: #1f77b4; stroke: #1f77b4"/>
    <path d="M 136.105282 294.081515 
C 136.83248 294.081515 137.529992 293.792597 138.044198 293.27839 
C 138.558405 292.764183 138.847324 292.066671 138.847324 291.339473 
C 138.847324 290.612275 138.558405 289.914763 138.044198 289.400556 
C 137.529992 288.886349 136.83248 288.597431 136.105282 288.597431 
C 135.378083 288.597431 134.680571 288.886349 134.166365 289.400556 
C 133.652158 289.914763 133.363239 290.612275 133.363239 291.339473 
C 133.363239 292.066671 133.652158 292.764183 134.166365 293.27839 
C 134.680571 293.792597 135.378083 294.081515 136.105282 294.081515 
z
" clip-path="url(#p9f138036e4)" style="fill: #1f77b4; stroke: #1f77b4"/>
    <path d="M 430.192182 296.08883 
C 431.451727 296.08883 432.659853 295.588408 433.550485 294.697775 
C 434.441117 293.807143 434.941539 292.599017 434.941539 291.339473 
C 434.941539 290.079929 434.441117 288.871803 433.550485 287.981171 
C 432.659853 287.090538 431.451727 286.590116 430.192182 286.590116 
C 428.932638 286.590116 427.724512 287.090538 426.83388 287.981171 
C 425.943248 288.871803 425.442825 290.079929 425.442825 291.339473 
C 425.442825 292.599017 425.943248 293.807143 426.83388 294.697775 
C 427.724512 295.588408 428.932638 296.08883 430.192182 296.08883 
z
" clip-path="url(#p9f138036e4)" style="fill: #1f77b4; stroke: #1f77b4"/>
    <path d="M 160.612523 73.452619 
C 161.640937 73.452619 162.627368 73.044026 163.354566 72.316828 
C 164.081764 71.58963 164.490357 70.603199 164.490357 69.574786 
C 164.490357 68.546372 164.081764 67.559941 163.354566 66.832743 
C 162.627368 66.105545 161.640937 65.696952 160.612523 65.696952 
C 159.58411 65.696952 158.597679 66.105545 157.870481 66.832743 
C 157.143283 67.559941 156.73469 68.546372 156.73469 69.574786 
C 156.73469 70.603199 157.143283 71.58963 157.870481 72.316828 
C 158.597679 73.044026 159.58411 73.452619 160.612523 73.452619 
z
" clip-path="url(#p9f138036e4)" style="fill: #1f77b4; stroke: #1f77b4"/>
    <path d="M 234.134248 132.798106 
C 234.861447 132.798106 235.558959 132.509188 236.073165 131.994981 
C 236.587372 131.480774 236.876291 130.783262 236.876291 130.056064 
C 236.876291 129.328866 236.587372 128.631354 236.073165 128.117147 
C 235.558959 127.60294 234.861447 127.314021 234.134248 127.314021 
C 233.40705 127.314021 232.709538 127.60294 232.195332 128.117147 
C 231.681125 128.631354 231.392206 129.328866 231.392206 130.056064 
C 231.392206 130.783262 231.681125 131.480774 232.195332 131.994981 
C 232.709538 132.509188 233.40705 132.798106 234.134248 132.798106 
z
" clip-path="url(#p9f138036e4)" style="fill: #1f77b4; stroke: #1f77b4"/>
   </g>
   <g id="matplotlib.axis_1">
    <g id="xtick_1">
     <g id="line2d_1">
      <path d="M 62.583556 304.44375 
L 62.583556 16.149656 
" clip-path="url(#p9f138036e4)" style="fill: none; stroke: #b0b0b0; stroke-width: 0.8; stroke-linecap: square"/>
     </g>
     <g id="line2d_2">
      <defs>
       <path id="me8be51aa05" d="M 0 0 
L 0 3.5 
" style="stroke: #000000; stroke-width: 0.8"/>
      </defs>
      <g>
       <use xlink:href="#me8be51aa05" x="62.583556" y="304.44375" style="stroke: #000000; stroke-width: 0.8"/>
      </g>
     </g>
     <g id="text_1">
      <!-- 0 -->
      <g transform="translate(59.402306 319.042187) scale(0.1 -0.1)">
       <defs>
        <path id="DejaVuSans-30" d="M 2034 4250 
Q 1547 4250 1301 3770 
Q 1056 3291 1056 2328 
Q 1056 1369 1301 889 
Q 1547 409 2034 409 
Q 2525 409 2770 889 
Q 3016 1369 3016 2328 
Q 3016 3291 2770 3770 
Q 2525 4250 2034 4250 
z
M 2034 4750 
Q 2819 4750 3233 4129 
Q 3647 3509 3647 2328 
Q 3647 1150 3233 529 
Q 2819 -91 2034 -91 
Q 1250 -91 836 529 
Q 422 1150 422 2328 
Q 422 3509 836 4129 
Q 1250 4750 2034 4750 
z
" transform="scale(0.015625)"/>
       </defs>
       <use xlink:href="#DejaVuSans-30"/>
      </g>
     </g>
    </g>
    <g id="xtick_2">
     <g id="line2d_3">
      <path d="M 111.59804 304.44375 
L 111.59804 16.149656 
" clip-path="url(#p9f138036e4)" style="fill: none; stroke: #b0b0b0; stroke-width: 0.8; stroke-linecap: square"/>
     </g>
     <g id="line2d_4">
      <g>
       <use xlink:href="#me8be51aa05" x="111.59804" y="304.44375" style="stroke: #000000; stroke-width: 0.8"/>
      </g>
     </g>
     <g id="text_2">
      <!-- 2 -->
      <g transform="translate(108.41679 319.042187) scale(0.1 -0.1)">
       <defs>
        <path id="DejaVuSans-32" d="M 1228 531 
L 3431 531 
L 3431 0 
L 469 0 
L 469 531 
Q 828 903 1448 1529 
Q 2069 2156 2228 2338 
Q 2531 2678 2651 2914 
Q 2772 3150 2772 3378 
Q 2772 3750 2511 3984 
Q 2250 4219 1831 4219 
Q 1534 4219 1204 4116 
Q 875 4013 500 3803 
L 500 4441 
Q 881 4594 1212 4672 
Q 1544 4750 1819 4750 
Q 2544 4750 2975 4387 
Q 3406 4025 3406 3419 
Q 3406 3131 3298 2873 
Q 3191 2616 2906 2266 
Q 2828 2175 2409 1742 
Q 1991 1309 1228 531 
z
" transform="scale(0.015625)"/>
       </defs>
       <use xlink:href="#DejaVuSans-32"/>
      </g>
     </g>
    </g>
    <g id="xtick_3">
     <g id="line2d_5">
      <path d="M 160.612523 304.44375 
L 160.612523 16.149656 
" clip-path="url(#p9f138036e4)" style="fill: none; stroke: #b0b0b0; stroke-width: 0.8; stroke-linecap: square"/>
     </g>
     <g id="line2d_6">
      <g>
       <use xlink:href="#me8be51aa05" x="160.612523" y="304.44375" style="stroke: #000000; stroke-width: 0.8"/>
      </g>
     </g>
     <g id="text_3">
      <!-- 4 -->
      <g transform="translate(157.431273 319.042187) scale(0.1 -0.1)">
       <defs>
        <path id="DejaVuSans-34" d="M 2419 4116 
L 825 1625 
L 2419 1625 
L 2419 4116 
z
M 2253 4666 
L 3047 4666 
L 3047 1625 
L 3713 1625 
L 3713 1100 
L 3047 1100 
L 3047 0 
L 2419 0 
L 2419 1100 
L 313 1100 
L 313 1709 
L 2253 4666 
z
" transform="scale(0.015625)"/>
       </defs>
       <use xlink:href="#DejaVuSans-34"/>
      </g>
     </g>
    </g>
    <g id="xtick_4">
     <g id="line2d_7">
      <path d="M 209.627007 304.44375 
L 209.627007 16.149656 
" clip-path="url(#p9f138036e4)" style="fill: none; stroke: #b0b0b0; stroke-width: 0.8; stroke-linecap: square"/>
     </g>
     <g id="line2d_8">
      <g>
       <use xlink:href="#me8be51aa05" x="209.627007" y="304.44375" style="stroke: #000000; stroke-width: 0.8"/>
      </g>
     </g>
     <g id="text_4">
      <!-- 6 -->
      <g transform="translate(206.445757 319.042187) scale(0.1 -0.1)">
       <defs>
        <path id="DejaVuSans-36" d="M 2113 2584 
Q 1688 2584 1439 2293 
Q 1191 2003 1191 1497 
Q 1191 994 1439 701 
Q 1688 409 2113 409 
Q 2538 409 2786 701 
Q 3034 994 3034 1497 
Q 3034 2003 2786 2293 
Q 2538 2584 2113 2584 
z
M 3366 4563 
L 3366 3988 
Q 3128 4100 2886 4159 
Q 2644 4219 2406 4219 
Q 1781 4219 1451 3797 
Q 1122 3375 1075 2522 
Q 1259 2794 1537 2939 
Q 1816 3084 2150 3084 
Q 2853 3084 3261 2657 
Q 3669 2231 3669 1497 
Q 3669 778 3244 343 
Q 2819 -91 2113 -91 
Q 1303 -91 875 529 
Q 447 1150 447 2328 
Q 447 3434 972 4092 
Q 1497 4750 2381 4750 
Q 2619 4750 2861 4703 
Q 3103 4656 3366 4563 
z
" transform="scale(0.015625)"/>
       </defs>
       <use xlink:href="#DejaVuSans-36"/>
      </g>
     </g>
    </g>
    <g id="xtick_5">
     <g id="line2d_9">
      <path d="M 258.64149 304.44375 
L 258.64149 16.149656 
" clip-path="url(#p9f138036e4)" style="fill: none; stroke: #b0b0b0; stroke-width: 0.8; stroke-linecap: square"/>
     </g>
     <g id="line2d_10">
      <g>
       <use xlink:href="#me8be51aa05" x="258.64149" y="304.44375" style="stroke: #000000; stroke-width: 0.8"/>
      </g>
     </g>
     <g id="text_5">
      <!-- 8 -->
      <g transform="translate(255.46024 319.042187) scale(0.1 -0.1)">
       <defs>
        <path id="DejaVuSans-38" d="M 2034 2216 
Q 1584 2216 1326 1975 
Q 1069 1734 1069 1313 
Q 1069 891 1326 650 
Q 1584 409 2034 409 
Q 2484 409 2743 651 
Q 3003 894 3003 1313 
Q 3003 1734 2745 1975 
Q 2488 2216 2034 2216 
z
M 1403 2484 
Q 997 2584 770 2862 
Q 544 3141 544 3541 
Q 544 4100 942 4425 
Q 1341 4750 2034 4750 
Q 2731 4750 3128 4425 
Q 3525 4100 3525 3541 
Q 3525 3141 3298 2862 
Q 3072 2584 2669 2484 
Q 3125 2378 3379 2068 
Q 3634 1759 3634 1313 
Q 3634 634 3220 271 
Q 2806 -91 2034 -91 
Q 1263 -91 848 271 
Q 434 634 434 1313 
Q 434 1759 690 2068 
Q 947 2378 1403 2484 
z
M 1172 3481 
Q 1172 3119 1398 2916 
Q 1625 2713 2034 2713 
Q 2441 2713 2670 2916 
Q 2900 3119 2900 3481 
Q 2900 3844 2670 4047 
Q 2441 4250 2034 4250 
Q 1625 4250 1398 4047 
Q 1172 3844 1172 3481 
z
" transform="scale(0.015625)"/>
       </defs>
       <use xlink:href="#DejaVuSans-38"/>
      </g>
     </g>
    </g>
    <g id="xtick_6">
     <g id="line2d_11">
      <path d="M 307.655974 304.44375 
L 307.655974 16.149656 
" clip-path="url(#p9f138036e4)" style="fill: none; stroke: #b0b0b0; stroke-width: 0.8; stroke-linecap: square"/>
     </g>
     <g id="line2d_12">
      <g>
       <use xlink:href="#me8be51aa05" x="307.655974" y="304.44375" style="stroke: #000000; stroke-width: 0.8"/>
      </g>
     </g>
     <g id="text_6">
      <!-- 10 -->
      <g transform="translate(301.293474 319.042187) scale(0.1 -0.1)">
       <defs>
        <path id="DejaVuSans-31" d="M 794 531 
L 1825 531 
L 1825 4091 
L 703 3866 
L 703 4441 
L 1819 4666 
L 2450 4666 
L 2450 531 
L 3481 531 
L 3481 0 
L 794 0 
L 794 531 
z
" transform="scale(0.015625)"/>
       </defs>
       <use xlink:href="#DejaVuSans-31"/>
       <use xlink:href="#DejaVuSans-30" x="63.623047"/>
      </g>
     </g>
    </g>
    <g id="xtick_7">
     <g id="line2d_13">
      <path d="M 356.670457 304.44375 
L 356.670457 16.149656 
" clip-path="url(#p9f138036e4)" style="fill: none; stroke: #b0b0b0; stroke-width: 0.8; stroke-linecap: square"/>
     </g>
     <g id="line2d_14">
      <g>
       <use xlink:href="#me8be51aa05" x="356.670457" y="304.44375" style="stroke: #000000; stroke-width: 0.8"/>
      </g>
     </g>
     <g id="text_7">
      <!-- 12 -->
      <g transform="translate(350.307957 319.042187) scale(0.1 -0.1)">
       <use xlink:href="#DejaVuSans-31"/>
       <use xlink:href="#DejaVuSans-32" x="63.623047"/>
      </g>
     </g>
    </g>
    <g id="xtick_8">
     <g id="line2d_15">
      <path d="M 405.684941 304.44375 
L 405.684941 16.149656 
" clip-path="url(#p9f138036e4)" style="fill: none; stroke: #b0b0b0; stroke-width: 0.8; stroke-linecap: square"/>
     </g>
     <g id="line2d_16">
      <g>
       <use xlink:href="#me8be51aa05" x="405.684941" y="304.44375" style="stroke: #000000; stroke-width: 0.8"/>
      </g>
     </g>
     <g id="text_8">
      <!-- 14 -->
      <g transform="translate(399.322441 319.042187) scale(0.1 -0.1)">
       <use xlink:href="#DejaVuSans-31"/>
       <use xlink:href="#DejaVuSans-34" x="63.623047"/>
      </g>
     </g>
    </g>
    <g id="text_9">
     <!-- Agglomeration index -->
     <g transform="translate(194.257401 332.720312) scale(0.1 -0.1)">
      <defs>
       <path id="DejaVuSans-41" d="M 2188 4044 
L 1331 1722 
L 3047 1722 
L 2188 4044 
z
M 1831 4666 
L 2547 4666 
L 4325 0 
L 3669 0 
L 3244 1197 
L 1141 1197 
L 716 0 
L 50 0 
L 1831 4666 
z
" transform="scale(0.015625)"/>
       <path id="DejaVuSans-67" d="M 2906 1791 
Q 2906 2416 2648 2759 
Q 2391 3103 1925 3103 
Q 1463 3103 1205 2759 
Q 947 2416 947 1791 
Q 947 1169 1205 825 
Q 1463 481 1925 481 
Q 2391 481 2648 825 
Q 2906 1169 2906 1791 
z
M 3481 434 
Q 3481 -459 3084 -895 
Q 2688 -1331 1869 -1331 
Q 1566 -1331 1297 -1286 
Q 1028 -1241 775 -1147 
L 775 -588 
Q 1028 -725 1275 -790 
Q 1522 -856 1778 -856 
Q 2344 -856 2625 -561 
Q 2906 -266 2906 331 
L 2906 616 
Q 2728 306 2450 153 
Q 2172 0 1784 0 
Q 1141 0 747 490 
Q 353 981 353 1791 
Q 353 2603 747 3093 
Q 1141 3584 1784 3584 
Q 2172 3584 2450 3431 
Q 2728 3278 2906 2969 
L 2906 3500 
L 3481 3500 
L 3481 434 
z
" transform="scale(0.015625)"/>
       <path id="DejaVuSans-6c" d="M 603 4863 
L 1178 4863 
L 1178 0 
L 603 0 
L 603 4863 
z
" transform="scale(0.015625)"/>
       <path id="DejaVuSans-6f" d="M 1959 3097 
Q 1497 3097 1228 2736 
Q 959 2375 959 1747 
Q 959 1119 1226 758 
Q 1494 397 1959 397 
Q 2419 397 2687 759 
Q 2956 1122 2956 1747 
Q 2956 2369 2687 2733 
Q 2419 3097 1959 3097 
z
M 1959 3584 
Q 2709 3584 3137 3096 
Q 3566 2609 3566 1747 
Q 3566 888 3137 398 
Q 2709 -91 1959 -91 
Q 1206 -91 779 398 
Q 353 888 353 1747 
Q 353 2609 779 3096 
Q 1206 3584 1959 3584 
z
" transform="scale(0.015625)"/>
       <path id="DejaVuSans-6d" d="M 3328 2828 
Q 3544 3216 3844 3400 
Q 4144 3584 4550 3584 
Q 5097 3584 5394 3201 
Q 5691 2819 5691 2113 
L 5691 0 
L 5113 0 
L 5113 2094 
Q 5113 2597 4934 2840 
Q 4756 3084 4391 3084 
Q 3944 3084 3684 2787 
Q 3425 2491 3425 1978 
L 3425 0 
L 2847 0 
L 2847 2094 
Q 2847 2600 2669 2842 
Q 2491 3084 2119 3084 
Q 1678 3084 1418 2786 
Q 1159 2488 1159 1978 
L 1159 0 
L 581 0 
L 581 3500 
L 1159 3500 
L 1159 2956 
Q 1356 3278 1631 3431 
Q 1906 3584 2284 3584 
Q 2666 3584 2933 3390 
Q 3200 3197 3328 2828 
z
" transform="scale(0.015625)"/>
       <path id="DejaVuSans-65" d="M 3597 1894 
L 3597 1613 
L 953 1613 
Q 991 1019 1311 708 
Q 1631 397 2203 397 
Q 2534 397 2845 478 
Q 3156 559 3463 722 
L 3463 178 
Q 3153 47 2828 -22 
Q 2503 -91 2169 -91 
Q 1331 -91 842 396 
Q 353 884 353 1716 
Q 353 2575 817 3079 
Q 1281 3584 2069 3584 
Q 2775 3584 3186 3129 
Q 3597 2675 3597 1894 
z
M 3022 2063 
Q 3016 2534 2758 2815 
Q 2500 3097 2075 3097 
Q 1594 3097 1305 2825 
Q 1016 2553 972 2059 
L 3022 2063 
z
" transform="scale(0.015625)"/>
       <path id="DejaVuSans-72" d="M 2631 2963 
Q 2534 3019 2420 3045 
Q 2306 3072 2169 3072 
Q 1681 3072 1420 2755 
Q 1159 2438 1159 1844 
L 1159 0 
L 581 0 
L 581 3500 
L 1159 3500 
L 1159 2956 
Q 1341 3275 1631 3429 
Q 1922 3584 2338 3584 
Q 2397 3584 2469 3576 
Q 2541 3569 2628 3553 
L 2631 2963 
z
" transform="scale(0.015625)"/>
       <path id="DejaVuSans-61" d="M 2194 1759 
Q 1497 1759 1228 1600 
Q 959 1441 959 1056 
Q 959 750 1161 570 
Q 1363 391 1709 391 
Q 2188 391 2477 730 
Q 2766 1069 2766 1631 
L 2766 1759 
L 2194 1759 
z
M 3341 1997 
L 3341 0 
L 2766 0 
L 2766 531 
Q 2569 213 2275 61 
Q 1981 -91 1556 -91 
Q 1019 -91 701 211 
Q 384 513 384 1019 
Q 384 1609 779 1909 
Q 1175 2209 1959 2209 
L 2766 2209 
L 2766 2266 
Q 2766 2663 2505 2880 
Q 2244 3097 1772 3097 
Q 1472 3097 1187 3025 
Q 903 2953 641 2809 
L 641 3341 
Q 956 3463 1253 3523 
Q 1550 3584 1831 3584 
Q 2591 3584 2966 3190 
Q 3341 2797 3341 1997 
z
" transform="scale(0.015625)"/>
       <path id="DejaVuSans-74" d="M 1172 4494 
L 1172 3500 
L 2356 3500 
L 2356 3053 
L 1172 3053 
L 1172 1153 
Q 1172 725 1289 603 
Q 1406 481 1766 481 
L 2356 481 
L 2356 0 
L 1766 0 
Q 1100 0 847 248 
Q 594 497 594 1153 
L 594 3053 
L 172 3053 
L 172 3500 
L 594 3500 
L 594 4494 
L 1172 4494 
z
" transform="scale(0.015625)"/>
       <path id="DejaVuSans-69" d="M 603 3500 
L 1178 3500 
L 1178 0 
L 603 0 
L 603 3500 
z
M 603 4863 
L 1178 4863 
L 1178 4134 
L 603 4134 
L 603 4863 
z
" transform="scale(0.015625)"/>
       <path id="DejaVuSans-6e" d="M 3513 2113 
L 3513 0 
L 2938 0 
L 2938 2094 
Q 2938 2591 2744 2837 
Q 2550 3084 2163 3084 
Q 1697 3084 1428 2787 
Q 1159 2491 1159 1978 
L 1159 0 
L 581 0 
L 581 3500 
L 1159 3500 
L 1159 2956 
Q 1366 3272 1645 3428 
Q 1925 3584 2291 3584 
Q 2894 3584 3203 3211 
Q 3513 2838 3513 2113 
z
" transform="scale(0.015625)"/>
       <path id="DejaVuSans-20" transform="scale(0.015625)"/>
       <path id="DejaVuSans-64" d="M 2906 2969 
L 2906 4863 
L 3481 4863 
L 3481 0 
L 2906 0 
L 2906 525 
Q 2725 213 2448 61 
Q 2172 -91 1784 -91 
Q 1150 -91 751 415 
Q 353 922 353 1747 
Q 353 2572 751 3078 
Q 1150 3584 1784 3584 
Q 2172 3584 2448 3432 
Q 2725 3281 2906 2969 
z
M 947 1747 
Q 947 1113 1208 752 
Q 1469 391 1925 391 
Q 2381 391 2643 752 
Q 2906 1113 2906 1747 
Q 2906 2381 2643 2742 
Q 2381 3103 1925 3103 
Q 1469 3103 1208 2742 
Q 947 2381 947 1747 
z
" transform="scale(0.015625)"/>
       <path id="DejaVuSans-78" d="M 3513 3500 
L 2247 1797 
L 3578 0 
L 2900 0 
L 1881 1375 
L 863 0 
L 184 0 
L 1544 1831 
L 300 3500 
L 978 3500 
L 1906 2253 
L 2834 3500 
L 3513 3500 
z
" transform="scale(0.015625)"/>
      </defs>
      <use xlink:href="#DejaVuSans-41"/>
      <use xlink:href="#DejaVuSans-67" x="68.408203"/>
      <use xlink:href="#DejaVuSans-67" x="131.884766"/>
      <use xlink:href="#DejaVuSans-6c" x="195.361328"/>
      <use xlink:href="#DejaVuSans-6f" x="223.144531"/>
      <use xlink:href="#DejaVuSans-6d" x="284.326172"/>
      <use xlink:href="#DejaVuSans-65" x="381.738281"/>
      <use xlink:href="#DejaVuSans-72" x="443.261719"/>
      <use xlink:href="#DejaVuSans-61" x="484.375"/>
      <use xlink:href="#DejaVuSans-74" x="545.654297"/>
      <use xlink:href="#DejaVuSans-69" x="584.863281"/>
      <use xlink:href="#DejaVuSans-6f" x="612.646484"/>
      <use xlink:href="#DejaVuSans-6e" x="673.828125"/>
      <use xlink:href="#DejaVuSans-20" x="737.207031"/>
      <use xlink:href="#DejaVuSans-69" x="768.994141"/>
      <use xlink:href="#DejaVuSans-6e" x="796.777344"/>
      <use xlink:href="#DejaVuSans-64" x="860.15625"/>
      <use xlink:href="#DejaVuSans-65" x="923.632812"/>
      <use xlink:href="#DejaVuSans-78" x="983.40625"/>
     </g>
    </g>
   </g>
   <g id="matplotlib.axis_2">
    <g id="ytick_1">
     <g id="line2d_17">
      <path d="M 44.203125 291.339473 
L 448.572614 291.339473 
" clip-path="url(#p9f138036e4)" style="fill: none; stroke: #b0b0b0; stroke-width: 0.8; stroke-linecap: square"/>
     </g>
     <g id="line2d_18">
      <defs>
       <path id="m4cf1115704" d="M 0 0 
L -3.5 0 
" style="stroke: #000000; stroke-width: 0.8"/>
      </defs>
      <g>
       <use xlink:href="#m4cf1115704" x="44.203125" y="291.339473" style="stroke: #000000; stroke-width: 0.8"/>
      </g>
     </g>
     <g id="text_10">
      <!-- 0 -->
      <g transform="translate(30.840625 295.138692) scale(0.1 -0.1)">
       <use xlink:href="#DejaVuSans-30"/>
      </g>
     </g>
    </g>
    <g id="ytick_2">
     <g id="line2d_19">
      <path d="M 44.203125 251.018621 
L 448.572614 251.018621 
" clip-path="url(#p9f138036e4)" style="fill: none; stroke: #b0b0b0; stroke-width: 0.8; stroke-linecap: square"/>
     </g>
     <g id="line2d_20">
      <g>
       <use xlink:href="#m4cf1115704" x="44.203125" y="251.018621" style="stroke: #000000; stroke-width: 0.8"/>
      </g>
     </g>
     <g id="text_11">
      <!-- 2 -->
      <g transform="translate(30.840625 254.817839) scale(0.1 -0.1)">
       <use xlink:href="#DejaVuSans-32"/>
      </g>
     </g>
    </g>
    <g id="ytick_3">
     <g id="line2d_21">
      <path d="M 44.203125 210.697768 
L 448.572614 210.697768 
" clip-path="url(#p9f138036e4)" style="fill: none; stroke: #b0b0b0; stroke-width: 0.8; stroke-linecap: square"/>
     </g>
     <g id="line2d_22">
      <g>
       <use xlink:href="#m4cf1115704" x="44.203125" y="210.697768" style="stroke: #000000; stroke-width: 0.8"/>
      </g>
     </g>
     <g id="text_12">
      <!-- 4 -->
      <g transform="translate(30.840625 214.496987) scale(0.1 -0.1)">
       <use xlink:href="#DejaVuSans-34"/>
      </g>
     </g>
    </g>
    <g id="ytick_4">
     <g id="line2d_23">
      <path d="M 44.203125 170.376916 
L 448.572614 170.376916 
" clip-path="url(#p9f138036e4)" style="fill: none; stroke: #b0b0b0; stroke-width: 0.8; stroke-linecap: square"/>
     </g>
     <g id="line2d_24">
      <g>
       <use xlink:href="#m4cf1115704" x="44.203125" y="170.376916" style="stroke: #000000; stroke-width: 0.8"/>
      </g>
     </g>
     <g id="text_13">
      <!-- 6 -->
      <g transform="translate(30.840625 174.176135) scale(0.1 -0.1)">
       <use xlink:href="#DejaVuSans-36"/>
      </g>
     </g>
    </g>
    <g id="ytick_5">
     <g id="line2d_25">
      <path d="M 44.203125 130.056064 
L 448.572614 130.056064 
" clip-path="url(#p9f138036e4)" style="fill: none; stroke: #b0b0b0; stroke-width: 0.8; stroke-linecap: square"/>
     </g>
     <g id="line2d_26">
      <g>
       <use xlink:href="#m4cf1115704" x="44.203125" y="130.056064" style="stroke: #000000; stroke-width: 0.8"/>
      </g>
     </g>
     <g id="text_14">
      <!-- 8 -->
      <g transform="translate(30.840625 133.855283) scale(0.1 -0.1)">
       <use xlink:href="#DejaVuSans-38"/>
      </g>
     </g>
    </g>
    <g id="ytick_6">
     <g id="line2d_27">
      <path d="M 44.203125 89.735212 
L 448.572614 89.735212 
" clip-path="url(#p9f138036e4)" style="fill: none; stroke: #b0b0b0; stroke-width: 0.8; stroke-linecap: square"/>
     </g>
     <g id="line2d_28">
      <g>
       <use xlink:href="#m4cf1115704" x="44.203125" y="89.735212" style="stroke: #000000; stroke-width: 0.8"/>
      </g>
     </g>
     <g id="text_15">
      <!-- 10 -->
      <g transform="translate(24.478125 93.53443) scale(0.1 -0.1)">
       <use xlink:href="#DejaVuSans-31"/>
       <use xlink:href="#DejaVuSans-30" x="63.623047"/>
      </g>
     </g>
    </g>
    <g id="ytick_7">
     <g id="line2d_29">
      <path d="M 44.203125 49.414359 
L 448.572614 49.414359 
" clip-path="url(#p9f138036e4)" style="fill: none; stroke: #b0b0b0; stroke-width: 0.8; stroke-linecap: square"/>
     </g>
     <g id="line2d_30">
      <g>
       <use xlink:href="#m4cf1115704" x="44.203125" y="49.414359" style="stroke: #000000; stroke-width: 0.8"/>
      </g>
     </g>
     <g id="text_16">
      <!-- 12 -->
      <g transform="translate(24.478125 53.213578) scale(0.1 -0.1)">
       <use xlink:href="#DejaVuSans-31"/>
       <use xlink:href="#DejaVuSans-32" x="63.623047"/>
      </g>
     </g>
    </g>
    <g id="text_17">
     <!-- Dispersion index -->
     <g transform="translate(18.398437 201.938109) rotate(-90) scale(0.1 -0.1)">
      <defs>
       <path id="DejaVuSans-44" d="M 1259 4147 
L 1259 519 
L 2022 519 
Q 2988 519 3436 956 
Q 3884 1394 3884 2338 
Q 3884 3275 3436 3711 
Q 2988 4147 2022 4147 
L 1259 4147 
z
M 628 4666 
L 1925 4666 
Q 3281 4666 3915 4102 
Q 4550 3538 4550 2338 
Q 4550 1131 3912 565 
Q 3275 0 1925 0 
L 628 0 
L 628 4666 
z
" transform="scale(0.015625)"/>
       <path id="DejaVuSans-73" d="M 2834 3397 
L 2834 2853 
Q 2591 2978 2328 3040 
Q 2066 3103 1784 3103 
Q 1356 3103 1142 2972 
Q 928 2841 928 2578 
Q 928 2378 1081 2264 
Q 1234 2150 1697 2047 
L 1894 2003 
Q 2506 1872 2764 1633 
Q 3022 1394 3022 966 
Q 3022 478 2636 193 
Q 2250 -91 1575 -91 
Q 1294 -91 989 -36 
Q 684 19 347 128 
L 347 722 
Q 666 556 975 473 
Q 1284 391 1588 391 
Q 1994 391 2212 530 
Q 2431 669 2431 922 
Q 2431 1156 2273 1281 
Q 2116 1406 1581 1522 
L 1381 1569 
Q 847 1681 609 1914 
Q 372 2147 372 2553 
Q 372 3047 722 3315 
Q 1072 3584 1716 3584 
Q 2034 3584 2315 3537 
Q 2597 3491 2834 3397 
z
" transform="scale(0.015625)"/>
       <path id="DejaVuSans-70" d="M 1159 525 
L 1159 -1331 
L 581 -1331 
L 581 3500 
L 1159 3500 
L 1159 2969 
Q 1341 3281 1617 3432 
Q 1894 3584 2278 3584 
Q 2916 3584 3314 3078 
Q 3713 2572 3713 1747 
Q 3713 922 3314 415 
Q 2916 -91 2278 -91 
Q 1894 -91 1617 61 
Q 1341 213 1159 525 
z
M 3116 1747 
Q 3116 2381 2855 2742 
Q 2594 3103 2138 3103 
Q 1681 3103 1420 2742 
Q 1159 2381 1159 1747 
Q 1159 1113 1420 752 
Q 1681 391 2138 391 
Q 2594 391 2855 752 
Q 3116 1113 3116 1747 
z
" transform="scale(0.015625)"/>
      </defs>
      <use xlink:href="#DejaVuSans-44"/>
      <use xlink:href="#DejaVuSans-69" x="77.001953"/>
      <use xlink:href="#DejaVuSans-73" x="104.785156"/>
      <use xlink:href="#DejaVuSans-70" x="156.884766"/>
      <use xlink:href="#DejaVuSans-65" x="220.361328"/>
      <use xlink:href="#DejaVuSans-72" x="281.884766"/>
      <use xlink:href="#DejaVuSans-73" x="322.998047"/>
      <use xlink:href="#DejaVuSans-69" x="375.097656"/>
      <use xlink:href="#DejaVuSans-6f" x="402.880859"/>
      <use xlink:href="#DejaVuSans-6e" x="464.0625"/>
      <use xlink:href="#DejaVuSans-20" x="527.441406"/>
      <use xlink:href="#DejaVuSans-69" x="559.228516"/>
      <use xlink:href="#DejaVuSans-6e" x="587.011719"/>
      <use xlink:href="#DejaVuSans-64" x="650.390625"/>
      <use xlink:href="#DejaVuSans-65" x="713.867188"/>
      <use xlink:href="#DejaVuSans-78" x="773.640625"/>
     </g>
    </g>
   </g>
   <g id="patch_3">
    <path d="M 44.203125 304.44375 
L 44.203125 16.149656 
" style="fill: none; stroke: #000000; stroke-width: 0.8; stroke-linejoin: miter; stroke-linecap: square"/>
   </g>
   <g id="patch_4">
    <path d="M 448.572614 304.44375 
L 448.572614 16.149656 
" style="fill: none; stroke: #000000; stroke-width: 0.8; stroke-linejoin: miter; stroke-linecap: square"/>
   </g>
   <g id="patch_5">
    <path d="M 44.203125 304.44375 
L 448.572614 304.44375 
" style="fill: none; stroke: #000000; stroke-width: 0.8; stroke-linejoin: miter; stroke-linecap: square"/>
   </g>
   <g id="patch_6">
    <path d="M 44.203125 16.149656 
L 448.572614 16.149656 
" style="fill: none; stroke: #000000; stroke-width: 0.8; stroke-linejoin: miter; stroke-linecap: square"/>
   </g>
   <g id="text_18">
    <g id="text_19">
     <!-- 1.3 -->
     <g transform="translate(137.943325 229.346163) scale(0.15 -0.15)">
      <defs>
       <path id="DejaVuSans-2e" d="M 684 794 
L 1344 794 
L 1344 0 
L 684 0 
L 684 794 
z
" transform="scale(0.015625)"/>
       <path id="DejaVuSans-33" d="M 2597 2516 
Q 3050 2419 3304 2112 
Q 3559 1806 3559 1356 
Q 3559 666 3084 287 
Q 2609 -91 1734 -91 
Q 1441 -91 1130 -33 
Q 819 25 488 141 
L 488 750 
Q 750 597 1062 519 
Q 1375 441 1716 441 
Q 2309 441 2620 675 
Q 2931 909 2931 1356 
Q 2931 1769 2642 2001 
Q 2353 2234 1838 2234 
L 1294 2234 
L 1294 2753 
L 1863 2753 
Q 2328 2753 2575 2939 
Q 2822 3125 2822 3475 
Q 2822 3834 2567 4026 
Q 2313 4219 1838 4219 
Q 1578 4219 1281 4162 
Q 984 4106 628 3988 
L 628 4550 
Q 988 4650 1302 4700 
Q 1616 4750 1894 4750 
Q 2613 4750 3031 4423 
Q 3450 4097 3450 3541 
Q 3450 3153 3228 2886 
Q 3006 2619 2597 2516 
z
" transform="scale(0.015625)"/>
      </defs>
      <use xlink:href="#DejaVuSans-31"/>
      <use xlink:href="#DejaVuSans-2e" x="63.623047"/>
      <use xlink:href="#DejaVuSans-33" x="95.410156"/>
     </g>
    </g>
    <g id="text_20">
     <!-- 4 -->
     <g transform="translate(213.303093 291.339473) scale(0.15 -0.15)">
      <use xlink:href="#DejaVuSans-34"/>
     </g>
    </g>
    <g id="text_21">
     <!-- 5 -->
     <g transform="translate(313.782784 291.339473) scale(0.15 -0.15)">
      <defs>
       <path id="DejaVuSans-35" d="M 691 4666 
L 3169 4666 
L 3169 4134 
L 1269 4134 
L 1269 2991 
Q 1406 3038 1543 3061 
Q 1681 3084 1819 3084 
Q 2600 3084 3056 2656 
Q 3513 2228 3513 1497 
Q 3513 744 3044 326 
Q 2575 -91 1722 -91 
Q 1428 -91 1123 -41 
Q 819 9 494 109 
L 494 744 
Q 775 591 1075 516 
Q 1375 441 1709 441 
Q 2250 441 2565 725 
Q 2881 1009 2881 1497 
Q 2881 1984 2565 2268 
Q 2250 2553 1709 2553 
Q 1456 2553 1204 2497 
Q 953 2441 691 2322 
L 691 4666 
z
" transform="scale(0.015625)"/>
      </defs>
      <use xlink:href="#DejaVuSans-35"/>
     </g>
    </g>
    <g id="text_22">
     <!-- 1 -->
     <g transform="translate(62.583556 291.339473) scale(0.15 -0.15)">
      <use xlink:href="#DejaVuSans-31"/>
     </g>
    </g>
    <g id="text_23">
     <!-- 1².4 -->
     <g transform="translate(213.303093 105.359542) scale(0.15 -0.15)">
      <defs>
       <path id="DejaVuSans-b2" d="M 838 2444 
L 2163 2444 
L 2163 2088 
L 294 2088 
L 294 2431 
Q 400 2528 597 2703 
Q 1672 3656 1672 3950 
Q 1672 4156 1509 4282 
Q 1347 4409 1081 4409 
Q 919 4409 728 4354 
Q 538 4300 313 4191 
L 313 4575 
Q 553 4663 761 4706 
Q 969 4750 1147 4750 
Q 1600 4750 1872 4544 
Q 2144 4338 2144 4000 
Q 2144 3566 1109 2678 
Q 934 2528 838 2444 
z
" transform="scale(0.015625)"/>
      </defs>
      <use xlink:href="#DejaVuSans-31"/>
      <use xlink:href="#DejaVuSans-b2" x="63.623047"/>
      <use xlink:href="#DejaVuSans-2e" x="103.710938"/>
      <use xlink:href="#DejaVuSans-34" x="135.498047"/>
     </g>
    </g>
    <g id="text_24">
     <!-- 1².3 -->
     <g transform="translate(137.943325 146.688415) scale(0.15 -0.15)">
      <use xlink:href="#DejaVuSans-31"/>
      <use xlink:href="#DejaVuSans-b2" x="63.623047"/>
      <use xlink:href="#DejaVuSans-2e" x="103.710938"/>
      <use xlink:href="#DejaVuSans-33" x="135.498047"/>
     </g>
    </g>
    <g id="text_25">
     <!-- 1.4 -->
     <g transform="translate(213.303093 208.681726) scale(0.15 -0.15)">
      <use xlink:href="#DejaVuSans-31"/>
      <use xlink:href="#DejaVuSans-2e" x="63.623047"/>
      <use xlink:href="#DejaVuSans-34" x="95.410156"/>
     </g>
    </g>
    <g id="text_26">
     <!-- 1.2 -->
     <g transform="translate(87.703479 250.010599) scale(0.15 -0.15)">
      <use xlink:href="#DejaVuSans-31"/>
      <use xlink:href="#DejaVuSans-2e" x="63.623047"/>
      <use xlink:href="#DejaVuSans-32" x="95.410156"/>
     </g>
    </g>
    <g id="text_27">
     <!-- 1.5 -->
     <g transform="translate(313.782784 188.017289) scale(0.15 -0.15)">
      <use xlink:href="#DejaVuSans-31"/>
      <use xlink:href="#DejaVuSans-2e" x="63.623047"/>
      <use xlink:href="#DejaVuSans-35" x="95.410156"/>
     </g>
    </g>
    <g id="text_28">
     <!-- 1³.2 -->
     <g transform="translate(87.703479 105.359542) scale(0.15 -0.15)">
      <defs>
       <path id="DejaVuSans-b3" d="M 1638 3500 
Q 1925 3444 2083 3273 
Q 2241 3103 2241 2847 
Q 2241 2459 1944 2250 
Q 1647 2041 1094 2041 
Q 916 2041 720 2073 
Q 525 2106 306 2169 
L 306 2547 
Q 469 2463 655 2422 
Q 841 2381 1050 2381 
Q 1391 2381 1578 2504 
Q 1766 2628 1766 2847 
Q 1766 3078 1592 3197 
Q 1419 3316 1081 3316 
L 813 3316 
L 813 3653 
L 1106 3653 
Q 1400 3653 1551 3751 
Q 1703 3850 1703 4038 
Q 1703 4219 1547 4314 
Q 1391 4409 1094 4409 
Q 969 4409 809 4381 
Q 650 4353 397 4281 
L 397 4641 
Q 625 4694 825 4722 
Q 1025 4750 1197 4750 
Q 1647 4750 1911 4565 
Q 2175 4381 2175 4072 
Q 2175 3856 2034 3706 
Q 1894 3556 1638 3500 
z
" transform="scale(0.015625)"/>
      </defs>
      <use xlink:href="#DejaVuSans-31"/>
      <use xlink:href="#DejaVuSans-b3" x="63.623047"/>
      <use xlink:href="#DejaVuSans-2e" x="103.710938"/>
      <use xlink:href="#DejaVuSans-32" x="135.498047"/>
     </g>
    </g>
    <g id="text_29">
     <!-- 1.2² -->
     <g transform="translate(112.823402 126.023979) scale(0.15 -0.15)">
      <use xlink:href="#DejaVuSans-31"/>
      <use xlink:href="#DejaVuSans-2e" x="63.623047"/>
      <use xlink:href="#DejaVuSans-32" x="95.410156"/>
      <use xlink:href="#DejaVuSans-b2" x="159.033203"/>
     </g>
    </g>
    <g id="text_30">
     <!-- 1².2² -->
     <g transform="translate(112.823402 22.701795) scale(0.15 -0.15)">
      <use xlink:href="#DejaVuSans-31"/>
      <use xlink:href="#DejaVuSans-b2" x="63.623047"/>
      <use xlink:href="#DejaVuSans-2e" x="103.710938"/>
      <use xlink:href="#DejaVuSans-32" x="135.498047"/>
      <use xlink:href="#DejaVuSans-b2" x="199.121094"/>
     </g>
    </g>
    <g id="text_31">
     <!-- 3 -->
     <g transform="translate(137.943325 291.339473) scale(0.15 -0.15)">
      <use xlink:href="#DejaVuSans-33"/>
     </g>
    </g>
    <g id="text_32">
     <!-- 6 -->
     <g transform="translate(439.382398 291.339473) scale(0.15 -0.15)">
      <use xlink:href="#DejaVuSans-36"/>
     </g>
    </g>
    <g id="text_33">
     <!-- 1.2.3 -->
     <g transform="translate(163.063247 64.030668) scale(0.15 -0.15)">
      <use xlink:href="#DejaVuSans-31"/>
      <use xlink:href="#DejaVuSans-2e" x="63.623047"/>
      <use xlink:href="#DejaVuSans-32" x="95.410156"/>
      <use xlink:href="#DejaVuSans-2e" x="159.033203"/>
      <use xlink:href="#DejaVuSans-33" x="190.820312"/>
     </g>
    </g>
    <g id="text_34">
     <!-- 2.4 -->
     <g transform="translate(238.423016 126.023979) scale(0.15 -0.15)">
      <use xlink:href="#DejaVuSans-32"/>
      <use xlink:href="#DejaVuSans-2e" x="63.623047"/>
      <use xlink:href="#DejaVuSans-34" x="95.410156"/>
     </g>
    </g>
   </g>
  </g>
  <defs>
   <clipPath id="p9f138036e4">
    <rect x="44.203125" y="16.149656" width="404.369489" height="288.294094"/>
   </clipPath>
  </defs>
 </g>
</svg>
