<?xml version="1.0" encoding="utf-8" standalone="no"?>
<!DOCTYPE svg PUBLIC "-//W3C//DTD SVG 1.1//EN"
  "http://www.w3.org/Graphics/SVG/1.1/DTD/svg11.dtd">
<svg xmlns:xlink="http://www.w3.org/1999/xlink" width="460.8pt" height="345.6pt" viewBox="0 0 460.8 345.6" xmlns="http://www.w3.org/2000/svg" version="1.1">
 <metadata>
  <rdf:RDF xmlns:dc="http://purl.org/dc/elements/1.1/" xmlns:cc="http://creativecommons.org/ns#" xmlns:rdf="http://www.w3.org/1999/02/22-rdf-syntax-ns#">
   <cc:Work>
    <dc:type rdf:resource="http://purl.org/dc/dcmitype/StillImage"/>
    <dc:date>2024-01-23T07:45:18.058568</dc:date>
    <dc:format>image/svg+xml</dc:format>
    <dc:creator>
     <cc:Agent>
      <dc:title>Matplotlib v3.7.1, https://matplotlib.org/</dc:title>
     </cc:Agent>
    </dc:creator>
   </cc:Work>
  </rdf:RDF>
 </metadata>
 <defs>
  <style type="text/css">*{stroke-linejoin: round; stroke-linecap: butt}</style>
 </defs>
 <g id="figure_1">
  <g id="patch_1">
   <path d="M 0 345.6 
L 460.8 345.6 
L 460.8 0 
L 0 0 
z
" style="fill: #ffffff"/>
  </g>
  <g id="axes_1">
   <g id="patch_2">
    <path d="M 47.72 303.64 
L 450 303.64 
L 450 10.8 
L 47.72 10.8 
z
" style="fill: #ffffff"/>
   </g>
   <g id="PathCollection_1">
    <path d="M 66.005455 294.206925 
C 67.033868 294.206925 68.020299 293.798332 68.747497 293.071133 
C 69.474695 292.343935 69.883288 291.357504 69.883288 290.329091 
C 69.883288 289.300677 69.474695 288.314247 68.747497 287.587048 
C 68.020299 286.85985 67.033868 286.451257 66.005455 286.451257 
C 64.977041 286.451257 63.99061 286.85985 63.263412 287.587048 
C 62.536214 288.314247 62.127621 289.300677 62.127621 290.329091 
C 62.127621 291.357504 62.536214 292.343935 63.263412 293.071133 
C 63.99061 293.798332 64.977041 294.206925 66.005455 294.206925 
z
" clip-path="url(#p125906cbc8)" style="fill: #1f77b4; stroke: #1f77b4"/>
    <path d="M 309.811515 166.518718 
C 312.277564 166.518718 314.642942 165.538947 316.386702 163.795187 
C 318.130462 162.051427 319.110234 159.686049 319.110234 157.22 
C 319.110234 154.753951 318.130462 152.388573 316.386702 150.644813 
C 314.642942 148.901053 312.277564 147.921282 309.811515 147.921282 
C 307.345466 147.921282 304.980088 148.901053 303.236328 150.644813 
C 301.492568 152.388573 300.512797 154.753951 300.512797 157.22 
C 300.512797 159.686049 301.492568 162.051427 303.236328 163.795187 
C 304.980088 165.538947 307.345466 166.518718 309.811515 166.518718 
z
" clip-path="url(#p125906cbc8)" style="fill: #1f77b4; stroke: #1f77b4"/>
    <path d="M 309.811515 229.25863 
C 311.265911 229.25863 312.660935 228.680793 313.689349 227.652379 
C 314.717762 226.623966 315.2956 225.228942 315.2956 223.774545 
C 315.2956 222.320149 314.717762 220.925125 313.689349 219.896712 
C 312.660935 218.868298 311.265911 218.29046 309.811515 218.29046 
C 308.357119 218.29046 306.962095 218.868298 305.933681 219.896712 
C 304.905268 220.925125 304.32743 222.320149 304.32743 223.774545 
C 304.32743 225.228942 304.905268 226.623966 305.933681 227.652379 
C 306.962095 228.680793 308.357119 229.25863 309.811515 229.25863 
z
" clip-path="url(#p125906cbc8)" style="fill: #1f77b4; stroke: #1f77b4"/>
    <path d="M 370.76303 229.905939 
C 372.389095 229.905939 373.948779 229.259897 375.09858 228.110095 
C 376.248381 226.960294 376.894424 225.40061 376.894424 223.774545 
C 376.894424 222.148481 376.248381 220.588797 375.09858 219.438996 
C 373.948779 218.289194 372.389095 217.643152 370.76303 217.643152 
C 369.136966 217.643152 367.577282 218.289194 366.42748 219.438996 
C 365.277679 220.588797 364.631637 222.148481 364.631637 223.774545 
C 364.631637 225.40061 365.277679 226.960294 366.42748 228.110095 
C 367.577282 229.259897 369.136966 229.905939 370.76303 229.905939 
z
" clip-path="url(#p125906cbc8)" style="fill: #1f77b4; stroke: #1f77b4"/>
    <path d="M 126.95697 229.25863 
C 128.411366 229.25863 129.80639 228.680793 130.834803 227.652379 
C 131.863217 226.623966 132.441055 225.228942 132.441055 223.774545 
C 132.441055 222.320149 131.863217 220.925125 130.834803 219.896712 
C 129.80639 218.868298 128.411366 218.29046 126.95697 218.29046 
C 125.502573 218.29046 124.10755 218.868298 123.079136 219.896712 
C 122.050723 220.925125 121.472885 222.320149 121.472885 223.774545 
C 121.472885 225.228942 122.050723 226.623966 123.079136 227.652379 
C 124.10755 228.680793 125.502573 229.25863 126.95697 229.25863 
z
" clip-path="url(#p125906cbc8)" style="fill: #1f77b4; stroke: #1f77b4"/>
    <path d="M 431.714545 98.659813 
C 433.834674 98.659813 435.868253 97.817477 437.367411 96.31832 
C 438.866568 94.819163 439.708904 92.785583 439.708904 90.665455 
C 439.708904 88.545326 438.866568 86.511747 437.367411 85.012589 
C 435.868253 83.513432 433.834674 82.671096 431.714545 82.671096 
C 429.594417 82.671096 427.560837 83.513432 426.06168 85.012589 
C 424.562523 86.511747 423.720187 88.545326 423.720187 90.665455 
C 423.720187 92.785583 424.562523 94.819163 426.06168 96.31832 
C 427.560837 97.817477 429.594417 98.659813 431.714545 98.659813 
z
" clip-path="url(#p125906cbc8)" style="fill: #1f77b4; stroke: #1f77b4"/>
    <path d="M 370.76303 96.14954 
C 372.217427 96.14954 373.61245 95.571702 374.640864 94.543288 
C 375.669277 93.514875 376.247115 92.119851 376.247115 90.665455 
C 376.247115 89.211058 375.669277 87.816034 374.640864 86.787621 
C 373.61245 85.759207 372.217427 85.18137 370.76303 85.18137 
C 369.308634 85.18137 367.91361 85.759207 366.885197 86.787621 
C 365.856783 87.816034 365.278945 89.211058 365.278945 90.665455 
C 365.278945 92.119851 365.856783 93.514875 366.885197 94.543288 
C 367.91361 95.571702 369.308634 96.14954 370.76303 96.14954 
z
" clip-path="url(#p125906cbc8)" style="fill: #1f77b4; stroke: #1f77b4"/>
    <path d="M 370.76303 163.936605 
C 372.544295 163.936605 374.252843 163.228901 375.512387 161.969357 
C 376.771931 160.709813 377.479635 159.001264 377.479635 157.22 
C 377.479635 155.438736 376.771931 153.730187 375.512387 152.470643 
C 374.252843 151.211099 372.544295 150.503395 370.76303 150.503395 
C 368.981766 150.503395 367.273218 151.211099 366.013673 152.470643 
C 364.754129 153.730187 364.046425 155.438736 364.046425 157.22 
C 364.046425 159.001264 364.754129 160.709813 366.013673 161.969357 
C 367.273218 163.228901 368.981766 163.936605 370.76303 163.936605 
z
" clip-path="url(#p125906cbc8)" style="fill: #1f77b4; stroke: #1f77b4"/>
    <path d="M 248.86 160.578302 
C 249.750632 160.578302 250.604906 160.224451 251.234678 159.594678 
C 251.864451 158.964906 252.218302 158.110632 252.218302 157.22 
C 252.218302 156.329368 251.864451 155.475094 251.234678 154.845322 
C 250.604906 154.215549 249.750632 153.861698 248.86 153.861698 
C 247.969368 153.861698 247.115094 154.215549 246.485322 154.845322 
C 245.855549 155.475094 245.501698 156.329368 245.501698 157.22 
C 245.501698 158.110632 245.855549 158.964906 246.485322 159.594678 
C 247.115094 160.224451 247.969368 160.578302 248.86 160.578302 
z
" clip-path="url(#p125906cbc8)" style="fill: #1f77b4; stroke: #1f77b4"/>
    <path d="M 431.714545 164.975667 
C 433.771372 164.975667 435.744234 164.158481 437.19863 162.704085 
C 438.653027 161.249689 439.470213 159.276827 439.470213 157.22 
C 439.470213 155.163173 438.653027 153.190311 437.19863 151.735915 
C 435.744234 150.281519 433.771372 149.464333 431.714545 149.464333 
C 429.657718 149.464333 427.684857 150.281519 426.23046 151.735915 
C 424.776064 153.190311 423.958878 155.163173 423.958878 157.22 
C 423.958878 159.276827 424.776064 161.249689 426.23046 162.704085 
C 427.684857 164.158481 429.657718 164.975667 431.714545 164.975667 
z
" clip-path="url(#p125906cbc8)" style="fill: #1f77b4; stroke: #1f77b4"/>
    <path d="M 370.76303 27.988743 
C 371.791444 27.988743 372.777875 27.58015 373.505073 26.852952 
C 374.232271 26.125753 374.640864 25.139323 374.640864 24.110909 
C 374.640864 23.082496 374.232271 22.096065 373.505073 21.368867 
C 372.777875 20.641668 371.791444 20.233075 370.76303 20.233075 
C 369.734617 20.233075 368.748186 20.641668 368.020988 21.368867 
C 367.29379 22.096065 366.885197 23.082496 366.885197 24.110909 
C 366.885197 25.139323 367.29379 26.125753 368.020988 26.852952 
C 368.748186 27.58015 369.734617 27.988743 370.76303 27.988743 
z
" clip-path="url(#p125906cbc8)" style="fill: #1f77b4; stroke: #1f77b4"/>
    <path d="M 370.76303 94.543288 
C 371.791444 94.543288 372.777875 94.134695 373.505073 93.407497 
C 374.232271 92.680299 374.640864 91.693868 374.640864 90.665455 
C 374.640864 89.637041 374.232271 88.65061 373.505073 87.923412 
C 372.777875 87.196214 371.791444 86.787621 370.76303 86.787621 
C 369.734617 86.787621 368.748186 87.196214 368.020988 87.923412 
C 367.29379 88.65061 366.885197 89.637041 366.885197 90.665455 
C 366.885197 91.693868 367.29379 92.680299 368.020988 93.407497 
C 368.748186 94.134695 369.734617 94.543288 370.76303 94.543288 
z
" clip-path="url(#p125906cbc8)" style="fill: #1f77b4; stroke: #1f77b4"/>
    <path d="M 431.714545 26.852952 
C 432.441744 26.852952 433.139256 26.564033 433.653462 26.049826 
C 434.167669 25.535619 434.456588 24.838107 434.456588 24.110909 
C 434.456588 23.383711 434.167669 22.686199 433.653462 22.171992 
C 433.139256 21.657785 432.441744 21.368867 431.714545 21.368867 
C 430.987347 21.368867 430.289835 21.657785 429.775629 22.171992 
C 429.261422 22.686199 428.972503 23.383711 428.972503 24.110909 
C 428.972503 24.838107 429.261422 25.535619 429.775629 26.049826 
C 430.289835 26.564033 430.987347 26.852952 431.714545 26.852952 
z
" clip-path="url(#p125906cbc8)" style="fill: #1f77b4; stroke: #1f77b4"/>
    <path d="M 248.86 226.516588 
C 249.587198 226.516588 250.28471 226.227669 250.798917 225.713462 
C 251.313124 225.199256 251.602042 224.501744 251.602042 223.774545 
C 251.602042 223.047347 251.313124 222.349835 250.798917 221.835629 
C 250.28471 221.321422 249.587198 221.032503 248.86 221.032503 
C 248.132802 221.032503 247.43529 221.321422 246.921083 221.835629 
C 246.406876 222.349835 246.117958 223.047347 246.117958 223.774545 
C 246.117958 224.501744 246.406876 225.199256 246.921083 225.713462 
C 247.43529 226.227669 248.132802 226.516588 248.86 226.516588 
z
" clip-path="url(#p125906cbc8)" style="fill: #1f77b4; stroke: #1f77b4"/>
    <path d="M 431.714545 228.523902 
C 432.97409 228.523902 434.182216 228.02348 435.072848 227.132848 
C 435.96348 226.242216 436.463902 225.03409 436.463902 223.774545 
C 436.463902 222.515001 435.96348 221.306875 435.072848 220.416243 
C 434.182216 219.525611 432.97409 219.025189 431.714545 219.025189 
C 430.455001 219.025189 429.246875 219.525611 428.356243 220.416243 
C 427.465611 221.306875 426.965189 222.515001 426.965189 223.774545 
C 426.965189 225.03409 427.465611 226.242216 428.356243 227.132848 
C 429.246875 228.02348 430.455001 228.523902 431.714545 228.523902 
z
" clip-path="url(#p125906cbc8)" style="fill: #1f77b4; stroke: #1f77b4"/>
    <path d="M 431.714545 94.543288 
C 432.742959 94.543288 433.72939 94.134695 434.456588 93.407497 
C 435.183786 92.680299 435.592379 91.693868 435.592379 90.665455 
C 435.592379 89.637041 435.183786 88.65061 434.456588 87.923412 
C 433.72939 87.196214 432.742959 86.787621 431.714545 86.787621 
C 430.686132 86.787621 429.699701 87.196214 428.972503 87.923412 
C 428.245305 88.65061 427.836712 89.637041 427.836712 90.665455 
C 427.836712 91.693868 428.245305 92.680299 428.972503 93.407497 
C 429.699701 94.134695 430.686132 94.543288 431.714545 94.543288 
z
" clip-path="url(#p125906cbc8)" style="fill: #1f77b4; stroke: #1f77b4"/>
    <path d="M 431.714545 159.962042 
C 432.441744 159.962042 433.139256 159.673124 433.653462 159.158917 
C 434.167669 158.64471 434.456588 157.947198 434.456588 157.22 
C 434.456588 156.492802 434.167669 155.79529 433.653462 155.281083 
C 433.139256 154.766876 432.441744 154.477958 431.714545 154.477958 
C 430.987347 154.477958 430.289835 154.766876 429.775629 155.281083 
C 429.261422 155.79529 428.972503 156.492802 428.972503 157.22 
C 428.972503 157.947198 429.261422 158.64471 429.775629 159.158917 
C 430.289835 159.673124 430.987347 159.962042 431.714545 159.962042 
z
" clip-path="url(#p125906cbc8)" style="fill: #1f77b4; stroke: #1f77b4"/>
   </g>
   <g id="matplotlib.axis_1">
    <g id="xtick_1">
     <g id="line2d_1">
      <path d="M 66.005455 303.64 
L 66.005455 10.8 
" clip-path="url(#p125906cbc8)" style="fill: none; stroke: #b0b0b0; stroke-width: 0.8; stroke-linecap: square"/>
     </g>
     <g id="line2d_2">
      <defs>
       <path id="m487ac69ab4" d="M 0 0 
L 0 3.5 
" style="stroke: #000000; stroke-width: 0.8"/>
      </defs>
      <g>
       <use xlink:href="#m487ac69ab4" x="66.005455" y="303.64" style="stroke: #000000; stroke-width: 0.8"/>
      </g>
     </g>
     <g id="text_1">
      <!-- 0 -->
      <g transform="translate(62.824205 318.238437) scale(0.1 -0.1)">
       <defs>
        <path id="DejaVuSans-30" d="M 2034 4250 
Q 1547 4250 1301 3770 
Q 1056 3291 1056 2328 
Q 1056 1369 1301 889 
Q 1547 409 2034 409 
Q 2525 409 2770 889 
Q 3016 1369 3016 2328 
Q 3016 3291 2770 3770 
Q 2525 4250 2034 4250 
z
M 2034 4750 
Q 2819 4750 3233 4129 
Q 3647 3509 3647 2328 
Q 3647 1150 3233 529 
Q 2819 -91 2034 -91 
Q 1250 -91 836 529 
Q 422 1150 422 2328 
Q 422 3509 836 4129 
Q 1250 4750 2034 4750 
z
" transform="scale(0.015625)"/>
       </defs>
       <use xlink:href="#DejaVuSans-30"/>
      </g>
     </g>
    </g>
    <g id="xtick_2">
     <g id="line2d_3">
      <path d="M 126.95697 303.64 
L 126.95697 10.8 
" clip-path="url(#p125906cbc8)" style="fill: none; stroke: #b0b0b0; stroke-width: 0.8; stroke-linecap: square"/>
     </g>
     <g id="line2d_4">
      <g>
       <use xlink:href="#m487ac69ab4" x="126.95697" y="303.64" style="stroke: #000000; stroke-width: 0.8"/>
      </g>
     </g>
     <g id="text_2">
      <!-- 1 -->
      <g transform="translate(123.77572 318.238437) scale(0.1 -0.1)">
       <defs>
        <path id="DejaVuSans-31" d="M 794 531 
L 1825 531 
L 1825 4091 
L 703 3866 
L 703 4441 
L 1819 4666 
L 2450 4666 
L 2450 531 
L 3481 531 
L 3481 0 
L 794 0 
L 794 531 
z
" transform="scale(0.015625)"/>
       </defs>
       <use xlink:href="#DejaVuSans-31"/>
      </g>
     </g>
    </g>
    <g id="xtick_3">
     <g id="line2d_5">
      <path d="M 187.908485 303.64 
L 187.908485 10.8 
" clip-path="url(#p125906cbc8)" style="fill: none; stroke: #b0b0b0; stroke-width: 0.8; stroke-linecap: square"/>
     </g>
     <g id="line2d_6">
      <g>
       <use xlink:href="#m487ac69ab4" x="187.908485" y="303.64" style="stroke: #000000; stroke-width: 0.8"/>
      </g>
     </g>
     <g id="text_3">
      <!-- 2 -->
      <g transform="translate(184.727235 318.238437) scale(0.1 -0.1)">
       <defs>
        <path id="DejaVuSans-32" d="M 1228 531 
L 3431 531 
L 3431 0 
L 469 0 
L 469 531 
Q 828 903 1448 1529 
Q 2069 2156 2228 2338 
Q 2531 2678 2651 2914 
Q 2772 3150 2772 3378 
Q 2772 3750 2511 3984 
Q 2250 4219 1831 4219 
Q 1534 4219 1204 4116 
Q 875 4013 500 3803 
L 500 4441 
Q 881 4594 1212 4672 
Q 1544 4750 1819 4750 
Q 2544 4750 2975 4387 
Q 3406 4025 3406 3419 
Q 3406 3131 3298 2873 
Q 3191 2616 2906 2266 
Q 2828 2175 2409 1742 
Q 1991 1309 1228 531 
z
" transform="scale(0.015625)"/>
       </defs>
       <use xlink:href="#DejaVuSans-32"/>
      </g>
     </g>
    </g>
    <g id="xtick_4">
     <g id="line2d_7">
      <path d="M 248.86 303.64 
L 248.86 10.8 
" clip-path="url(#p125906cbc8)" style="fill: none; stroke: #b0b0b0; stroke-width: 0.8; stroke-linecap: square"/>
     </g>
     <g id="line2d_8">
      <g>
       <use xlink:href="#m487ac69ab4" x="248.86" y="303.64" style="stroke: #000000; stroke-width: 0.8"/>
      </g>
     </g>
     <g id="text_4">
      <!-- 3 -->
      <g transform="translate(245.67875 318.238437) scale(0.1 -0.1)">
       <defs>
        <path id="DejaVuSans-33" d="M 2597 2516 
Q 3050 2419 3304 2112 
Q 3559 1806 3559 1356 
Q 3559 666 3084 287 
Q 2609 -91 1734 -91 
Q 1441 -91 1130 -33 
Q 819 25 488 141 
L 488 750 
Q 750 597 1062 519 
Q 1375 441 1716 441 
Q 2309 441 2620 675 
Q 2931 909 2931 1356 
Q 2931 1769 2642 2001 
Q 2353 2234 1838 2234 
L 1294 2234 
L 1294 2753 
L 1863 2753 
Q 2328 2753 2575 2939 
Q 2822 3125 2822 3475 
Q 2822 3834 2567 4026 
Q 2313 4219 1838 4219 
Q 1578 4219 1281 4162 
Q 984 4106 628 3988 
L 628 4550 
Q 988 4650 1302 4700 
Q 1616 4750 1894 4750 
Q 2613 4750 3031 4423 
Q 3450 4097 3450 3541 
Q 3450 3153 3228 2886 
Q 3006 2619 2597 2516 
z
" transform="scale(0.015625)"/>
       </defs>
       <use xlink:href="#DejaVuSans-33"/>
      </g>
     </g>
    </g>
    <g id="xtick_5">
     <g id="line2d_9">
      <path d="M 309.811515 303.64 
L 309.811515 10.8 
" clip-path="url(#p125906cbc8)" style="fill: none; stroke: #b0b0b0; stroke-width: 0.8; stroke-linecap: square"/>
     </g>
     <g id="line2d_10">
      <g>
       <use xlink:href="#m487ac69ab4" x="309.811515" y="303.64" style="stroke: #000000; stroke-width: 0.8"/>
      </g>
     </g>
     <g id="text_5">
      <!-- 4 -->
      <g transform="translate(306.630265 318.238437) scale(0.1 -0.1)">
       <defs>
        <path id="DejaVuSans-34" d="M 2419 4116 
L 825 1625 
L 2419 1625 
L 2419 4116 
z
M 2253 4666 
L 3047 4666 
L 3047 1625 
L 3713 1625 
L 3713 1100 
L 3047 1100 
L 3047 0 
L 2419 0 
L 2419 1100 
L 313 1100 
L 313 1709 
L 2253 4666 
z
" transform="scale(0.015625)"/>
       </defs>
       <use xlink:href="#DejaVuSans-34"/>
      </g>
     </g>
    </g>
    <g id="xtick_6">
     <g id="line2d_11">
      <path d="M 370.76303 303.64 
L 370.76303 10.8 
" clip-path="url(#p125906cbc8)" style="fill: none; stroke: #b0b0b0; stroke-width: 0.8; stroke-linecap: square"/>
     </g>
     <g id="line2d_12">
      <g>
       <use xlink:href="#m487ac69ab4" x="370.76303" y="303.64" style="stroke: #000000; stroke-width: 0.8"/>
      </g>
     </g>
     <g id="text_6">
      <!-- 5 -->
      <g transform="translate(367.58178 318.238437) scale(0.1 -0.1)">
       <defs>
        <path id="DejaVuSans-35" d="M 691 4666 
L 3169 4666 
L 3169 4134 
L 1269 4134 
L 1269 2991 
Q 1406 3038 1543 3061 
Q 1681 3084 1819 3084 
Q 2600 3084 3056 2656 
Q 3513 2228 3513 1497 
Q 3513 744 3044 326 
Q 2575 -91 1722 -91 
Q 1428 -91 1123 -41 
Q 819 9 494 109 
L 494 744 
Q 775 591 1075 516 
Q 1375 441 1709 441 
Q 2250 441 2565 725 
Q 2881 1009 2881 1497 
Q 2881 1984 2565 2268 
Q 2250 2553 1709 2553 
Q 1456 2553 1204 2497 
Q 953 2441 691 2322 
L 691 4666 
z
" transform="scale(0.015625)"/>
       </defs>
       <use xlink:href="#DejaVuSans-35"/>
      </g>
     </g>
    </g>
    <g id="xtick_7">
     <g id="line2d_13">
      <path d="M 431.714545 303.64 
L 431.714545 10.8 
" clip-path="url(#p125906cbc8)" style="fill: none; stroke: #b0b0b0; stroke-width: 0.8; stroke-linecap: square"/>
     </g>
     <g id="line2d_14">
      <g>
       <use xlink:href="#m487ac69ab4" x="431.714545" y="303.64" style="stroke: #000000; stroke-width: 0.8"/>
      </g>
     </g>
     <g id="text_7">
      <!-- 6 -->
      <g transform="translate(428.533295 318.238437) scale(0.1 -0.1)">
       <defs>
        <path id="DejaVuSans-36" d="M 2113 2584 
Q 1688 2584 1439 2293 
Q 1191 2003 1191 1497 
Q 1191 994 1439 701 
Q 1688 409 2113 409 
Q 2538 409 2786 701 
Q 3034 994 3034 1497 
Q 3034 2003 2786 2293 
Q 2538 2584 2113 2584 
z
M 3366 4563 
L 3366 3988 
Q 3128 4100 2886 4159 
Q 2644 4219 2406 4219 
Q 1781 4219 1451 3797 
Q 1122 3375 1075 2522 
Q 1259 2794 1537 2939 
Q 1816 3084 2150 3084 
Q 2853 3084 3261 2657 
Q 3669 2231 3669 1497 
Q 3669 778 3244 343 
Q 2819 -91 2113 -91 
Q 1303 -91 875 529 
Q 447 1150 447 2328 
Q 447 3434 972 4092 
Q 1497 4750 2381 4750 
Q 2619 4750 2861 4703 
Q 3103 4656 3366 4563 
z
" transform="scale(0.015625)"/>
       </defs>
       <use xlink:href="#DejaVuSans-36"/>
      </g>
     </g>
    </g>
    <g id="text_8">
     <!-- Density number -->
     <g transform="translate(208.748281 331.916562) scale(0.1 -0.1)">
      <defs>
       <path id="DejaVuSans-44" d="M 1259 4147 
L 1259 519 
L 2022 519 
Q 2988 519 3436 956 
Q 3884 1394 3884 2338 
Q 3884 3275 3436 3711 
Q 2988 4147 2022 4147 
L 1259 4147 
z
M 628 4666 
L 1925 4666 
Q 3281 4666 3915 4102 
Q 4550 3538 4550 2338 
Q 4550 1131 3912 565 
Q 3275 0 1925 0 
L 628 0 
L 628 4666 
z
" transform="scale(0.015625)"/>
       <path id="DejaVuSans-65" d="M 3597 1894 
L 3597 1613 
L 953 1613 
Q 991 1019 1311 708 
Q 1631 397 2203 397 
Q 2534 397 2845 478 
Q 3156 559 3463 722 
L 3463 178 
Q 3153 47 2828 -22 
Q 2503 -91 2169 -91 
Q 1331 -91 842 396 
Q 353 884 353 1716 
Q 353 2575 817 3079 
Q 1281 3584 2069 3584 
Q 2775 3584 3186 3129 
Q 3597 2675 3597 1894 
z
M 3022 2063 
Q 3016 2534 2758 2815 
Q 2500 3097 2075 3097 
Q 1594 3097 1305 2825 
Q 1016 2553 972 2059 
L 3022 2063 
z
" transform="scale(0.015625)"/>
       <path id="DejaVuSans-6e" d="M 3513 2113 
L 3513 0 
L 2938 0 
L 2938 2094 
Q 2938 2591 2744 2837 
Q 2550 3084 2163 3084 
Q 1697 3084 1428 2787 
Q 1159 2491 1159 1978 
L 1159 0 
L 581 0 
L 581 3500 
L 1159 3500 
L 1159 2956 
Q 1366 3272 1645 3428 
Q 1925 3584 2291 3584 
Q 2894 3584 3203 3211 
Q 3513 2838 3513 2113 
z
" transform="scale(0.015625)"/>
       <path id="DejaVuSans-73" d="M 2834 3397 
L 2834 2853 
Q 2591 2978 2328 3040 
Q 2066 3103 1784 3103 
Q 1356 3103 1142 2972 
Q 928 2841 928 2578 
Q 928 2378 1081 2264 
Q 1234 2150 1697 2047 
L 1894 2003 
Q 2506 1872 2764 1633 
Q 3022 1394 3022 966 
Q 3022 478 2636 193 
Q 2250 -91 1575 -91 
Q 1294 -91 989 -36 
Q 684 19 347 128 
L 347 722 
Q 666 556 975 473 
Q 1284 391 1588 391 
Q 1994 391 2212 530 
Q 2431 669 2431 922 
Q 2431 1156 2273 1281 
Q 2116 1406 1581 1522 
L 1381 1569 
Q 847 1681 609 1914 
Q 372 2147 372 2553 
Q 372 3047 722 3315 
Q 1072 3584 1716 3584 
Q 2034 3584 2315 3537 
Q 2597 3491 2834 3397 
z
" transform="scale(0.015625)"/>
       <path id="DejaVuSans-69" d="M 603 3500 
L 1178 3500 
L 1178 0 
L 603 0 
L 603 3500 
z
M 603 4863 
L 1178 4863 
L 1178 4134 
L 603 4134 
L 603 4863 
z
" transform="scale(0.015625)"/>
       <path id="DejaVuSans-74" d="M 1172 4494 
L 1172 3500 
L 2356 3500 
L 2356 3053 
L 1172 3053 
L 1172 1153 
Q 1172 725 1289 603 
Q 1406 481 1766 481 
L 2356 481 
L 2356 0 
L 1766 0 
Q 1100 0 847 248 
Q 594 497 594 1153 
L 594 3053 
L 172 3053 
L 172 3500 
L 594 3500 
L 594 4494 
L 1172 4494 
z
" transform="scale(0.015625)"/>
       <path id="DejaVuSans-79" d="M 2059 -325 
Q 1816 -950 1584 -1140 
Q 1353 -1331 966 -1331 
L 506 -1331 
L 506 -850 
L 844 -850 
Q 1081 -850 1212 -737 
Q 1344 -625 1503 -206 
L 1606 56 
L 191 3500 
L 800 3500 
L 1894 763 
L 2988 3500 
L 3597 3500 
L 2059 -325 
z
" transform="scale(0.015625)"/>
       <path id="DejaVuSans-20" transform="scale(0.015625)"/>
       <path id="DejaVuSans-75" d="M 544 1381 
L 544 3500 
L 1119 3500 
L 1119 1403 
Q 1119 906 1312 657 
Q 1506 409 1894 409 
Q 2359 409 2629 706 
Q 2900 1003 2900 1516 
L 2900 3500 
L 3475 3500 
L 3475 0 
L 2900 0 
L 2900 538 
Q 2691 219 2414 64 
Q 2138 -91 1772 -91 
Q 1169 -91 856 284 
Q 544 659 544 1381 
z
M 1991 3584 
L 1991 3584 
z
" transform="scale(0.015625)"/>
       <path id="DejaVuSans-6d" d="M 3328 2828 
Q 3544 3216 3844 3400 
Q 4144 3584 4550 3584 
Q 5097 3584 5394 3201 
Q 5691 2819 5691 2113 
L 5691 0 
L 5113 0 
L 5113 2094 
Q 5113 2597 4934 2840 
Q 4756 3084 4391 3084 
Q 3944 3084 3684 2787 
Q 3425 2491 3425 1978 
L 3425 0 
L 2847 0 
L 2847 2094 
Q 2847 2600 2669 2842 
Q 2491 3084 2119 3084 
Q 1678 3084 1418 2786 
Q 1159 2488 1159 1978 
L 1159 0 
L 581 0 
L 581 3500 
L 1159 3500 
L 1159 2956 
Q 1356 3278 1631 3431 
Q 1906 3584 2284 3584 
Q 2666 3584 2933 3390 
Q 3200 3197 3328 2828 
z
" transform="scale(0.015625)"/>
       <path id="DejaVuSans-62" d="M 3116 1747 
Q 3116 2381 2855 2742 
Q 2594 3103 2138 3103 
Q 1681 3103 1420 2742 
Q 1159 2381 1159 1747 
Q 1159 1113 1420 752 
Q 1681 391 2138 391 
Q 2594 391 2855 752 
Q 3116 1113 3116 1747 
z
M 1159 2969 
Q 1341 3281 1617 3432 
Q 1894 3584 2278 3584 
Q 2916 3584 3314 3078 
Q 3713 2572 3713 1747 
Q 3713 922 3314 415 
Q 2916 -91 2278 -91 
Q 1894 -91 1617 61 
Q 1341 213 1159 525 
L 1159 0 
L 581 0 
L 581 4863 
L 1159 4863 
L 1159 2969 
z
" transform="scale(0.015625)"/>
       <path id="DejaVuSans-72" d="M 2631 2963 
Q 2534 3019 2420 3045 
Q 2306 3072 2169 3072 
Q 1681 3072 1420 2755 
Q 1159 2438 1159 1844 
L 1159 0 
L 581 0 
L 581 3500 
L 1159 3500 
L 1159 2956 
Q 1341 3275 1631 3429 
Q 1922 3584 2338 3584 
Q 2397 3584 2469 3576 
Q 2541 3569 2628 3553 
L 2631 2963 
z
" transform="scale(0.015625)"/>
      </defs>
      <use xlink:href="#DejaVuSans-44"/>
      <use xlink:href="#DejaVuSans-65" x="77.001953"/>
      <use xlink:href="#DejaVuSans-6e" x="138.525391"/>
      <use xlink:href="#DejaVuSans-73" x="201.904297"/>
      <use xlink:href="#DejaVuSans-69" x="254.003906"/>
      <use xlink:href="#DejaVuSans-74" x="281.787109"/>
      <use xlink:href="#DejaVuSans-79" x="320.996094"/>
      <use xlink:href="#DejaVuSans-20" x="380.175781"/>
      <use xlink:href="#DejaVuSans-6e" x="411.962891"/>
      <use xlink:href="#DejaVuSans-75" x="475.341797"/>
      <use xlink:href="#DejaVuSans-6d" x="538.720703"/>
      <use xlink:href="#DejaVuSans-62" x="636.132812"/>
      <use xlink:href="#DejaVuSans-65" x="699.609375"/>
      <use xlink:href="#DejaVuSans-72" x="761.132812"/>
     </g>
    </g>
   </g>
   <g id="matplotlib.axis_2">
    <g id="ytick_1">
     <g id="line2d_15">
      <path d="M 47.72 290.329091 
L 450 290.329091 
" clip-path="url(#p125906cbc8)" style="fill: none; stroke: #b0b0b0; stroke-width: 0.8; stroke-linecap: square"/>
     </g>
     <g id="line2d_16">
      <defs>
       <path id="mf40faa28a6" d="M 0 0 
L -3.5 0 
" style="stroke: #000000; stroke-width: 0.8"/>
      </defs>
      <g>
       <use xlink:href="#mf40faa28a6" x="47.72" y="290.329091" style="stroke: #000000; stroke-width: 0.8"/>
      </g>
     </g>
     <g id="text_9">
      <!-- 0.0 -->
      <g transform="translate(24.816875 294.12831) scale(0.1 -0.1)">
       <defs>
        <path id="DejaVuSans-2e" d="M 684 794 
L 1344 794 
L 1344 0 
L 684 0 
L 684 794 
z
" transform="scale(0.015625)"/>
       </defs>
       <use xlink:href="#DejaVuSans-30"/>
       <use xlink:href="#DejaVuSans-2e" x="63.623047"/>
       <use xlink:href="#DejaVuSans-30" x="95.410156"/>
      </g>
     </g>
    </g>
    <g id="ytick_2">
     <g id="line2d_17">
      <path d="M 47.72 257.051818 
L 450 257.051818 
" clip-path="url(#p125906cbc8)" style="fill: none; stroke: #b0b0b0; stroke-width: 0.8; stroke-linecap: square"/>
     </g>
     <g id="line2d_18">
      <g>
       <use xlink:href="#mf40faa28a6" x="47.72" y="257.051818" style="stroke: #000000; stroke-width: 0.8"/>
      </g>
     </g>
     <g id="text_10">
      <!-- 0.5 -->
      <g transform="translate(24.816875 260.851037) scale(0.1 -0.1)">
       <use xlink:href="#DejaVuSans-30"/>
       <use xlink:href="#DejaVuSans-2e" x="63.623047"/>
       <use xlink:href="#DejaVuSans-35" x="95.410156"/>
      </g>
     </g>
    </g>
    <g id="ytick_3">
     <g id="line2d_19">
      <path d="M 47.72 223.774545 
L 450 223.774545 
" clip-path="url(#p125906cbc8)" style="fill: none; stroke: #b0b0b0; stroke-width: 0.8; stroke-linecap: square"/>
     </g>
     <g id="line2d_20">
      <g>
       <use xlink:href="#mf40faa28a6" x="47.72" y="223.774545" style="stroke: #000000; stroke-width: 0.8"/>
      </g>
     </g>
     <g id="text_11">
      <!-- 1.0 -->
      <g transform="translate(24.816875 227.573764) scale(0.1 -0.1)">
       <use xlink:href="#DejaVuSans-31"/>
       <use xlink:href="#DejaVuSans-2e" x="63.623047"/>
       <use xlink:href="#DejaVuSans-30" x="95.410156"/>
      </g>
     </g>
    </g>
    <g id="ytick_4">
     <g id="line2d_21">
      <path d="M 47.72 190.497273 
L 450 190.497273 
" clip-path="url(#p125906cbc8)" style="fill: none; stroke: #b0b0b0; stroke-width: 0.8; stroke-linecap: square"/>
     </g>
     <g id="line2d_22">
      <g>
       <use xlink:href="#mf40faa28a6" x="47.72" y="190.497273" style="stroke: #000000; stroke-width: 0.8"/>
      </g>
     </g>
     <g id="text_12">
      <!-- 1.5 -->
      <g transform="translate(24.816875 194.296491) scale(0.1 -0.1)">
       <use xlink:href="#DejaVuSans-31"/>
       <use xlink:href="#DejaVuSans-2e" x="63.623047"/>
       <use xlink:href="#DejaVuSans-35" x="95.410156"/>
      </g>
     </g>
    </g>
    <g id="ytick_5">
     <g id="line2d_23">
      <path d="M 47.72 157.22 
L 450 157.22 
" clip-path="url(#p125906cbc8)" style="fill: none; stroke: #b0b0b0; stroke-width: 0.8; stroke-linecap: square"/>
     </g>
     <g id="line2d_24">
      <g>
       <use xlink:href="#mf40faa28a6" x="47.72" y="157.22" style="stroke: #000000; stroke-width: 0.8"/>
      </g>
     </g>
     <g id="text_13">
      <!-- 2.0 -->
      <g transform="translate(24.816875 161.019219) scale(0.1 -0.1)">
       <use xlink:href="#DejaVuSans-32"/>
       <use xlink:href="#DejaVuSans-2e" x="63.623047"/>
       <use xlink:href="#DejaVuSans-30" x="95.410156"/>
      </g>
     </g>
    </g>
    <g id="ytick_6">
     <g id="line2d_25">
      <path d="M 47.72 123.942727 
L 450 123.942727 
" clip-path="url(#p125906cbc8)" style="fill: none; stroke: #b0b0b0; stroke-width: 0.8; stroke-linecap: square"/>
     </g>
     <g id="line2d_26">
      <g>
       <use xlink:href="#mf40faa28a6" x="47.72" y="123.942727" style="stroke: #000000; stroke-width: 0.8"/>
      </g>
     </g>
     <g id="text_14">
      <!-- 2.5 -->
      <g transform="translate(24.816875 127.741946) scale(0.1 -0.1)">
       <use xlink:href="#DejaVuSans-32"/>
       <use xlink:href="#DejaVuSans-2e" x="63.623047"/>
       <use xlink:href="#DejaVuSans-35" x="95.410156"/>
      </g>
     </g>
    </g>
    <g id="ytick_7">
     <g id="line2d_27">
      <path d="M 47.72 90.665455 
L 450 90.665455 
" clip-path="url(#p125906cbc8)" style="fill: none; stroke: #b0b0b0; stroke-width: 0.8; stroke-linecap: square"/>
     </g>
     <g id="line2d_28">
      <g>
       <use xlink:href="#mf40faa28a6" x="47.72" y="90.665455" style="stroke: #000000; stroke-width: 0.8"/>
      </g>
     </g>
     <g id="text_15">
      <!-- 3.0 -->
      <g transform="translate(24.816875 94.464673) scale(0.1 -0.1)">
       <use xlink:href="#DejaVuSans-33"/>
       <use xlink:href="#DejaVuSans-2e" x="63.623047"/>
       <use xlink:href="#DejaVuSans-30" x="95.410156"/>
      </g>
     </g>
    </g>
    <g id="ytick_8">
     <g id="line2d_29">
      <path d="M 47.72 57.388182 
L 450 57.388182 
" clip-path="url(#p125906cbc8)" style="fill: none; stroke: #b0b0b0; stroke-width: 0.8; stroke-linecap: square"/>
     </g>
     <g id="line2d_30">
      <g>
       <use xlink:href="#mf40faa28a6" x="47.72" y="57.388182" style="stroke: #000000; stroke-width: 0.8"/>
      </g>
     </g>
     <g id="text_16">
      <!-- 3.5 -->
      <g transform="translate(24.816875 61.187401) scale(0.1 -0.1)">
       <use xlink:href="#DejaVuSans-33"/>
       <use xlink:href="#DejaVuSans-2e" x="63.623047"/>
       <use xlink:href="#DejaVuSans-35" x="95.410156"/>
      </g>
     </g>
    </g>
    <g id="ytick_9">
     <g id="line2d_31">
      <path d="M 47.72 24.110909 
L 450 24.110909 
" clip-path="url(#p125906cbc8)" style="fill: none; stroke: #b0b0b0; stroke-width: 0.8; stroke-linecap: square"/>
     </g>
     <g id="line2d_32">
      <g>
       <use xlink:href="#mf40faa28a6" x="47.72" y="24.110909" style="stroke: #000000; stroke-width: 0.8"/>
      </g>
     </g>
     <g id="text_17">
      <!-- 4.0 -->
      <g transform="translate(24.816875 27.910128) scale(0.1 -0.1)">
       <use xlink:href="#DejaVuSans-34"/>
       <use xlink:href="#DejaVuSans-2e" x="63.623047"/>
       <use xlink:href="#DejaVuSans-30" x="95.410156"/>
      </g>
     </g>
    </g>
    <g id="text_18">
     <!-- Number of parts -->
     <g transform="translate(18.737188 198.162188) rotate(-90) scale(0.1 -0.1)">
      <defs>
       <path id="DejaVuSans-4e" d="M 628 4666 
L 1478 4666 
L 3547 763 
L 3547 4666 
L 4159 4666 
L 4159 0 
L 3309 0 
L 1241 3903 
L 1241 0 
L 628 0 
L 628 4666 
z
" transform="scale(0.015625)"/>
       <path id="DejaVuSans-6f" d="M 1959 3097 
Q 1497 3097 1228 2736 
Q 959 2375 959 1747 
Q 959 1119 1226 758 
Q 1494 397 1959 397 
Q 2419 397 2687 759 
Q 2956 1122 2956 1747 
Q 2956 2369 2687 2733 
Q 2419 3097 1959 3097 
z
M 1959 3584 
Q 2709 3584 3137 3096 
Q 3566 2609 3566 1747 
Q 3566 888 3137 398 
Q 2709 -91 1959 -91 
Q 1206 -91 779 398 
Q 353 888 353 1747 
Q 353 2609 779 3096 
Q 1206 3584 1959 3584 
z
" transform="scale(0.015625)"/>
       <path id="DejaVuSans-66" d="M 2375 4863 
L 2375 4384 
L 1825 4384 
Q 1516 4384 1395 4259 
Q 1275 4134 1275 3809 
L 1275 3500 
L 2222 3500 
L 2222 3053 
L 1275 3053 
L 1275 0 
L 697 0 
L 697 3053 
L 147 3053 
L 147 3500 
L 697 3500 
L 697 3744 
Q 697 4328 969 4595 
Q 1241 4863 1831 4863 
L 2375 4863 
z
" transform="scale(0.015625)"/>
       <path id="DejaVuSans-70" d="M 1159 525 
L 1159 -1331 
L 581 -1331 
L 581 3500 
L 1159 3500 
L 1159 2969 
Q 1341 3281 1617 3432 
Q 1894 3584 2278 3584 
Q 2916 3584 3314 3078 
Q 3713 2572 3713 1747 
Q 3713 922 3314 415 
Q 2916 -91 2278 -91 
Q 1894 -91 1617 61 
Q 1341 213 1159 525 
z
M 3116 1747 
Q 3116 2381 2855 2742 
Q 2594 3103 2138 3103 
Q 1681 3103 1420 2742 
Q 1159 2381 1159 1747 
Q 1159 1113 1420 752 
Q 1681 391 2138 391 
Q 2594 391 2855 752 
Q 3116 1113 3116 1747 
z
" transform="scale(0.015625)"/>
       <path id="DejaVuSans-61" d="M 2194 1759 
Q 1497 1759 1228 1600 
Q 959 1441 959 1056 
Q 959 750 1161 570 
Q 1363 391 1709 391 
Q 2188 391 2477 730 
Q 2766 1069 2766 1631 
L 2766 1759 
L 2194 1759 
z
M 3341 1997 
L 3341 0 
L 2766 0 
L 2766 531 
Q 2569 213 2275 61 
Q 1981 -91 1556 -91 
Q 1019 -91 701 211 
Q 384 513 384 1019 
Q 384 1609 779 1909 
Q 1175 2209 1959 2209 
L 2766 2209 
L 2766 2266 
Q 2766 2663 2505 2880 
Q 2244 3097 1772 3097 
Q 1472 3097 1187 3025 
Q 903 2953 641 2809 
L 641 3341 
Q 956 3463 1253 3523 
Q 1550 3584 1831 3584 
Q 2591 3584 2966 3190 
Q 3341 2797 3341 1997 
z
" transform="scale(0.015625)"/>
      </defs>
      <use xlink:href="#DejaVuSans-4e"/>
      <use xlink:href="#DejaVuSans-75" x="74.804688"/>
      <use xlink:href="#DejaVuSans-6d" x="138.183594"/>
      <use xlink:href="#DejaVuSans-62" x="235.595703"/>
      <use xlink:href="#DejaVuSans-65" x="299.072266"/>
      <use xlink:href="#DejaVuSans-72" x="360.595703"/>
      <use xlink:href="#DejaVuSans-20" x="401.708984"/>
      <use xlink:href="#DejaVuSans-6f" x="433.496094"/>
      <use xlink:href="#DejaVuSans-66" x="494.677734"/>
      <use xlink:href="#DejaVuSans-20" x="529.882812"/>
      <use xlink:href="#DejaVuSans-70" x="561.669922"/>
      <use xlink:href="#DejaVuSans-61" x="625.146484"/>
      <use xlink:href="#DejaVuSans-72" x="686.425781"/>
      <use xlink:href="#DejaVuSans-74" x="727.539062"/>
      <use xlink:href="#DejaVuSans-73" x="766.748047"/>
     </g>
    </g>
   </g>
   <g id="patch_3">
    <path d="M 47.72 303.64 
L 47.72 10.8 
" style="fill: none; stroke: #000000; stroke-width: 0.8; stroke-linejoin: miter; stroke-linecap: square"/>
   </g>
   <g id="patch_4">
    <path d="M 450 303.64 
L 450 10.8 
" style="fill: none; stroke: #000000; stroke-width: 0.8; stroke-linejoin: miter; stroke-linecap: square"/>
   </g>
   <g id="patch_5">
    <path d="M 47.72 303.64 
L 450 303.64 
" style="fill: none; stroke: #000000; stroke-width: 0.8; stroke-linejoin: miter; stroke-linecap: square"/>
   </g>
   <g id="patch_6">
    <path d="M 47.72 10.8 
L 450 10.8 
" style="fill: none; stroke: #000000; stroke-width: 0.8; stroke-linejoin: miter; stroke-linecap: square"/>
   </g>
  </g>
 </g>
 <defs>
  <clipPath id="p125906cbc8">
   <rect x="47.72" y="10.8" width="402.28" height="292.84"/>
  </clipPath>
 </defs>
</svg>
