<?xml version="1.0" encoding="utf-8" standalone="no"?>
<!DOCTYPE svg PUBLIC "-//W3C//DTD SVG 1.1//EN"
  "http://www.w3.org/Graphics/SVG/1.1/DTD/svg11.dtd">
<svg xmlns:xlink="http://www.w3.org/1999/xlink" width="460.8pt" height="345.6pt" viewBox="0 0 460.8 345.6" xmlns="http://www.w3.org/2000/svg" version="1.1">
 <metadata>
  <rdf:RDF xmlns:dc="http://purl.org/dc/elements/1.1/" xmlns:cc="http://creativecommons.org/ns#" xmlns:rdf="http://www.w3.org/1999/02/22-rdf-syntax-ns#">
   <cc:Work>
    <dc:type rdf:resource="http://purl.org/dc/dcmitype/StillImage"/>
    <dc:date>2024-02-08T10:04:00.766665</dc:date>
    <dc:format>image/svg+xml</dc:format>
    <dc:creator>
     <cc:Agent>
      <dc:title>Matplotlib v3.7.1, https://matplotlib.org/</dc:title>
     </cc:Agent>
    </dc:creator>
   </cc:Work>
  </rdf:RDF>
 </metadata>
 <defs>
  <style type="text/css">*{stroke-linejoin: round; stroke-linecap: butt}</style>
 </defs>
 <g id="figure_1">
  <g id="patch_1">
   <path d="M 0 345.6 
L 460.8 345.6 
L 460.8 0 
L 0 0 
z
" style="fill: #ffffff"/>
  </g>
  <g id="axes_1">
   <g id="patch_2">
    <path d="M 57.418125 276.923437 
L 449.369422 276.923437 
L 449.369422 10.8 
L 57.418125 10.8 
z
" style="fill: #ffffff"/>
   </g>
   <g id="matplotlib.axis_1">
    <g id="xtick_1">
     <g id="line2d_1">
      <path d="M 75.234093 276.923437 
L 75.234093 10.8 
" clip-path="url(#p669c7a9745)" style="fill: none; stroke: #b0b0b0; stroke-width: 0.8; stroke-linecap: square"/>
     </g>
     <g id="line2d_2">
      <defs>
       <path id="mda743c98f0" d="M 0 0 
L 0 3.5 
" style="stroke: #000000; stroke-width: 0.8"/>
      </defs>
      <g>
       <use xlink:href="#mda743c98f0" x="75.234093" y="276.923437" style="stroke: #000000; stroke-width: 0.8"/>
      </g>
     </g>
     <g id="text_1">
      <!-- 1+0 -->
      <g transform="translate(77.993468 305.028125) rotate(-90) scale(0.1 -0.1)">
       <defs>
        <path id="DejaVuSans-31" d="M 794 531 
L 1825 531 
L 1825 4091 
L 703 3866 
L 703 4441 
L 1819 4666 
L 2450 4666 
L 2450 531 
L 3481 531 
L 3481 0 
L 794 0 
L 794 531 
z
" transform="scale(0.015625)"/>
        <path id="DejaVuSans-2b" d="M 2944 4013 
L 2944 2272 
L 4684 2272 
L 4684 1741 
L 2944 1741 
L 2944 0 
L 2419 0 
L 2419 1741 
L 678 1741 
L 678 2272 
L 2419 2272 
L 2419 4013 
L 2944 4013 
z
" transform="scale(0.015625)"/>
        <path id="DejaVuSans-30" d="M 2034 4250 
Q 1547 4250 1301 3770 
Q 1056 3291 1056 2328 
Q 1056 1369 1301 889 
Q 1547 409 2034 409 
Q 2525 409 2770 889 
Q 3016 1369 3016 2328 
Q 3016 3291 2770 3770 
Q 2525 4250 2034 4250 
z
M 2034 4750 
Q 2819 4750 3233 4129 
Q 3647 3509 3647 2328 
Q 3647 1150 3233 529 
Q 2819 -91 2034 -91 
Q 1250 -91 836 529 
Q 422 1150 422 2328 
Q 422 3509 836 4129 
Q 1250 4750 2034 4750 
z
" transform="scale(0.015625)"/>
       </defs>
       <use xlink:href="#DejaVuSans-31"/>
       <use xlink:href="#DejaVuSans-2b" x="63.623047"/>
       <use xlink:href="#DejaVuSans-30" x="147.412109"/>
      </g>
     </g>
    </g>
    <g id="xtick_2">
     <g id="line2d_3">
      <path d="M 128.022147 276.923437 
L 128.022147 10.8 
" clip-path="url(#p669c7a9745)" style="fill: none; stroke: #b0b0b0; stroke-width: 0.8; stroke-linecap: square"/>
     </g>
     <g id="line2d_4">
      <g>
       <use xlink:href="#mda743c98f0" x="128.022147" y="276.923437" style="stroke: #000000; stroke-width: 0.8"/>
      </g>
     </g>
     <g id="text_2">
      <!-- 4+1/4 -->
      <g transform="translate(130.781522 314.759375) rotate(-90) scale(0.1 -0.1)">
       <defs>
        <path id="DejaVuSans-34" d="M 2419 4116 
L 825 1625 
L 2419 1625 
L 2419 4116 
z
M 2253 4666 
L 3047 4666 
L 3047 1625 
L 3713 1625 
L 3713 1100 
L 3047 1100 
L 3047 0 
L 2419 0 
L 2419 1100 
L 313 1100 
L 313 1709 
L 2253 4666 
z
" transform="scale(0.015625)"/>
        <path id="DejaVuSans-2f" d="M 1625 4666 
L 2156 4666 
L 531 -594 
L 0 -594 
L 1625 4666 
z
" transform="scale(0.015625)"/>
       </defs>
       <use xlink:href="#DejaVuSans-34"/>
       <use xlink:href="#DejaVuSans-2b" x="63.623047"/>
       <use xlink:href="#DejaVuSans-31" x="147.412109"/>
       <use xlink:href="#DejaVuSans-2f" x="211.035156"/>
       <use xlink:href="#DejaVuSans-34" x="244.726562"/>
      </g>
     </g>
    </g>
    <g id="xtick_3">
     <g id="line2d_5">
      <path d="M 180.8102 276.923437 
L 180.8102 10.8 
" clip-path="url(#p669c7a9745)" style="fill: none; stroke: #b0b0b0; stroke-width: 0.8; stroke-linecap: square"/>
     </g>
     <g id="line2d_6">
      <g>
       <use xlink:href="#mda743c98f0" x="180.8102" y="276.923437" style="stroke: #000000; stroke-width: 0.8"/>
      </g>
     </g>
     <g id="text_3">
      <!-- 6+5/4 -->
      <g transform="translate(183.569575 314.759375) rotate(-90) scale(0.1 -0.1)">
       <defs>
        <path id="DejaVuSans-36" d="M 2113 2584 
Q 1688 2584 1439 2293 
Q 1191 2003 1191 1497 
Q 1191 994 1439 701 
Q 1688 409 2113 409 
Q 2538 409 2786 701 
Q 3034 994 3034 1497 
Q 3034 2003 2786 2293 
Q 2538 2584 2113 2584 
z
M 3366 4563 
L 3366 3988 
Q 3128 4100 2886 4159 
Q 2644 4219 2406 4219 
Q 1781 4219 1451 3797 
Q 1122 3375 1075 2522 
Q 1259 2794 1537 2939 
Q 1816 3084 2150 3084 
Q 2853 3084 3261 2657 
Q 3669 2231 3669 1497 
Q 3669 778 3244 343 
Q 2819 -91 2113 -91 
Q 1303 -91 875 529 
Q 447 1150 447 2328 
Q 447 3434 972 4092 
Q 1497 4750 2381 4750 
Q 2619 4750 2861 4703 
Q 3103 4656 3366 4563 
z
" transform="scale(0.015625)"/>
        <path id="DejaVuSans-35" d="M 691 4666 
L 3169 4666 
L 3169 4134 
L 1269 4134 
L 1269 2991 
Q 1406 3038 1543 3061 
Q 1681 3084 1819 3084 
Q 2600 3084 3056 2656 
Q 3513 2228 3513 1497 
Q 3513 744 3044 326 
Q 2575 -91 1722 -91 
Q 1428 -91 1123 -41 
Q 819 9 494 109 
L 494 744 
Q 775 591 1075 516 
Q 1375 441 1709 441 
Q 2250 441 2565 725 
Q 2881 1009 2881 1497 
Q 2881 1984 2565 2268 
Q 2250 2553 1709 2553 
Q 1456 2553 1204 2497 
Q 953 2441 691 2322 
L 691 4666 
z
" transform="scale(0.015625)"/>
       </defs>
       <use xlink:href="#DejaVuSans-36"/>
       <use xlink:href="#DejaVuSans-2b" x="63.623047"/>
       <use xlink:href="#DejaVuSans-35" x="147.412109"/>
       <use xlink:href="#DejaVuSans-2f" x="211.035156"/>
       <use xlink:href="#DejaVuSans-34" x="244.726562"/>
      </g>
     </g>
    </g>
    <g id="xtick_4">
     <g id="line2d_7">
      <path d="M 233.598254 276.923437 
L 233.598254 10.8 
" clip-path="url(#p669c7a9745)" style="fill: none; stroke: #b0b0b0; stroke-width: 0.8; stroke-linecap: square"/>
     </g>
     <g id="line2d_8">
      <g>
       <use xlink:href="#mda743c98f0" x="233.598254" y="276.923437" style="stroke: #000000; stroke-width: 0.8"/>
      </g>
     </g>
     <g id="text_4">
      <!-- 9+1/4 -->
      <g transform="translate(236.357629 314.759375) rotate(-90) scale(0.1 -0.1)">
       <defs>
        <path id="DejaVuSans-39" d="M 703 97 
L 703 672 
Q 941 559 1184 500 
Q 1428 441 1663 441 
Q 2288 441 2617 861 
Q 2947 1281 2994 2138 
Q 2813 1869 2534 1725 
Q 2256 1581 1919 1581 
Q 1219 1581 811 2004 
Q 403 2428 403 3163 
Q 403 3881 828 4315 
Q 1253 4750 1959 4750 
Q 2769 4750 3195 4129 
Q 3622 3509 3622 2328 
Q 3622 1225 3098 567 
Q 2575 -91 1691 -91 
Q 1453 -91 1209 -44 
Q 966 3 703 97 
z
M 1959 2075 
Q 2384 2075 2632 2365 
Q 2881 2656 2881 3163 
Q 2881 3666 2632 3958 
Q 2384 4250 1959 4250 
Q 1534 4250 1286 3958 
Q 1038 3666 1038 3163 
Q 1038 2656 1286 2365 
Q 1534 2075 1959 2075 
z
" transform="scale(0.015625)"/>
       </defs>
       <use xlink:href="#DejaVuSans-39"/>
       <use xlink:href="#DejaVuSans-2b" x="63.623047"/>
       <use xlink:href="#DejaVuSans-31" x="147.412109"/>
       <use xlink:href="#DejaVuSans-2f" x="211.035156"/>
       <use xlink:href="#DejaVuSans-34" x="244.726562"/>
      </g>
     </g>
    </g>
    <g id="xtick_5">
     <g id="line2d_9">
      <path d="M 286.386307 276.923437 
L 286.386307 10.8 
" clip-path="url(#p669c7a9745)" style="fill: none; stroke: #b0b0b0; stroke-width: 0.8; stroke-linecap: square"/>
     </g>
     <g id="line2d_10">
      <g>
       <use xlink:href="#mda743c98f0" x="286.386307" y="276.923437" style="stroke: #000000; stroke-width: 0.8"/>
      </g>
     </g>
     <g id="text_5">
      <!-- 11+5/4 -->
      <g transform="translate(289.145682 321.121875) rotate(-90) scale(0.1 -0.1)">
       <use xlink:href="#DejaVuSans-31"/>
       <use xlink:href="#DejaVuSans-31" x="63.623047"/>
       <use xlink:href="#DejaVuSans-2b" x="127.246094"/>
       <use xlink:href="#DejaVuSans-35" x="211.035156"/>
       <use xlink:href="#DejaVuSans-2f" x="274.658203"/>
       <use xlink:href="#DejaVuSans-34" x="308.349609"/>
      </g>
     </g>
    </g>
    <g id="xtick_6">
     <g id="line2d_11">
      <path d="M 339.174361 276.923437 
L 339.174361 10.8 
" clip-path="url(#p669c7a9745)" style="fill: none; stroke: #b0b0b0; stroke-width: 0.8; stroke-linecap: square"/>
     </g>
     <g id="line2d_12">
      <g>
       <use xlink:href="#mda743c98f0" x="339.174361" y="276.923437" style="stroke: #000000; stroke-width: 0.8"/>
      </g>
     </g>
     <g id="text_6">
      <!-- 14+1/4 -->
      <g transform="translate(341.933736 321.121875) rotate(-90) scale(0.1 -0.1)">
       <use xlink:href="#DejaVuSans-31"/>
       <use xlink:href="#DejaVuSans-34" x="63.623047"/>
       <use xlink:href="#DejaVuSans-2b" x="127.246094"/>
       <use xlink:href="#DejaVuSans-31" x="211.035156"/>
       <use xlink:href="#DejaVuSans-2f" x="274.658203"/>
       <use xlink:href="#DejaVuSans-34" x="308.349609"/>
      </g>
     </g>
    </g>
    <g id="xtick_7">
     <g id="line2d_13">
      <path d="M 391.962414 276.923437 
L 391.962414 10.8 
" clip-path="url(#p669c7a9745)" style="fill: none; stroke: #b0b0b0; stroke-width: 0.8; stroke-linecap: square"/>
     </g>
     <g id="line2d_14">
      <g>
       <use xlink:href="#mda743c98f0" x="391.962414" y="276.923437" style="stroke: #000000; stroke-width: 0.8"/>
      </g>
     </g>
     <g id="text_7">
      <!-- 16+5/4 -->
      <g transform="translate(394.721789 321.121875) rotate(-90) scale(0.1 -0.1)">
       <use xlink:href="#DejaVuSans-31"/>
       <use xlink:href="#DejaVuSans-36" x="63.623047"/>
       <use xlink:href="#DejaVuSans-2b" x="127.246094"/>
       <use xlink:href="#DejaVuSans-35" x="211.035156"/>
       <use xlink:href="#DejaVuSans-2f" x="274.658203"/>
       <use xlink:href="#DejaVuSans-34" x="308.349609"/>
      </g>
     </g>
    </g>
    <g id="xtick_8">
     <g id="line2d_15">
      <path d="M 444.750468 276.923437 
L 444.750468 10.8 
" clip-path="url(#p669c7a9745)" style="fill: none; stroke: #b0b0b0; stroke-width: 0.8; stroke-linecap: square"/>
     </g>
     <g id="line2d_16">
      <g>
       <use xlink:href="#mda743c98f0" x="444.750468" y="276.923437" style="stroke: #000000; stroke-width: 0.8"/>
      </g>
     </g>
     <g id="text_8">
      <!-- 18+9/4 -->
      <g transform="translate(447.509843 321.121875) rotate(-90) scale(0.1 -0.1)">
       <defs>
        <path id="DejaVuSans-38" d="M 2034 2216 
Q 1584 2216 1326 1975 
Q 1069 1734 1069 1313 
Q 1069 891 1326 650 
Q 1584 409 2034 409 
Q 2484 409 2743 651 
Q 3003 894 3003 1313 
Q 3003 1734 2745 1975 
Q 2488 2216 2034 2216 
z
M 1403 2484 
Q 997 2584 770 2862 
Q 544 3141 544 3541 
Q 544 4100 942 4425 
Q 1341 4750 2034 4750 
Q 2731 4750 3128 4425 
Q 3525 4100 3525 3541 
Q 3525 3141 3298 2862 
Q 3072 2584 2669 2484 
Q 3125 2378 3379 2068 
Q 3634 1759 3634 1313 
Q 3634 634 3220 271 
Q 2806 -91 2034 -91 
Q 1263 -91 848 271 
Q 434 634 434 1313 
Q 434 1759 690 2068 
Q 947 2378 1403 2484 
z
M 1172 3481 
Q 1172 3119 1398 2916 
Q 1625 2713 2034 2713 
Q 2441 2713 2670 2916 
Q 2900 3119 2900 3481 
Q 2900 3844 2670 4047 
Q 2441 4250 2034 4250 
Q 1625 4250 1398 4047 
Q 1172 3844 1172 3481 
z
" transform="scale(0.015625)"/>
       </defs>
       <use xlink:href="#DejaVuSans-31"/>
       <use xlink:href="#DejaVuSans-38" x="63.623047"/>
       <use xlink:href="#DejaVuSans-2b" x="127.246094"/>
       <use xlink:href="#DejaVuSans-39" x="211.035156"/>
       <use xlink:href="#DejaVuSans-2f" x="274.658203"/>
       <use xlink:href="#DejaVuSans-34" x="308.349609"/>
      </g>
     </g>
    </g>
    <g id="text_9">
     <!-- Positions (measure number + offset) -->
     <g transform="translate(161.338305 332.720312) scale(0.1 -0.1)">
      <defs>
       <path id="DejaVuSans-50" d="M 1259 4147 
L 1259 2394 
L 2053 2394 
Q 2494 2394 2734 2622 
Q 2975 2850 2975 3272 
Q 2975 3691 2734 3919 
Q 2494 4147 2053 4147 
L 1259 4147 
z
M 628 4666 
L 2053 4666 
Q 2838 4666 3239 4311 
Q 3641 3956 3641 3272 
Q 3641 2581 3239 2228 
Q 2838 1875 2053 1875 
L 1259 1875 
L 1259 0 
L 628 0 
L 628 4666 
z
" transform="scale(0.015625)"/>
       <path id="DejaVuSans-6f" d="M 1959 3097 
Q 1497 3097 1228 2736 
Q 959 2375 959 1747 
Q 959 1119 1226 758 
Q 1494 397 1959 397 
Q 2419 397 2687 759 
Q 2956 1122 2956 1747 
Q 2956 2369 2687 2733 
Q 2419 3097 1959 3097 
z
M 1959 3584 
Q 2709 3584 3137 3096 
Q 3566 2609 3566 1747 
Q 3566 888 3137 398 
Q 2709 -91 1959 -91 
Q 1206 -91 779 398 
Q 353 888 353 1747 
Q 353 2609 779 3096 
Q 1206 3584 1959 3584 
z
" transform="scale(0.015625)"/>
       <path id="DejaVuSans-73" d="M 2834 3397 
L 2834 2853 
Q 2591 2978 2328 3040 
Q 2066 3103 1784 3103 
Q 1356 3103 1142 2972 
Q 928 2841 928 2578 
Q 928 2378 1081 2264 
Q 1234 2150 1697 2047 
L 1894 2003 
Q 2506 1872 2764 1633 
Q 3022 1394 3022 966 
Q 3022 478 2636 193 
Q 2250 -91 1575 -91 
Q 1294 -91 989 -36 
Q 684 19 347 128 
L 347 722 
Q 666 556 975 473 
Q 1284 391 1588 391 
Q 1994 391 2212 530 
Q 2431 669 2431 922 
Q 2431 1156 2273 1281 
Q 2116 1406 1581 1522 
L 1381 1569 
Q 847 1681 609 1914 
Q 372 2147 372 2553 
Q 372 3047 722 3315 
Q 1072 3584 1716 3584 
Q 2034 3584 2315 3537 
Q 2597 3491 2834 3397 
z
" transform="scale(0.015625)"/>
       <path id="DejaVuSans-69" d="M 603 3500 
L 1178 3500 
L 1178 0 
L 603 0 
L 603 3500 
z
M 603 4863 
L 1178 4863 
L 1178 4134 
L 603 4134 
L 603 4863 
z
" transform="scale(0.015625)"/>
       <path id="DejaVuSans-74" d="M 1172 4494 
L 1172 3500 
L 2356 3500 
L 2356 3053 
L 1172 3053 
L 1172 1153 
Q 1172 725 1289 603 
Q 1406 481 1766 481 
L 2356 481 
L 2356 0 
L 1766 0 
Q 1100 0 847 248 
Q 594 497 594 1153 
L 594 3053 
L 172 3053 
L 172 3500 
L 594 3500 
L 594 4494 
L 1172 4494 
z
" transform="scale(0.015625)"/>
       <path id="DejaVuSans-6e" d="M 3513 2113 
L 3513 0 
L 2938 0 
L 2938 2094 
Q 2938 2591 2744 2837 
Q 2550 3084 2163 3084 
Q 1697 3084 1428 2787 
Q 1159 2491 1159 1978 
L 1159 0 
L 581 0 
L 581 3500 
L 1159 3500 
L 1159 2956 
Q 1366 3272 1645 3428 
Q 1925 3584 2291 3584 
Q 2894 3584 3203 3211 
Q 3513 2838 3513 2113 
z
" transform="scale(0.015625)"/>
       <path id="DejaVuSans-20" transform="scale(0.015625)"/>
       <path id="DejaVuSans-28" d="M 1984 4856 
Q 1566 4138 1362 3434 
Q 1159 2731 1159 2009 
Q 1159 1288 1364 580 
Q 1569 -128 1984 -844 
L 1484 -844 
Q 1016 -109 783 600 
Q 550 1309 550 2009 
Q 550 2706 781 3412 
Q 1013 4119 1484 4856 
L 1984 4856 
z
" transform="scale(0.015625)"/>
       <path id="DejaVuSans-6d" d="M 3328 2828 
Q 3544 3216 3844 3400 
Q 4144 3584 4550 3584 
Q 5097 3584 5394 3201 
Q 5691 2819 5691 2113 
L 5691 0 
L 5113 0 
L 5113 2094 
Q 5113 2597 4934 2840 
Q 4756 3084 4391 3084 
Q 3944 3084 3684 2787 
Q 3425 2491 3425 1978 
L 3425 0 
L 2847 0 
L 2847 2094 
Q 2847 2600 2669 2842 
Q 2491 3084 2119 3084 
Q 1678 3084 1418 2786 
Q 1159 2488 1159 1978 
L 1159 0 
L 581 0 
L 581 3500 
L 1159 3500 
L 1159 2956 
Q 1356 3278 1631 3431 
Q 1906 3584 2284 3584 
Q 2666 3584 2933 3390 
Q 3200 3197 3328 2828 
z
" transform="scale(0.015625)"/>
       <path id="DejaVuSans-65" d="M 3597 1894 
L 3597 1613 
L 953 1613 
Q 991 1019 1311 708 
Q 1631 397 2203 397 
Q 2534 397 2845 478 
Q 3156 559 3463 722 
L 3463 178 
Q 3153 47 2828 -22 
Q 2503 -91 2169 -91 
Q 1331 -91 842 396 
Q 353 884 353 1716 
Q 353 2575 817 3079 
Q 1281 3584 2069 3584 
Q 2775 3584 3186 3129 
Q 3597 2675 3597 1894 
z
M 3022 2063 
Q 3016 2534 2758 2815 
Q 2500 3097 2075 3097 
Q 1594 3097 1305 2825 
Q 1016 2553 972 2059 
L 3022 2063 
z
" transform="scale(0.015625)"/>
       <path id="DejaVuSans-61" d="M 2194 1759 
Q 1497 1759 1228 1600 
Q 959 1441 959 1056 
Q 959 750 1161 570 
Q 1363 391 1709 391 
Q 2188 391 2477 730 
Q 2766 1069 2766 1631 
L 2766 1759 
L 2194 1759 
z
M 3341 1997 
L 3341 0 
L 2766 0 
L 2766 531 
Q 2569 213 2275 61 
Q 1981 -91 1556 -91 
Q 1019 -91 701 211 
Q 384 513 384 1019 
Q 384 1609 779 1909 
Q 1175 2209 1959 2209 
L 2766 2209 
L 2766 2266 
Q 2766 2663 2505 2880 
Q 2244 3097 1772 3097 
Q 1472 3097 1187 3025 
Q 903 2953 641 2809 
L 641 3341 
Q 956 3463 1253 3523 
Q 1550 3584 1831 3584 
Q 2591 3584 2966 3190 
Q 3341 2797 3341 1997 
z
" transform="scale(0.015625)"/>
       <path id="DejaVuSans-75" d="M 544 1381 
L 544 3500 
L 1119 3500 
L 1119 1403 
Q 1119 906 1312 657 
Q 1506 409 1894 409 
Q 2359 409 2629 706 
Q 2900 1003 2900 1516 
L 2900 3500 
L 3475 3500 
L 3475 0 
L 2900 0 
L 2900 538 
Q 2691 219 2414 64 
Q 2138 -91 1772 -91 
Q 1169 -91 856 284 
Q 544 659 544 1381 
z
M 1991 3584 
L 1991 3584 
z
" transform="scale(0.015625)"/>
       <path id="DejaVuSans-72" d="M 2631 2963 
Q 2534 3019 2420 3045 
Q 2306 3072 2169 3072 
Q 1681 3072 1420 2755 
Q 1159 2438 1159 1844 
L 1159 0 
L 581 0 
L 581 3500 
L 1159 3500 
L 1159 2956 
Q 1341 3275 1631 3429 
Q 1922 3584 2338 3584 
Q 2397 3584 2469 3576 
Q 2541 3569 2628 3553 
L 2631 2963 
z
" transform="scale(0.015625)"/>
       <path id="DejaVuSans-62" d="M 3116 1747 
Q 3116 2381 2855 2742 
Q 2594 3103 2138 3103 
Q 1681 3103 1420 2742 
Q 1159 2381 1159 1747 
Q 1159 1113 1420 752 
Q 1681 391 2138 391 
Q 2594 391 2855 752 
Q 3116 1113 3116 1747 
z
M 1159 2969 
Q 1341 3281 1617 3432 
Q 1894 3584 2278 3584 
Q 2916 3584 3314 3078 
Q 3713 2572 3713 1747 
Q 3713 922 3314 415 
Q 2916 -91 2278 -91 
Q 1894 -91 1617 61 
Q 1341 213 1159 525 
L 1159 0 
L 581 0 
L 581 4863 
L 1159 4863 
L 1159 2969 
z
" transform="scale(0.015625)"/>
       <path id="DejaVuSans-66" d="M 2375 4863 
L 2375 4384 
L 1825 4384 
Q 1516 4384 1395 4259 
Q 1275 4134 1275 3809 
L 1275 3500 
L 2222 3500 
L 2222 3053 
L 1275 3053 
L 1275 0 
L 697 0 
L 697 3053 
L 147 3053 
L 147 3500 
L 697 3500 
L 697 3744 
Q 697 4328 969 4595 
Q 1241 4863 1831 4863 
L 2375 4863 
z
" transform="scale(0.015625)"/>
       <path id="DejaVuSans-29" d="M 513 4856 
L 1013 4856 
Q 1481 4119 1714 3412 
Q 1947 2706 1947 2009 
Q 1947 1309 1714 600 
Q 1481 -109 1013 -844 
L 513 -844 
Q 928 -128 1133 580 
Q 1338 1288 1338 2009 
Q 1338 2731 1133 3434 
Q 928 4138 513 4856 
z
" transform="scale(0.015625)"/>
      </defs>
      <use xlink:href="#DejaVuSans-50"/>
      <use xlink:href="#DejaVuSans-6f" x="56.677734"/>
      <use xlink:href="#DejaVuSans-73" x="117.859375"/>
      <use xlink:href="#DejaVuSans-69" x="169.958984"/>
      <use xlink:href="#DejaVuSans-74" x="197.742188"/>
      <use xlink:href="#DejaVuSans-69" x="236.951172"/>
      <use xlink:href="#DejaVuSans-6f" x="264.734375"/>
      <use xlink:href="#DejaVuSans-6e" x="325.916016"/>
      <use xlink:href="#DejaVuSans-73" x="389.294922"/>
      <use xlink:href="#DejaVuSans-20" x="441.394531"/>
      <use xlink:href="#DejaVuSans-28" x="473.181641"/>
      <use xlink:href="#DejaVuSans-6d" x="512.195312"/>
      <use xlink:href="#DejaVuSans-65" x="609.607422"/>
      <use xlink:href="#DejaVuSans-61" x="671.130859"/>
      <use xlink:href="#DejaVuSans-73" x="732.410156"/>
      <use xlink:href="#DejaVuSans-75" x="784.509766"/>
      <use xlink:href="#DejaVuSans-72" x="847.888672"/>
      <use xlink:href="#DejaVuSans-65" x="886.751953"/>
      <use xlink:href="#DejaVuSans-20" x="948.275391"/>
      <use xlink:href="#DejaVuSans-6e" x="980.0625"/>
      <use xlink:href="#DejaVuSans-75" x="1043.441406"/>
      <use xlink:href="#DejaVuSans-6d" x="1106.820312"/>
      <use xlink:href="#DejaVuSans-62" x="1204.232422"/>
      <use xlink:href="#DejaVuSans-65" x="1267.708984"/>
      <use xlink:href="#DejaVuSans-72" x="1329.232422"/>
      <use xlink:href="#DejaVuSans-20" x="1370.345703"/>
      <use xlink:href="#DejaVuSans-2b" x="1402.132812"/>
      <use xlink:href="#DejaVuSans-20" x="1485.921875"/>
      <use xlink:href="#DejaVuSans-6f" x="1517.708984"/>
      <use xlink:href="#DejaVuSans-66" x="1578.890625"/>
      <use xlink:href="#DejaVuSans-66" x="1614.095703"/>
      <use xlink:href="#DejaVuSans-73" x="1649.300781"/>
      <use xlink:href="#DejaVuSans-65" x="1701.400391"/>
      <use xlink:href="#DejaVuSans-74" x="1762.923828"/>
      <use xlink:href="#DejaVuSans-29" x="1802.132812"/>
     </g>
    </g>
   </g>
   <g id="matplotlib.axis_2">
    <g id="ytick_1">
     <g id="line2d_17">
      <path d="M 57.418125 264.826918 
L 449.369422 264.826918 
" clip-path="url(#p669c7a9745)" style="fill: none; stroke: #b0b0b0; stroke-width: 0.8; stroke-linecap: square"/>
     </g>
     <g id="line2d_18">
      <defs>
       <path id="m1ce865abea" d="M 0 0 
L -3.5 0 
" style="stroke: #000000; stroke-width: 0.8"/>
      </defs>
      <g>
       <use xlink:href="#m1ce865abea" x="57.418125" y="264.826918" style="stroke: #000000; stroke-width: 0.8"/>
      </g>
     </g>
     <g id="text_10">
      <!-- −6 -->
      <g transform="translate(35.675938 268.626136) scale(0.1 -0.1)">
       <defs>
        <path id="DejaVuSans-2212" d="M 678 2272 
L 4684 2272 
L 4684 1741 
L 678 1741 
L 678 2272 
z
" transform="scale(0.015625)"/>
       </defs>
       <use xlink:href="#DejaVuSans-2212"/>
       <use xlink:href="#DejaVuSans-36" x="83.789062"/>
      </g>
     </g>
    </g>
    <g id="ytick_2">
     <g id="line2d_19">
      <path d="M 57.418125 216.440838 
L 449.369422 216.440838 
" clip-path="url(#p669c7a9745)" style="fill: none; stroke: #b0b0b0; stroke-width: 0.8; stroke-linecap: square"/>
     </g>
     <g id="line2d_20">
      <g>
       <use xlink:href="#m1ce865abea" x="57.418125" y="216.440838" style="stroke: #000000; stroke-width: 0.8"/>
      </g>
     </g>
     <g id="text_11">
      <!-- −4 -->
      <g transform="translate(35.675938 220.240057) scale(0.1 -0.1)">
       <use xlink:href="#DejaVuSans-2212"/>
       <use xlink:href="#DejaVuSans-34" x="83.789062"/>
      </g>
     </g>
    </g>
    <g id="ytick_3">
     <g id="line2d_21">
      <path d="M 57.418125 168.054759 
L 449.369422 168.054759 
" clip-path="url(#p669c7a9745)" style="fill: none; stroke: #b0b0b0; stroke-width: 0.8; stroke-linecap: square"/>
     </g>
     <g id="line2d_22">
      <g>
       <use xlink:href="#m1ce865abea" x="57.418125" y="168.054759" style="stroke: #000000; stroke-width: 0.8"/>
      </g>
     </g>
     <g id="text_12">
      <!-- −2 -->
      <g transform="translate(35.675938 171.853977) scale(0.1 -0.1)">
       <defs>
        <path id="DejaVuSans-32" d="M 1228 531 
L 3431 531 
L 3431 0 
L 469 0 
L 469 531 
Q 828 903 1448 1529 
Q 2069 2156 2228 2338 
Q 2531 2678 2651 2914 
Q 2772 3150 2772 3378 
Q 2772 3750 2511 3984 
Q 2250 4219 1831 4219 
Q 1534 4219 1204 4116 
Q 875 4013 500 3803 
L 500 4441 
Q 881 4594 1212 4672 
Q 1544 4750 1819 4750 
Q 2544 4750 2975 4387 
Q 3406 4025 3406 3419 
Q 3406 3131 3298 2873 
Q 3191 2616 2906 2266 
Q 2828 2175 2409 1742 
Q 1991 1309 1228 531 
z
" transform="scale(0.015625)"/>
       </defs>
       <use xlink:href="#DejaVuSans-2212"/>
       <use xlink:href="#DejaVuSans-32" x="83.789062"/>
      </g>
     </g>
    </g>
    <g id="ytick_4">
     <g id="line2d_23">
      <path d="M 57.418125 119.668679 
L 449.369422 119.668679 
" clip-path="url(#p669c7a9745)" style="fill: none; stroke: #b0b0b0; stroke-width: 0.8; stroke-linecap: square"/>
     </g>
     <g id="line2d_24">
      <g>
       <use xlink:href="#m1ce865abea" x="57.418125" y="119.668679" style="stroke: #000000; stroke-width: 0.8"/>
      </g>
     </g>
     <g id="text_13">
      <!-- 0 -->
      <g transform="translate(44.055625 123.467898) scale(0.1 -0.1)">
       <use xlink:href="#DejaVuSans-30"/>
      </g>
     </g>
    </g>
    <g id="ytick_5">
     <g id="line2d_25">
      <path d="M 57.418125 71.282599 
L 449.369422 71.282599 
" clip-path="url(#p669c7a9745)" style="fill: none; stroke: #b0b0b0; stroke-width: 0.8; stroke-linecap: square"/>
     </g>
     <g id="line2d_26">
      <g>
       <use xlink:href="#m1ce865abea" x="57.418125" y="71.282599" style="stroke: #000000; stroke-width: 0.8"/>
      </g>
     </g>
     <g id="text_14">
      <!-- 2 -->
      <g transform="translate(44.055625 75.081818) scale(0.1 -0.1)">
       <use xlink:href="#DejaVuSans-32"/>
      </g>
     </g>
    </g>
    <g id="ytick_6">
     <g id="line2d_27">
      <path d="M 57.418125 22.89652 
L 449.369422 22.89652 
" clip-path="url(#p669c7a9745)" style="fill: none; stroke: #b0b0b0; stroke-width: 0.8; stroke-linecap: square"/>
     </g>
     <g id="line2d_28">
      <g>
       <use xlink:href="#m1ce865abea" x="57.418125" y="22.89652" style="stroke: #000000; stroke-width: 0.8"/>
      </g>
     </g>
     <g id="text_15">
      <!-- 4 -->
      <g transform="translate(44.055625 26.695739) scale(0.1 -0.1)">
       <use xlink:href="#DejaVuSans-34"/>
      </g>
     </g>
    </g>
    <g id="text_16">
     <!-- Values -->
     <g transform="translate(18.398438 160.197656) rotate(-90) scale(0.1 -0.1)">
      <defs>
       <path id="DejaVuSans-56" d="M 1831 0 
L 50 4666 
L 709 4666 
L 2188 738 
L 3669 4666 
L 4325 4666 
L 2547 0 
L 1831 0 
z
" transform="scale(0.015625)"/>
       <path id="DejaVuSans-6c" d="M 603 4863 
L 1178 4863 
L 1178 0 
L 603 0 
L 603 4863 
z
" transform="scale(0.015625)"/>
      </defs>
      <use xlink:href="#DejaVuSans-56"/>
      <use xlink:href="#DejaVuSans-61" x="60.658203"/>
      <use xlink:href="#DejaVuSans-6c" x="121.9375"/>
      <use xlink:href="#DejaVuSans-75" x="149.720703"/>
      <use xlink:href="#DejaVuSans-65" x="213.099609"/>
      <use xlink:href="#DejaVuSans-73" x="274.623047"/>
     </g>
     <!-- &lt;- density number / n. parts -&gt; -->
     <g transform="translate(29.59625 222.53125) rotate(-90) scale(0.1 -0.1)">
      <defs>
       <path id="DejaVuSans-3c" d="M 4684 3150 
L 1459 2003 
L 4684 863 
L 4684 294 
L 678 1747 
L 678 2266 
L 4684 3719 
L 4684 3150 
z
" transform="scale(0.015625)"/>
       <path id="DejaVuSans-2d" d="M 313 2009 
L 1997 2009 
L 1997 1497 
L 313 1497 
L 313 2009 
z
" transform="scale(0.015625)"/>
       <path id="DejaVuSans-64" d="M 2906 2969 
L 2906 4863 
L 3481 4863 
L 3481 0 
L 2906 0 
L 2906 525 
Q 2725 213 2448 61 
Q 2172 -91 1784 -91 
Q 1150 -91 751 415 
Q 353 922 353 1747 
Q 353 2572 751 3078 
Q 1150 3584 1784 3584 
Q 2172 3584 2448 3432 
Q 2725 3281 2906 2969 
z
M 947 1747 
Q 947 1113 1208 752 
Q 1469 391 1925 391 
Q 2381 391 2643 752 
Q 2906 1113 2906 1747 
Q 2906 2381 2643 2742 
Q 2381 3103 1925 3103 
Q 1469 3103 1208 2742 
Q 947 2381 947 1747 
z
" transform="scale(0.015625)"/>
       <path id="DejaVuSans-79" d="M 2059 -325 
Q 1816 -950 1584 -1140 
Q 1353 -1331 966 -1331 
L 506 -1331 
L 506 -850 
L 844 -850 
Q 1081 -850 1212 -737 
Q 1344 -625 1503 -206 
L 1606 56 
L 191 3500 
L 800 3500 
L 1894 763 
L 2988 3500 
L 3597 3500 
L 2059 -325 
z
" transform="scale(0.015625)"/>
       <path id="DejaVuSans-2e" d="M 684 794 
L 1344 794 
L 1344 0 
L 684 0 
L 684 794 
z
" transform="scale(0.015625)"/>
       <path id="DejaVuSans-70" d="M 1159 525 
L 1159 -1331 
L 581 -1331 
L 581 3500 
L 1159 3500 
L 1159 2969 
Q 1341 3281 1617 3432 
Q 1894 3584 2278 3584 
Q 2916 3584 3314 3078 
Q 3713 2572 3713 1747 
Q 3713 922 3314 415 
Q 2916 -91 2278 -91 
Q 1894 -91 1617 61 
Q 1341 213 1159 525 
z
M 3116 1747 
Q 3116 2381 2855 2742 
Q 2594 3103 2138 3103 
Q 1681 3103 1420 2742 
Q 1159 2381 1159 1747 
Q 1159 1113 1420 752 
Q 1681 391 2138 391 
Q 2594 391 2855 752 
Q 3116 1113 3116 1747 
z
" transform="scale(0.015625)"/>
       <path id="DejaVuSans-3e" d="M 678 3150 
L 678 3719 
L 4684 2266 
L 4684 1747 
L 678 294 
L 678 863 
L 3897 2003 
L 678 3150 
z
" transform="scale(0.015625)"/>
      </defs>
      <use xlink:href="#DejaVuSans-3c"/>
      <use xlink:href="#DejaVuSans-2d" x="83.789062"/>
      <use xlink:href="#DejaVuSans-20" x="119.873047"/>
      <use xlink:href="#DejaVuSans-64" x="151.660156"/>
      <use xlink:href="#DejaVuSans-65" x="215.136719"/>
      <use xlink:href="#DejaVuSans-6e" x="276.660156"/>
      <use xlink:href="#DejaVuSans-73" x="340.039062"/>
      <use xlink:href="#DejaVuSans-69" x="392.138672"/>
      <use xlink:href="#DejaVuSans-74" x="419.921875"/>
      <use xlink:href="#DejaVuSans-79" x="459.130859"/>
      <use xlink:href="#DejaVuSans-20" x="518.310547"/>
      <use xlink:href="#DejaVuSans-6e" x="550.097656"/>
      <use xlink:href="#DejaVuSans-75" x="613.476562"/>
      <use xlink:href="#DejaVuSans-6d" x="676.855469"/>
      <use xlink:href="#DejaVuSans-62" x="774.267578"/>
      <use xlink:href="#DejaVuSans-65" x="837.744141"/>
      <use xlink:href="#DejaVuSans-72" x="899.267578"/>
      <use xlink:href="#DejaVuSans-20" x="940.380859"/>
      <use xlink:href="#DejaVuSans-2f" x="972.167969"/>
      <use xlink:href="#DejaVuSans-20" x="1005.859375"/>
      <use xlink:href="#DejaVuSans-6e" x="1037.646484"/>
      <use xlink:href="#DejaVuSans-2e" x="1101.025391"/>
      <use xlink:href="#DejaVuSans-20" x="1132.8125"/>
      <use xlink:href="#DejaVuSans-70" x="1164.599609"/>
      <use xlink:href="#DejaVuSans-61" x="1228.076172"/>
      <use xlink:href="#DejaVuSans-72" x="1289.355469"/>
      <use xlink:href="#DejaVuSans-74" x="1330.46875"/>
      <use xlink:href="#DejaVuSans-73" x="1369.677734"/>
      <use xlink:href="#DejaVuSans-20" x="1421.777344"/>
      <use xlink:href="#DejaVuSans-2d" x="1453.564453"/>
      <use xlink:href="#DejaVuSans-3e" x="1489.648438"/>
     </g>
    </g>
   </g>
   <g id="line2d_29">
    <path d="M 75.234093 119.668679 
L 75.234093 71.282599 
L 77.873496 71.282599 
L 77.873496 95.475639 
L 93.709912 95.475639 
L 93.709912 95.475639 
L 104.267522 95.475639 
L 104.267522 119.668679 
L 120.103939 119.668679 
L 120.103939 95.475639 
L 122.743341 95.475639 
L 122.743341 47.08956 
L 125.382744 47.08956 
L 125.382744 71.282599 
L 133.300952 71.282599 
L 133.300952 47.08956 
L 135.940355 47.08956 
L 135.940355 71.282599 
L 141.21916 71.282599 
L 141.21916 47.08956 
L 146.497965 47.08956 
L 146.497965 71.282599 
L 151.776771 71.282599 
L 151.776771 71.282599 
L 154.416173 71.282599 
L 154.416173 71.282599 
L 157.055576 71.282599 
L 157.055576 71.282599 
L 162.334381 71.282599 
L 162.334381 95.475639 
L 178.170797 95.475639 
L 178.170797 95.475639 
L 188.728408 95.475639 
L 188.728408 119.668679 
L 204.564824 119.668679 
L 204.564824 95.475639 
L 207.204227 95.475639 
L 207.204227 71.282599 
L 209.84363 71.282599 
L 209.84363 71.282599 
L 217.761838 71.282599 
L 217.761838 47.08956 
L 220.40124 47.08956 
L 220.40124 71.282599 
L 228.319448 71.282599 
L 228.319448 47.08956 
L 230.958851 47.08956 
L 230.958851 71.282599 
L 236.237656 71.282599 
L 236.237656 71.282599 
L 238.877059 71.282599 
L 238.877059 71.282599 
L 241.516462 71.282599 
L 241.516462 71.282599 
L 246.795267 71.282599 
L 246.795267 22.89652 
L 252.074072 22.89652 
L 252.074072 47.08956 
L 262.631683 47.08956 
L 262.631683 22.89652 
L 273.189294 22.89652 
L 273.189294 47.08956 
L 278.468099 47.08956 
L 278.468099 71.282599 
L 289.02571 71.282599 
L 289.02571 71.282599 
L 294.304515 71.282599 
L 294.304515 95.475639 
L 299.58332 95.475639 
L 299.58332 71.282599 
L 304.862126 71.282599 
L 304.862126 95.475639 
L 310.140931 95.475639 
L 310.140931 71.282599 
L 315.419737 71.282599 
L 315.419737 95.475639 
L 320.698542 95.475639 
L 320.698542 71.282599 
L 323.337945 71.282599 
L 323.337945 95.475639 
L 325.977347 95.475639 
L 325.977347 95.475639 
L 331.256153 95.475639 
L 331.256153 71.282599 
L 347.092569 71.282599 
L 347.092569 47.08956 
L 357.650179 47.08956 
L 357.650179 71.282599 
L 368.20779 71.282599 
L 368.20779 119.668679 
L 373.486595 119.668679 
L 373.486595 95.475639 
L 376.125998 95.475639 
L 376.125998 71.282599 
L 378.765401 71.282599 
L 378.765401 71.282599 
L 386.683609 71.282599 
L 386.683609 47.08956 
L 389.323011 47.08956 
L 389.323011 71.282599 
L 397.24122 71.282599 
L 397.24122 47.08956 
L 399.880622 47.08956 
L 399.880622 71.282599 
L 415.717038 71.282599 
L 415.717038 71.282599 
L 418.356441 71.282599 
L 418.356441 71.282599 
L 420.995844 71.282599 
L 420.995844 71.282599 
L 431.553454 71.282599 
" clip-path="url(#p669c7a9745)" style="fill: none; stroke: #1f77b4; stroke-width: 1.5; stroke-linecap: square"/>
   </g>
   <g id="line2d_30">
    <path d="M 75.234093 119.668679 
L 75.234093 216.440838 
L 77.873496 216.440838 
L 77.873496 216.440838 
L 93.709912 216.440838 
L 93.709912 240.633878 
L 104.267522 240.633878 
L 104.267522 119.668679 
L 120.103939 119.668679 
L 120.103939 143.861719 
L 122.743341 143.861719 
L 122.743341 264.826918 
L 125.382744 264.826918 
L 125.382744 216.440838 
L 133.300952 216.440838 
L 133.300952 240.633878 
L 135.940355 240.633878 
L 135.940355 240.633878 
L 141.21916 240.633878 
L 141.21916 264.826918 
L 146.497965 264.826918 
L 146.497965 240.633878 
L 151.776771 240.633878 
L 151.776771 192.247798 
L 154.416173 192.247798 
L 154.416173 264.826918 
L 157.055576 264.826918 
L 157.055576 216.440838 
L 162.334381 216.440838 
L 162.334381 216.440838 
L 178.170797 216.440838 
L 178.170797 240.633878 
L 188.728408 240.633878 
L 188.728408 119.668679 
L 204.564824 119.668679 
L 204.564824 143.861719 
L 207.204227 143.861719 
L 207.204227 264.826918 
L 209.84363 264.826918 
L 209.84363 216.440838 
L 217.761838 216.440838 
L 217.761838 240.633878 
L 220.40124 240.633878 
L 220.40124 240.633878 
L 228.319448 240.633878 
L 228.319448 264.826918 
L 230.958851 264.826918 
L 230.958851 240.633878 
L 236.237656 240.633878 
L 236.237656 192.247798 
L 238.877059 192.247798 
L 238.877059 264.826918 
L 241.516462 264.826918 
L 241.516462 240.633878 
L 246.795267 240.633878 
L 246.795267 240.633878 
L 252.074072 240.633878 
L 252.074072 240.633878 
L 262.631683 240.633878 
L 262.631683 264.826918 
L 273.189294 264.826918 
L 273.189294 264.826918 
L 278.468099 264.826918 
L 278.468099 264.826918 
L 289.02571 264.826918 
L 289.02571 216.440838 
L 294.304515 216.440838 
L 294.304515 143.861719 
L 299.58332 143.861719 
L 299.58332 240.633878 
L 304.862126 240.633878 
L 304.862126 143.861719 
L 310.140931 143.861719 
L 310.140931 216.440838 
L 315.419737 216.440838 
L 315.419737 143.861719 
L 320.698542 143.861719 
L 320.698542 240.633878 
L 323.337945 240.633878 
L 323.337945 192.247798 
L 325.977347 192.247798 
L 325.977347 264.826918 
L 331.256153 264.826918 
L 331.256153 264.826918 
L 347.092569 264.826918 
L 347.092569 264.826918 
L 357.650179 264.826918 
L 357.650179 264.826918 
L 368.20779 264.826918 
L 368.20779 119.668679 
L 373.486595 119.668679 
L 373.486595 143.861719 
L 376.125998 143.861719 
L 376.125998 264.826918 
L 378.765401 264.826918 
L 378.765401 216.440838 
L 386.683609 216.440838 
L 386.683609 240.633878 
L 389.323011 240.633878 
L 389.323011 240.633878 
L 397.24122 240.633878 
L 397.24122 264.826918 
L 399.880622 264.826918 
L 399.880622 240.633878 
L 415.717038 240.633878 
L 415.717038 192.247798 
L 418.356441 192.247798 
L 418.356441 216.440838 
L 420.995844 216.440838 
L 420.995844 216.440838 
L 431.553454 216.440838 
" clip-path="url(#p669c7a9745)" style="fill: none; stroke: #ff7f0e; stroke-width: 1.5; stroke-linecap: square"/>
   </g>
   <g id="patch_3">
    <path d="M 57.418125 276.923437 
L 57.418125 10.8 
" style="fill: none; stroke: #000000; stroke-width: 0.8; stroke-linejoin: miter; stroke-linecap: square"/>
   </g>
   <g id="patch_4">
    <path d="M 449.369422 276.923437 
L 449.369422 10.8 
" style="fill: none; stroke: #000000; stroke-width: 0.8; stroke-linejoin: miter; stroke-linecap: square"/>
   </g>
   <g id="patch_5">
    <path d="M 57.418125 276.923437 
L 449.369422 276.923437 
" style="fill: none; stroke: #000000; stroke-width: 0.8; stroke-linejoin: miter; stroke-linecap: square"/>
   </g>
   <g id="patch_6">
    <path d="M 57.418125 10.8 
L 449.369422 10.8 
" style="fill: none; stroke: #000000; stroke-width: 0.8; stroke-linejoin: miter; stroke-linecap: square"/>
   </g>
   <g id="legend_1">
    <g id="patch_7">
     <path d="M 64.418125 160.039844 
L 231.360313 160.039844 
Q 233.360313 160.039844 233.360313 158.039844 
L 233.360313 129.683594 
Q 233.360313 127.683594 231.360313 127.683594 
L 64.418125 127.683594 
Q 62.418125 127.683594 62.418125 129.683594 
L 62.418125 158.039844 
Q 62.418125 160.039844 64.418125 160.039844 
z
" style="fill: #ffffff; opacity: 0.8; stroke: #cccccc; stroke-linejoin: miter"/>
    </g>
    <g id="line2d_31">
     <path d="M 66.418125 135.782031 
L 66.418125 135.782031 
L 76.418125 135.782031 
L 76.418125 135.782031 
L 86.418125 135.782031 
" style="fill: none; stroke: #1f77b4; stroke-width: 1.5; stroke-linecap: square"/>
    </g>
    <g id="text_17">
     <!-- Number of parts -->
     <g transform="translate(94.418125 139.282031) scale(0.1 -0.1)">
      <defs>
       <path id="DejaVuSans-4e" d="M 628 4666 
L 1478 4666 
L 3547 763 
L 3547 4666 
L 4159 4666 
L 4159 0 
L 3309 0 
L 1241 3903 
L 1241 0 
L 628 0 
L 628 4666 
z
" transform="scale(0.015625)"/>
      </defs>
      <use xlink:href="#DejaVuSans-4e"/>
      <use xlink:href="#DejaVuSans-75" x="74.804688"/>
      <use xlink:href="#DejaVuSans-6d" x="138.183594"/>
      <use xlink:href="#DejaVuSans-62" x="235.595703"/>
      <use xlink:href="#DejaVuSans-65" x="299.072266"/>
      <use xlink:href="#DejaVuSans-72" x="360.595703"/>
      <use xlink:href="#DejaVuSans-20" x="401.708984"/>
      <use xlink:href="#DejaVuSans-6f" x="433.496094"/>
      <use xlink:href="#DejaVuSans-66" x="494.677734"/>
      <use xlink:href="#DejaVuSans-20" x="529.882812"/>
      <use xlink:href="#DejaVuSans-70" x="561.669922"/>
      <use xlink:href="#DejaVuSans-61" x="625.146484"/>
      <use xlink:href="#DejaVuSans-72" x="686.425781"/>
      <use xlink:href="#DejaVuSans-74" x="727.539062"/>
      <use xlink:href="#DejaVuSans-73" x="766.748047"/>
     </g>
    </g>
    <g id="line2d_32">
     <path d="M 66.418125 150.460156 
L 66.418125 150.460156 
L 76.418125 150.460156 
L 76.418125 150.460156 
L 86.418125 150.460156 
" style="fill: none; stroke: #ff7f0e; stroke-width: 1.5; stroke-linecap: square"/>
    </g>
    <g id="text_18">
     <!-- Density number (negative) -->
     <g transform="translate(94.418125 153.960156) scale(0.1 -0.1)">
      <defs>
       <path id="DejaVuSans-44" d="M 1259 4147 
L 1259 519 
L 2022 519 
Q 2988 519 3436 956 
Q 3884 1394 3884 2338 
Q 3884 3275 3436 3711 
Q 2988 4147 2022 4147 
L 1259 4147 
z
M 628 4666 
L 1925 4666 
Q 3281 4666 3915 4102 
Q 4550 3538 4550 2338 
Q 4550 1131 3912 565 
Q 3275 0 1925 0 
L 628 0 
L 628 4666 
z
" transform="scale(0.015625)"/>
       <path id="DejaVuSans-67" d="M 2906 1791 
Q 2906 2416 2648 2759 
Q 2391 3103 1925 3103 
Q 1463 3103 1205 2759 
Q 947 2416 947 1791 
Q 947 1169 1205 825 
Q 1463 481 1925 481 
Q 2391 481 2648 825 
Q 2906 1169 2906 1791 
z
M 3481 434 
Q 3481 -459 3084 -895 
Q 2688 -1331 1869 -1331 
Q 1566 -1331 1297 -1286 
Q 1028 -1241 775 -1147 
L 775 -588 
Q 1028 -725 1275 -790 
Q 1522 -856 1778 -856 
Q 2344 -856 2625 -561 
Q 2906 -266 2906 331 
L 2906 616 
Q 2728 306 2450 153 
Q 2172 0 1784 0 
Q 1141 0 747 490 
Q 353 981 353 1791 
Q 353 2603 747 3093 
Q 1141 3584 1784 3584 
Q 2172 3584 2450 3431 
Q 2728 3278 2906 2969 
L 2906 3500 
L 3481 3500 
L 3481 434 
z
" transform="scale(0.015625)"/>
       <path id="DejaVuSans-76" d="M 191 3500 
L 800 3500 
L 1894 563 
L 2988 3500 
L 3597 3500 
L 2284 0 
L 1503 0 
L 191 3500 
z
" transform="scale(0.015625)"/>
      </defs>
      <use xlink:href="#DejaVuSans-44"/>
      <use xlink:href="#DejaVuSans-65" x="77.001953"/>
      <use xlink:href="#DejaVuSans-6e" x="138.525391"/>
      <use xlink:href="#DejaVuSans-73" x="201.904297"/>
      <use xlink:href="#DejaVuSans-69" x="254.003906"/>
      <use xlink:href="#DejaVuSans-74" x="281.787109"/>
      <use xlink:href="#DejaVuSans-79" x="320.996094"/>
      <use xlink:href="#DejaVuSans-20" x="380.175781"/>
      <use xlink:href="#DejaVuSans-6e" x="411.962891"/>
      <use xlink:href="#DejaVuSans-75" x="475.341797"/>
      <use xlink:href="#DejaVuSans-6d" x="538.720703"/>
      <use xlink:href="#DejaVuSans-62" x="636.132812"/>
      <use xlink:href="#DejaVuSans-65" x="699.609375"/>
      <use xlink:href="#DejaVuSans-72" x="761.132812"/>
      <use xlink:href="#DejaVuSans-20" x="802.246094"/>
      <use xlink:href="#DejaVuSans-28" x="834.033203"/>
      <use xlink:href="#DejaVuSans-6e" x="873.046875"/>
      <use xlink:href="#DejaVuSans-65" x="936.425781"/>
      <use xlink:href="#DejaVuSans-67" x="997.949219"/>
      <use xlink:href="#DejaVuSans-61" x="1061.425781"/>
      <use xlink:href="#DejaVuSans-74" x="1122.705078"/>
      <use xlink:href="#DejaVuSans-69" x="1161.914062"/>
      <use xlink:href="#DejaVuSans-76" x="1189.697266"/>
      <use xlink:href="#DejaVuSans-65" x="1248.876953"/>
      <use xlink:href="#DejaVuSans-29" x="1310.400391"/>
     </g>
    </g>
   </g>
  </g>
 </g>
 <defs>
  <clipPath id="p669c7a9745">
   <rect x="57.418125" y="10.8" width="391.951297" height="266.123437"/>
  </clipPath>
 </defs>
</svg>
