<?xml version="1.0" encoding="utf-8" standalone="no"?>
<!DOCTYPE svg PUBLIC "-//W3C//DTD SVG 1.1//EN"
  "http://www.w3.org/Graphics/SVG/1.1/DTD/svg11.dtd">
<svg xmlns:xlink="http://www.w3.org/1999/xlink" width="432pt" height="432pt" viewBox="0 0 432 432" xmlns="http://www.w3.org/2000/svg" version="1.1">
 <metadata>
  <rdf:RDF xmlns:dc="http://purl.org/dc/elements/1.1/" xmlns:cc="http://creativecommons.org/ns#" xmlns:rdf="http://www.w3.org/1999/02/22-rdf-syntax-ns#">
   <cc:Work>
    <dc:type rdf:resource="http://purl.org/dc/dcmitype/StillImage"/>
    <dc:date>2024-05-10T13:41:28.469940</dc:date>
    <dc:format>image/svg+xml</dc:format>
    <dc:creator>
     <cc:Agent>
      <dc:title>Matplotlib v3.7.1, https://matplotlib.org/</dc:title>
     </cc:Agent>
    </dc:creator>
   </cc:Work>
  </rdf:RDF>
 </metadata>
 <defs>
  <style type="text/css">*{stroke-linejoin: round; stroke-linecap: butt}</style>
 </defs>
 <g id="figure_1">
  <g id="patch_1">
   <path d="M 0 432 
L 432 432 
L 432 0 
L 0 0 
z
" style="fill: #ffffff"/>
  </g>
  <g id="axes_1">
   <g id="patch_2">
    <path d="M 327.488 226.049313 
C 327.488 206.151727 323.568609 186.44762 315.954133 168.064648 
C 308.339656 149.681675 297.178176 132.97734 283.108458 118.907622 
C 269.03874 104.837904 252.334405 93.676424 233.951433 86.061947 
C 215.56846 78.447471 195.864353 74.52808 175.966767 74.52808 
C 156.069181 74.52808 136.365074 78.447471 117.982101 86.061947 
C 99.599129 93.676424 82.894794 104.837904 68.825076 118.907622 
C 54.755358 132.97734 43.593878 149.681675 35.979401 168.064648 
C 28.364925 186.44762 24.445534 206.151727 24.445534 226.049313 
C 24.445534 245.946899 28.364925 265.651006 35.979401 284.033979 
C 43.593878 302.416951 54.755358 319.121287 68.825076 333.191005 
C 82.894794 347.260723 99.599129 358.422203 117.982101 366.036679 
C 136.365074 373.651156 156.069181 377.570546 175.966767 377.570546 
C 195.864353 377.570546 215.56846 373.651156 233.951433 366.036679 
C 252.334405 358.422203 269.03874 347.260723 283.108458 333.191005 
C 297.178176 319.121287 308.339656 302.416951 315.954133 284.033979 
C 323.568609 265.651006 327.488 245.946899 327.488 226.049313 
M 175.966767 226.049313 
C 175.966767 226.049313 175.966767 226.049313 175.966767 226.049313 
C 175.966767 226.049313 175.966767 226.049313 175.966767 226.049313 
C 175.966767 226.049313 175.966767 226.049313 175.966767 226.049313 
C 175.966767 226.049313 175.966767 226.049313 175.966767 226.049313 
C 175.966767 226.049313 175.966767 226.049313 175.966767 226.049313 
C 175.966767 226.049313 175.966767 226.049313 175.966767 226.049313 
C 175.966767 226.049313 175.966767 226.049313 175.966767 226.049313 
C 175.966767 226.049313 175.966767 226.049313 175.966767 226.049313 
C 175.966767 226.049313 175.966767 226.049313 175.966767 226.049313 
C 175.966767 226.049313 175.966767 226.049313 175.966767 226.049313 
C 175.966767 226.049313 175.966767 226.049313 175.966767 226.049313 
C 175.966767 226.049313 175.966767 226.049313 175.966767 226.049313 
C 175.966767 226.049313 175.966767 226.049313 175.966767 226.049313 
C 175.966767 226.049313 175.966767 226.049313 175.966767 226.049313 
C 175.966767 226.049313 175.966767 226.049313 175.966767 226.049313 
C 175.966767 226.049313 175.966767 226.049313 175.966767 226.049313 
z
" style="fill: #ffffff"/>
   </g>
   <g id="patch_3">
    <path d="M 175.966767 196.192913 
L 163.172551 210.80176 
L 136.763014 219.136634 
L 175.966767 226.049313 
L 128.313145 356.976563 
L 175.966767 226.049313 
L 227.67957 255.905714 
L 175.966767 226.049313 
L 175.966767 226.049313 
z
" clip-path="url(#p5aa6318bf0)" style="fill: #0000ff; opacity: 0.25; stroke: #0000ff; stroke-linejoin: miter"/>
   </g>
   <g id="patch_4">
    <path d="M 175.966767 226.049313 
L 129.587733 170.776933 
L 152.281166 221.872903 
L 175.966767 226.049313 
L 134.837153 339.051999 
L 175.966767 226.049313 
L 196.795535 238.074808 
L 199.652368 221.872903 
L 191.426445 207.625187 
z
" clip-path="url(#p5aa6318bf0)" style="fill: #ff0000; opacity: 0.25; stroke: #ff0000; stroke-linejoin: miter"/>
   </g>
   <g id="patch_5">
    <path d="M 175.966767 205.43418 
L 162.715614 210.257205 
L 155.664823 222.469533 
L 175.966767 226.049313 
L 126.61123 361.652537 
L 183.017558 245.421202 
L 211.673226 246.664447 
L 196.268711 222.469533 
L 175.966767 226.049313 
z
" clip-path="url(#p5aa6318bf0)" style="fill: #008000; opacity: 0.25; stroke: #008000; stroke-linejoin: miter"/>
   </g>
   <g id="matplotlib.axis_1">
    <g id="xtick_1">
     <g id="line2d_1">
      <path d="M 175.966767 226.049313 
L 175.966767 74.52808 
" clip-path="url(#p5aa6318bf0)" style="fill: none; stroke: #b0b0b0; stroke-width: 0.8; stroke-linecap: square"/>
     </g>
     <g id="text_1">
      <!-- R -->
      <g transform="translate(172.492548 63.287455) scale(0.1 -0.1)">
       <defs>
        <path id="DejaVuSans-52" d="M 2841 2188 
Q 3044 2119 3236 1894 
Q 3428 1669 3622 1275 
L 4263 0 
L 3584 0 
L 2988 1197 
Q 2756 1666 2539 1819 
Q 2322 1972 1947 1972 
L 1259 1972 
L 1259 0 
L 628 0 
L 628 4666 
L 2053 4666 
Q 2853 4666 3247 4331 
Q 3641 3997 3641 3322 
Q 3641 2881 3436 2590 
Q 3231 2300 2841 2188 
z
M 1259 4147 
L 1259 2491 
L 2053 2491 
Q 2509 2491 2742 2702 
Q 2975 2913 2975 3322 
Q 2975 3731 2742 3939 
Q 2509 4147 2053 4147 
L 1259 4147 
z
" transform="scale(0.015625)"/>
       </defs>
       <use xlink:href="#DejaVuSans-52"/>
      </g>
     </g>
    </g>
    <g id="xtick_2">
     <g id="line2d_2">
      <path d="M 175.966767 226.049313 
L 78.570796 109.977315 
" clip-path="url(#p5aa6318bf0)" style="fill: none; stroke: #b0b0b0; stroke-width: 0.8; stroke-linecap: square"/>
     </g>
     <g id="text_2">
      <!-- L -->
      <g transform="translate(66.785832 102.012068) scale(0.1 -0.1)">
       <defs>
        <path id="DejaVuSans-4c" d="M 628 4666 
L 1259 4666 
L 1259 531 
L 3531 531 
L 3531 0 
L 628 0 
L 628 4666 
z
" transform="scale(0.015625)"/>
       </defs>
       <use xlink:href="#DejaVuSans-4c"/>
      </g>
     </g>
    </g>
    <g id="xtick_3">
     <g id="line2d_3">
      <path d="M 175.966767 226.049313 
L 26.747482 199.737927 
" clip-path="url(#p5aa6318bf0)" style="fill: none; stroke: #b0b0b0; stroke-width: 0.8; stroke-linecap: square"/>
     </g>
     <g id="text_3">
      <!-- B -->
      <g transform="translate(9.529705 200.066228) scale(0.1 -0.1)">
       <defs>
        <path id="DejaVuSans-42" d="M 1259 2228 
L 1259 519 
L 2272 519 
Q 2781 519 3026 730 
Q 3272 941 3272 1375 
Q 3272 1813 3026 2020 
Q 2781 2228 2272 2228 
L 1259 2228 
z
M 1259 4147 
L 1259 2741 
L 2194 2741 
Q 2656 2741 2882 2914 
Q 3109 3088 3109 3444 
Q 3109 3797 2882 3972 
Q 2656 4147 2194 4147 
L 1259 4147 
z
M 628 4666 
L 2241 4666 
Q 2963 4666 3353 4366 
Q 3744 4066 3744 3513 
Q 3744 3084 3544 2831 
Q 3344 2578 2956 2516 
Q 3422 2416 3680 2098 
Q 3938 1781 3938 1306 
Q 3938 681 3513 340 
Q 3088 0 2303 0 
L 628 0 
L 628 4666 
z
" transform="scale(0.015625)"/>
       </defs>
       <use xlink:href="#DejaVuSans-42"/>
      </g>
     </g>
    </g>
    <g id="xtick_4">
     <g id="line2d_4">
      <path d="M 175.966767 226.049313 
L 44.74553 301.80993 
" clip-path="url(#p5aa6318bf0)" style="fill: none; stroke: #b0b0b0; stroke-width: 0.8; stroke-linecap: square"/>
     </g>
     <g id="text_4">
      <!-- Lx -->
      <g transform="translate(26.875862 311.569305) scale(0.1 -0.1)">
       <defs>
        <path id="DejaVuSans-78" d="M 3513 3500 
L 2247 1797 
L 3578 0 
L 2900 0 
L 1881 1375 
L 863 0 
L 184 0 
L 1544 1831 
L 300 3500 
L 978 3500 
L 1906 2253 
L 2834 3500 
L 3513 3500 
z
" transform="scale(0.015625)"/>
       </defs>
       <use xlink:href="#DejaVuSans-4c"/>
       <use xlink:href="#DejaVuSans-78" x="55.712891"/>
      </g>
     </g>
    </g>
    <g id="xtick_5">
     <g id="line2d_5">
      <path d="M 175.966767 226.049313 
L 124.143453 368.432698 
" clip-path="url(#p5aa6318bf0)" style="fill: none; stroke: #b0b0b0; stroke-width: 0.8; stroke-linecap: square"/>
     </g>
     <g id="text_5">
      <!-- LB -->
      <g transform="translate(113.138765 384.34777) scale(0.1 -0.1)">
       <use xlink:href="#DejaVuSans-4c"/>
       <use xlink:href="#DejaVuSans-42" x="55.712891"/>
      </g>
     </g>
    </g>
    <g id="xtick_6">
     <g id="line2d_6">
      <path d="M 175.966767 226.049313 
L 227.790081 368.432698 
" clip-path="url(#p5aa6318bf0)" style="fill: none; stroke: #b0b0b0; stroke-width: 0.8; stroke-linecap: square"/>
     </g>
     <g id="text_6">
      <!-- By -->
      <g transform="translate(226.188519 384.34777) scale(0.1 -0.1)">
       <defs>
        <path id="DejaVuSans-79" d="M 2059 -325 
Q 1816 -950 1584 -1140 
Q 1353 -1331 966 -1331 
L 506 -1331 
L 506 -850 
L 844 -850 
Q 1081 -850 1212 -737 
Q 1344 -625 1503 -206 
L 1606 56 
L 191 3500 
L 800 3500 
L 1894 763 
L 2988 3500 
L 3597 3500 
L 2059 -325 
z
" transform="scale(0.015625)"/>
       </defs>
       <use xlink:href="#DejaVuSans-42"/>
       <use xlink:href="#DejaVuSans-79" x="68.603516"/>
      </g>
     </g>
    </g>
    <g id="xtick_7">
     <g id="line2d_7">
      <path d="M 175.966767 226.049313 
L 307.188004 301.80993 
" clip-path="url(#p5aa6318bf0)" style="fill: none; stroke: #b0b0b0; stroke-width: 0.8; stroke-linecap: square"/>
     </g>
     <g id="text_7">
      <!-- LxB -->
      <g transform="translate(310.136578 311.569305) scale(0.1 -0.1)">
       <use xlink:href="#DejaVuSans-4c"/>
       <use xlink:href="#DejaVuSans-78" x="55.712891"/>
       <use xlink:href="#DejaVuSans-42" x="114.892578"/>
      </g>
     </g>
    </g>
    <g id="xtick_8">
     <g id="line2d_8">
      <path d="M 175.966767 226.049313 
L 325.186052 199.737927 
" clip-path="url(#p5aa6318bf0)" style="fill: none; stroke: #b0b0b0; stroke-width: 0.8; stroke-linecap: square"/>
     </g>
     <g id="text_8">
      <!-- LBy -->
      <g transform="translate(329.797579 200.066228) scale(0.1 -0.1)">
       <use xlink:href="#DejaVuSans-4c"/>
       <use xlink:href="#DejaVuSans-42" x="55.712891"/>
       <use xlink:href="#DejaVuSans-79" x="124.316406"/>
      </g>
     </g>
    </g>
    <g id="xtick_9">
     <g id="line2d_9">
      <path d="M 175.966767 226.049313 
L 273.362738 109.977315 
" clip-path="url(#p5aa6318bf0)" style="fill: none; stroke: #b0b0b0; stroke-width: 0.8; stroke-linecap: square"/>
     </g>
     <g id="text_9">
      <!-- LxBy -->
      <g transform="translate(270.226608 102.012068) scale(0.1 -0.1)">
       <use xlink:href="#DejaVuSans-4c"/>
       <use xlink:href="#DejaVuSans-78" x="55.712891"/>
       <use xlink:href="#DejaVuSans-42" x="114.892578"/>
       <use xlink:href="#DejaVuSans-79" x="183.496094"/>
      </g>
     </g>
    </g>
   </g>
   <g id="matplotlib.axis_2">
    <g id="ytick_1">
     <g id="line2d_10">
      <path d="M 175.966767 197.188126 
C 172.176751 197.188126 168.423587 197.934677 164.922069 199.385053 
C 161.42055 200.83543 158.238772 202.961426 155.558826 205.641372 
C 152.87888 208.321318 150.752883 211.503097 149.302507 215.004615 
C 147.85213 218.506134 147.10558 222.259297 147.10558 226.049313 
C 147.10558 229.83933 147.85213 233.592493 149.302507 237.094012 
C 150.752883 240.59553 152.87888 243.777308 155.558826 246.457255 
C 158.238772 249.137201 161.42055 251.263197 164.922069 252.713573 
C 168.423587 254.16395 172.176751 254.910501 175.966767 254.910501 
C 179.756783 254.910501 183.509947 254.16395 187.011465 252.713573 
C 190.512984 251.263197 193.694762 249.137201 196.374708 246.457255 
C 199.054655 243.777308 201.180651 240.59553 202.631027 237.094012 
C 204.081404 233.592493 204.827954 229.83933 204.827954 226.049313 
C 204.827954 222.259297 204.081404 218.506134 202.631027 215.004615 
C 201.180651 211.503097 199.054655 208.321318 196.374708 205.641372 
C 193.694762 202.961426 190.512984 200.83543 187.011465 199.385053 
C 183.509947 197.934677 179.756783 197.188126 175.966767 197.188126 
" clip-path="url(#p5aa6318bf0)" style="fill: none; stroke: #b0b0b0; stroke-width: 0.8; stroke-linecap: square"/>
     </g>
     <g id="text_10">
      <!-- 0.1 -->
      <g transform="translate(164.922069 197.305366) scale(0.1 -0.1)">
       <defs>
        <path id="DejaVuSans-30" d="M 2034 4250 
Q 1547 4250 1301 3770 
Q 1056 3291 1056 2328 
Q 1056 1369 1301 889 
Q 1547 409 2034 409 
Q 2525 409 2770 889 
Q 3016 1369 3016 2328 
Q 3016 3291 2770 3770 
Q 2525 4250 2034 4250 
z
M 2034 4750 
Q 2819 4750 3233 4129 
Q 3647 3509 3647 2328 
Q 3647 1150 3233 529 
Q 2819 -91 2034 -91 
Q 1250 -91 836 529 
Q 422 1150 422 2328 
Q 422 3509 836 4129 
Q 1250 4750 2034 4750 
z
" transform="scale(0.015625)"/>
        <path id="DejaVuSans-2e" d="M 684 794 
L 1344 794 
L 1344 0 
L 684 0 
L 684 794 
z
" transform="scale(0.015625)"/>
        <path id="DejaVuSans-31" d="M 794 531 
L 1825 531 
L 1825 4091 
L 703 3866 
L 703 4441 
L 1819 4666 
L 2450 4666 
L 2450 531 
L 3481 531 
L 3481 0 
L 794 0 
L 794 531 
z
" transform="scale(0.015625)"/>
       </defs>
       <use xlink:href="#DejaVuSans-30"/>
       <use xlink:href="#DejaVuSans-2e" x="63.623047"/>
       <use xlink:href="#DejaVuSans-31" x="95.410156"/>
      </g>
     </g>
    </g>
    <g id="ytick_2">
     <g id="line2d_11">
      <path d="M 175.966767 168.326939 
C 168.386734 168.326939 160.880408 169.82004 153.877371 172.720793 
C 146.874333 175.621546 140.510777 179.873538 135.150885 185.233431 
C 129.790992 190.593323 125.539 196.95688 122.638247 203.959917 
C 119.737494 210.962954 118.244393 218.469281 118.244393 226.049313 
C 118.244393 233.629346 119.737494 241.135673 122.638247 248.13871 
C 125.539 255.141747 129.790992 261.505303 135.150885 266.865196 
C 140.510777 272.225088 146.874333 276.477081 153.877371 279.377834 
C 160.880408 282.278587 168.386734 283.771688 175.966767 283.771688 
C 183.5468 283.771688 191.053126 282.278587 198.056163 279.377834 
C 205.059201 276.477081 211.422757 272.225088 216.782649 266.865196 
C 222.142542 261.505303 226.394534 255.141747 229.295287 248.13871 
C 232.19604 241.135673 233.689141 233.629346 233.689141 226.049313 
C 233.689141 218.469281 232.19604 210.962954 229.295287 203.959917 
C 226.394534 196.95688 222.142542 190.593323 216.782649 185.233431 
C 211.422757 179.873538 205.059201 175.621546 198.056163 172.720793 
C 191.053126 169.82004 183.5468 168.326939 175.966767 168.326939 
" clip-path="url(#p5aa6318bf0)" style="fill: none; stroke: #b0b0b0; stroke-width: 0.8; stroke-linecap: square"/>
     </g>
     <g id="text_11">
      <!-- 0.2 -->
      <g transform="translate(153.877371 170.641105) scale(0.1 -0.1)">
       <defs>
        <path id="DejaVuSans-32" d="M 1228 531 
L 3431 531 
L 3431 0 
L 469 0 
L 469 531 
Q 828 903 1448 1529 
Q 2069 2156 2228 2338 
Q 2531 2678 2651 2914 
Q 2772 3150 2772 3378 
Q 2772 3750 2511 3984 
Q 2250 4219 1831 4219 
Q 1534 4219 1204 4116 
Q 875 4013 500 3803 
L 500 4441 
Q 881 4594 1212 4672 
Q 1544 4750 1819 4750 
Q 2544 4750 2975 4387 
Q 3406 4025 3406 3419 
Q 3406 3131 3298 2873 
Q 3191 2616 2906 2266 
Q 2828 2175 2409 1742 
Q 1991 1309 1228 531 
z
" transform="scale(0.015625)"/>
       </defs>
       <use xlink:href="#DejaVuSans-30"/>
       <use xlink:href="#DejaVuSans-2e" x="63.623047"/>
       <use xlink:href="#DejaVuSans-32" x="95.410156"/>
      </g>
     </g>
    </g>
    <g id="ytick_3">
     <g id="line2d_12">
      <path d="M 175.966767 139.465752 
C 164.596718 139.465752 153.337228 141.705403 142.832672 146.056533 
C 132.328117 150.407662 122.782782 156.785651 114.742943 164.82549 
C 106.703105 172.865329 100.325116 182.410663 95.973986 192.915219 
C 91.622857 203.419774 89.383205 214.679264 89.383205 226.049313 
C 89.383205 237.419362 91.622857 248.678852 95.973986 259.183408 
C 100.325116 269.687964 106.703105 279.233298 114.742943 287.273137 
C 122.782782 295.312976 132.328117 301.690964 142.832672 306.042094 
C 153.337228 310.393223 164.596718 312.632875 175.966767 312.632875 
C 187.336816 312.632875 198.596306 310.393223 209.100862 306.042094 
C 219.605417 301.690964 229.150752 295.312976 237.190591 287.273137 
C 245.230429 279.233298 251.608418 269.687964 255.959548 259.183408 
C 260.310677 248.678852 262.550329 237.419362 262.550329 226.049313 
C 262.550329 214.679264 260.310677 203.419774 255.959548 192.915219 
C 251.608418 182.410663 245.230429 172.865329 237.190591 164.82549 
C 229.150752 156.785651 219.605417 150.407662 209.100862 146.056533 
C 198.596306 141.705403 187.336816 139.465752 175.966767 139.465752 
" clip-path="url(#p5aa6318bf0)" style="fill: none; stroke: #b0b0b0; stroke-width: 0.8; stroke-linecap: square"/>
     </g>
     <g id="text_12">
      <!-- 0.3 -->
      <g transform="translate(142.832672 143.976845) scale(0.1 -0.1)">
       <defs>
        <path id="DejaVuSans-33" d="M 2597 2516 
Q 3050 2419 3304 2112 
Q 3559 1806 3559 1356 
Q 3559 666 3084 287 
Q 2609 -91 1734 -91 
Q 1441 -91 1130 -33 
Q 819 25 488 141 
L 488 750 
Q 750 597 1062 519 
Q 1375 441 1716 441 
Q 2309 441 2620 675 
Q 2931 909 2931 1356 
Q 2931 1769 2642 2001 
Q 2353 2234 1838 2234 
L 1294 2234 
L 1294 2753 
L 1863 2753 
Q 2328 2753 2575 2939 
Q 2822 3125 2822 3475 
Q 2822 3834 2567 4026 
Q 2313 4219 1838 4219 
Q 1578 4219 1281 4162 
Q 984 4106 628 3988 
L 628 4550 
Q 988 4650 1302 4700 
Q 1616 4750 1894 4750 
Q 2613 4750 3031 4423 
Q 3450 4097 3450 3541 
Q 3450 3153 3228 2886 
Q 3006 2619 2597 2516 
z
" transform="scale(0.015625)"/>
       </defs>
       <use xlink:href="#DejaVuSans-30"/>
       <use xlink:href="#DejaVuSans-2e" x="63.623047"/>
       <use xlink:href="#DejaVuSans-33" x="95.410156"/>
      </g>
     </g>
    </g>
    <g id="ytick_4">
     <g id="line2d_13">
      <path d="M 175.966767 110.604564 
C 160.806701 110.604564 145.794048 113.590767 131.787974 119.392273 
C 117.7819 125.193779 105.054787 133.697763 94.335002 144.417548 
C 83.615217 155.137334 75.111232 167.864446 69.309726 181.870521 
C 63.50822 195.876595 60.522018 210.889248 60.522018 226.049313 
C 60.522018 241.209379 63.50822 256.222032 69.309726 270.228106 
C 75.111232 284.23418 83.615217 296.961293 94.335002 307.681078 
C 105.054787 318.400863 117.7819 326.904848 131.787974 332.706354 
C 145.794048 338.50786 160.806701 341.494062 175.966767 341.494062 
C 191.126833 341.494062 206.139486 338.50786 220.14556 332.706354 
C 234.151634 326.904848 246.878747 318.400863 257.598532 307.681078 
C 268.318317 296.961293 276.822302 284.23418 282.623808 270.228106 
C 288.425314 256.222032 291.411516 241.209379 291.411516 226.049313 
C 291.411516 210.889248 288.425314 195.876595 282.623808 181.870521 
C 276.822302 167.864446 268.318317 155.137334 257.598532 144.417548 
C 246.878747 133.697763 234.151634 125.193779 220.14556 119.392273 
C 206.139486 113.590767 191.126833 110.604564 175.966767 110.604564 
" clip-path="url(#p5aa6318bf0)" style="fill: none; stroke: #b0b0b0; stroke-width: 0.8; stroke-linecap: square"/>
     </g>
     <g id="text_13">
      <!-- 0.4 -->
      <g transform="translate(131.787974 117.312585) scale(0.1 -0.1)">
       <defs>
        <path id="DejaVuSans-34" d="M 2419 4116 
L 825 1625 
L 2419 1625 
L 2419 4116 
z
M 2253 4666 
L 3047 4666 
L 3047 1625 
L 3713 1625 
L 3713 1100 
L 3047 1100 
L 3047 0 
L 2419 0 
L 2419 1100 
L 313 1100 
L 313 1709 
L 2253 4666 
z
" transform="scale(0.015625)"/>
       </defs>
       <use xlink:href="#DejaVuSans-30"/>
       <use xlink:href="#DejaVuSans-2e" x="63.623047"/>
       <use xlink:href="#DejaVuSans-34" x="95.410156"/>
      </g>
     </g>
    </g>
    <g id="ytick_5">
     <g id="line2d_14">
      <path d="M 175.966767 81.743377 
C 157.016685 81.743377 138.250869 85.47613 120.743276 92.728012 
C 103.235683 99.979895 87.326792 110.609876 73.927061 124.009607 
C 60.52733 137.409339 49.897349 153.31823 42.645466 170.825822 
C 35.393584 188.333415 31.660831 207.099231 31.660831 226.049313 
C 31.660831 244.999395 35.393584 263.765211 42.645466 281.272804 
C 49.897349 298.780397 60.52733 314.689288 73.927061 328.089019 
C 87.326792 341.488751 103.235683 352.118732 120.743276 359.370614 
C 138.250869 366.622497 157.016685 370.355249 175.966767 370.355249 
C 194.916849 370.355249 213.682665 366.622497 231.190258 359.370614 
C 248.697851 352.118732 264.606742 341.488751 278.006473 328.089019 
C 291.406204 314.689288 302.036185 298.780397 309.288068 281.272804 
C 316.53995 263.765211 320.272703 244.999395 320.272703 226.049313 
C 320.272703 207.099231 316.53995 188.333415 309.288068 170.825822 
C 302.036185 153.31823 291.406204 137.409339 278.006473 124.009607 
C 264.606742 110.609876 248.697851 99.979895 231.190258 92.728012 
C 213.682665 85.47613 194.916849 81.743377 175.966767 81.743377 
" clip-path="url(#p5aa6318bf0)" style="fill: none; stroke: #b0b0b0; stroke-width: 0.8; stroke-linecap: square"/>
     </g>
     <g id="text_14">
      <!-- 0.5 -->
      <g transform="translate(120.743276 90.648325) scale(0.1 -0.1)">
       <defs>
        <path id="DejaVuSans-35" d="M 691 4666 
L 3169 4666 
L 3169 4134 
L 1269 4134 
L 1269 2991 
Q 1406 3038 1543 3061 
Q 1681 3084 1819 3084 
Q 2600 3084 3056 2656 
Q 3513 2228 3513 1497 
Q 3513 744 3044 326 
Q 2575 -91 1722 -91 
Q 1428 -91 1123 -41 
Q 819 9 494 109 
L 494 744 
Q 775 591 1075 516 
Q 1375 441 1709 441 
Q 2250 441 2565 725 
Q 2881 1009 2881 1497 
Q 2881 1984 2565 2268 
Q 2250 2553 1709 2553 
Q 1456 2553 1204 2497 
Q 953 2441 691 2322 
L 691 4666 
z
" transform="scale(0.015625)"/>
       </defs>
       <use xlink:href="#DejaVuSans-30"/>
       <use xlink:href="#DejaVuSans-2e" x="63.623047"/>
       <use xlink:href="#DejaVuSans-35" x="95.410156"/>
      </g>
     </g>
    </g>
   </g>
   <g id="line2d_15">
    <path d="M 175.966767 196.192913 
L 163.172551 210.80176 
L 136.763014 219.136634 
L 175.966767 226.049313 
L 128.313145 356.976563 
L 175.966767 226.049313 
L 227.67957 255.905714 
L 175.966767 226.049313 
L 175.966767 226.049313 
L 175.966767 196.192913 
" clip-path="url(#p5aa6318bf0)" style="fill: none; stroke: #0000ff; stroke-linecap: square"/>
   </g>
   <g id="line2d_16">
    <path d="M 175.966767 226.049313 
L 129.587733 170.776933 
L 152.281166 221.872903 
L 175.966767 226.049313 
L 134.837153 339.051999 
L 175.966767 226.049313 
L 196.795535 238.074808 
L 199.652368 221.872903 
L 191.426445 207.625187 
L 175.966767 226.049313 
" clip-path="url(#p5aa6318bf0)" style="fill: none; stroke: #ff0000; stroke-linecap: square"/>
   </g>
   <g id="line2d_17">
    <path d="M 175.966767 205.43418 
L 162.715614 210.257205 
L 155.664823 222.469533 
L 175.966767 226.049313 
L 126.61123 361.652537 
L 183.017558 245.421202 
L 211.673226 246.664447 
L 196.268711 222.469533 
L 175.966767 226.049313 
L 175.966767 205.43418 
" clip-path="url(#p5aa6318bf0)" style="fill: none; stroke: #008000; stroke-linecap: square"/>
   </g>
   <g id="patch_6">
    <path d="M 175.966767 74.52808 
C 156.069181 74.52808 136.365074 78.447471 117.982101 86.061947 
C 99.599129 93.676424 82.894794 104.837904 68.825076 118.907622 
C 54.755358 132.97734 43.593878 149.681675 35.979401 168.064648 
C 28.364925 186.44762 24.445534 206.151727 24.445534 226.049313 
C 24.445534 245.946899 28.364925 265.651006 35.979401 284.033979 
C 43.593878 302.416951 54.755358 319.121287 68.825076 333.191005 
C 82.894794 347.260723 99.599129 358.422203 117.982101 366.036679 
C 136.365074 373.651156 156.069181 377.570546 175.966767 377.570546 
C 195.864353 377.570546 215.56846 373.651156 233.951433 366.036679 
C 252.334405 358.422203 269.03874 347.260723 283.108458 333.191005 
C 297.178176 319.121287 308.339656 302.416951 315.954133 284.033979 
C 323.568609 265.651006 327.488 245.946899 327.488 226.049313 
C 327.488 206.151727 323.568609 186.44762 315.954133 168.064648 
C 308.339656 149.681675 297.178176 132.97734 283.108458 118.907622 
C 269.03874 104.837904 252.334405 93.676424 233.951433 86.061947 
C 215.56846 78.447471 195.864353 74.52808 175.966767 74.52808 
" style="fill: none; stroke: #000000; stroke-width: 0.8; stroke-linejoin: miter; stroke-linecap: square"/>
   </g>
   <g id="legend_1">
    <g id="patch_7">
     <path d="M 343.280427 96.258209 
L 411.40074 96.258209 
Q 413.40074 96.258209 413.40074 94.258209 
L 413.40074 51.223834 
Q 413.40074 49.223834 411.40074 49.223834 
L 343.280427 49.223834 
Q 341.280427 49.223834 341.280427 51.223834 
L 341.280427 94.258209 
Q 341.280427 96.258209 343.280427 96.258209 
z
" style="fill: #ffffff; opacity: 0.8; stroke: #cccccc; stroke-linejoin: miter"/>
    </g>
    <g id="line2d_18">
     <path d="M 345.280427 57.322271 
L 355.280427 57.322271 
L 365.280427 57.322271 
" style="fill: none; stroke: #0000ff; stroke-linecap: square"/>
    </g>
    <g id="text_15">
     <!-- Part A -->
     <g transform="translate(373.280427 60.822271) scale(0.1 -0.1)">
      <defs>
       <path id="DejaVuSans-50" d="M 1259 4147 
L 1259 2394 
L 2053 2394 
Q 2494 2394 2734 2622 
Q 2975 2850 2975 3272 
Q 2975 3691 2734 3919 
Q 2494 4147 2053 4147 
L 1259 4147 
z
M 628 4666 
L 2053 4666 
Q 2838 4666 3239 4311 
Q 3641 3956 3641 3272 
Q 3641 2581 3239 2228 
Q 2838 1875 2053 1875 
L 1259 1875 
L 1259 0 
L 628 0 
L 628 4666 
z
" transform="scale(0.015625)"/>
       <path id="DejaVuSans-61" d="M 2194 1759 
Q 1497 1759 1228 1600 
Q 959 1441 959 1056 
Q 959 750 1161 570 
Q 1363 391 1709 391 
Q 2188 391 2477 730 
Q 2766 1069 2766 1631 
L 2766 1759 
L 2194 1759 
z
M 3341 1997 
L 3341 0 
L 2766 0 
L 2766 531 
Q 2569 213 2275 61 
Q 1981 -91 1556 -91 
Q 1019 -91 701 211 
Q 384 513 384 1019 
Q 384 1609 779 1909 
Q 1175 2209 1959 2209 
L 2766 2209 
L 2766 2266 
Q 2766 2663 2505 2880 
Q 2244 3097 1772 3097 
Q 1472 3097 1187 3025 
Q 903 2953 641 2809 
L 641 3341 
Q 956 3463 1253 3523 
Q 1550 3584 1831 3584 
Q 2591 3584 2966 3190 
Q 3341 2797 3341 1997 
z
" transform="scale(0.015625)"/>
       <path id="DejaVuSans-72" d="M 2631 2963 
Q 2534 3019 2420 3045 
Q 2306 3072 2169 3072 
Q 1681 3072 1420 2755 
Q 1159 2438 1159 1844 
L 1159 0 
L 581 0 
L 581 3500 
L 1159 3500 
L 1159 2956 
Q 1341 3275 1631 3429 
Q 1922 3584 2338 3584 
Q 2397 3584 2469 3576 
Q 2541 3569 2628 3553 
L 2631 2963 
z
" transform="scale(0.015625)"/>
       <path id="DejaVuSans-74" d="M 1172 4494 
L 1172 3500 
L 2356 3500 
L 2356 3053 
L 1172 3053 
L 1172 1153 
Q 1172 725 1289 603 
Q 1406 481 1766 481 
L 2356 481 
L 2356 0 
L 1766 0 
Q 1100 0 847 248 
Q 594 497 594 1153 
L 594 3053 
L 172 3053 
L 172 3500 
L 594 3500 
L 594 4494 
L 1172 4494 
z
" transform="scale(0.015625)"/>
       <path id="DejaVuSans-20" transform="scale(0.015625)"/>
       <path id="DejaVuSans-41" d="M 2188 4044 
L 1331 1722 
L 3047 1722 
L 2188 4044 
z
M 1831 4666 
L 2547 4666 
L 4325 0 
L 3669 0 
L 3244 1197 
L 1141 1197 
L 716 0 
L 50 0 
L 1831 4666 
z
" transform="scale(0.015625)"/>
      </defs>
      <use xlink:href="#DejaVuSans-50"/>
      <use xlink:href="#DejaVuSans-61" x="55.802734"/>
      <use xlink:href="#DejaVuSans-72" x="117.082031"/>
      <use xlink:href="#DejaVuSans-74" x="158.195312"/>
      <use xlink:href="#DejaVuSans-20" x="197.404297"/>
      <use xlink:href="#DejaVuSans-41" x="229.191406"/>
     </g>
    </g>
    <g id="line2d_19">
     <path d="M 345.280427 72.000396 
L 355.280427 72.000396 
L 365.280427 72.000396 
" style="fill: none; stroke: #ff0000; stroke-linecap: square"/>
    </g>
    <g id="text_16">
     <!-- Part B -->
     <g transform="translate(373.280427 75.500396) scale(0.1 -0.1)">
      <use xlink:href="#DejaVuSans-50"/>
      <use xlink:href="#DejaVuSans-61" x="55.802734"/>
      <use xlink:href="#DejaVuSans-72" x="117.082031"/>
      <use xlink:href="#DejaVuSans-74" x="158.195312"/>
      <use xlink:href="#DejaVuSans-20" x="197.404297"/>
      <use xlink:href="#DejaVuSans-42" x="229.191406"/>
     </g>
    </g>
    <g id="line2d_20">
     <path d="M 345.280427 86.678521 
L 355.280427 86.678521 
L 365.280427 86.678521 
" style="fill: none; stroke: #008000; stroke-linecap: square"/>
    </g>
    <g id="text_17">
     <!-- Part A1 -->
     <g transform="translate(373.280427 90.178521) scale(0.1 -0.1)">
      <use xlink:href="#DejaVuSans-50"/>
      <use xlink:href="#DejaVuSans-61" x="55.802734"/>
      <use xlink:href="#DejaVuSans-72" x="117.082031"/>
      <use xlink:href="#DejaVuSans-74" x="158.195312"/>
      <use xlink:href="#DejaVuSans-20" x="197.404297"/>
      <use xlink:href="#DejaVuSans-41" x="229.191406"/>
      <use xlink:href="#DejaVuSans-31" x="297.599609"/>
     </g>
    </g>
   </g>
  </g>
 </g>
 <defs>
  <clipPath id="p5aa6318bf0">
   <path d="M 327.488 226.049313 
C 327.488 206.151727 323.568609 186.44762 315.954133 168.064648 
C 308.339656 149.681675 297.178176 132.97734 283.108458 118.907622 
C 269.03874 104.837904 252.334405 93.676424 233.951433 86.061947 
C 215.56846 78.447471 195.864353 74.52808 175.966767 74.52808 
C 156.069181 74.52808 136.365074 78.447471 117.982101 86.061947 
C 99.599129 93.676424 82.894794 104.837904 68.825076 118.907622 
C 54.755358 132.97734 43.593878 149.681675 35.979401 168.064648 
C 28.364925 186.44762 24.445534 206.151727 24.445534 226.049313 
C 24.445534 245.946899 28.364925 265.651006 35.979401 284.033979 
C 43.593878 302.416951 54.755358 319.121287 68.825076 333.191005 
C 82.894794 347.260723 99.599129 358.422203 117.982101 366.036679 
C 136.365074 373.651156 156.069181 377.570546 175.966767 377.570546 
C 195.864353 377.570546 215.56846 373.651156 233.951433 366.036679 
C 252.334405 358.422203 269.03874 347.260723 283.108458 333.191005 
C 297.178176 319.121287 308.339656 302.416951 315.954133 284.033979 
C 323.568609 265.651006 327.488 245.946899 327.488 226.049313 
M 175.966767 226.049313 
C 175.966767 226.049313 175.966767 226.049313 175.966767 226.049313 
C 175.966767 226.049313 175.966767 226.049313 175.966767 226.049313 
C 175.966767 226.049313 175.966767 226.049313 175.966767 226.049313 
C 175.966767 226.049313 175.966767 226.049313 175.966767 226.049313 
C 175.966767 226.049313 175.966767 226.049313 175.966767 226.049313 
C 175.966767 226.049313 175.966767 226.049313 175.966767 226.049313 
C 175.966767 226.049313 175.966767 226.049313 175.966767 226.049313 
C 175.966767 226.049313 175.966767 226.049313 175.966767 226.049313 
C 175.966767 226.049313 175.966767 226.049313 175.966767 226.049313 
C 175.966767 226.049313 175.966767 226.049313 175.966767 226.049313 
C 175.966767 226.049313 175.966767 226.049313 175.966767 226.049313 
C 175.966767 226.049313 175.966767 226.049313 175.966767 226.049313 
C 175.966767 226.049313 175.966767 226.049313 175.966767 226.049313 
C 175.966767 226.049313 175.966767 226.049313 175.966767 226.049313 
C 175.966767 226.049313 175.966767 226.049313 175.966767 226.049313 
C 175.966767 226.049313 175.966767 226.049313 175.966767 226.049313 
z
"/>
  </clipPath>
 </defs>
</svg>
