<?xml version="1.0" encoding="utf-8" standalone="no"?>
<!DOCTYPE svg PUBLIC "-//W3C//DTD SVG 1.1//EN"
  "http://www.w3.org/Graphics/SVG/1.1/DTD/svg11.dtd">
<svg xmlns:xlink="http://www.w3.org/1999/xlink" width="432pt" height="432pt" viewBox="0 0 432 432" xmlns="http://www.w3.org/2000/svg" version="1.1">
 <metadata>
  <rdf:RDF xmlns:dc="http://purl.org/dc/elements/1.1/" xmlns:cc="http://creativecommons.org/ns#" xmlns:rdf="http://www.w3.org/1999/02/22-rdf-syntax-ns#">
   <cc:Work>
    <dc:type rdf:resource="http://purl.org/dc/dcmitype/StillImage"/>
    <dc:date>2024-05-09T13:08:37.854145</dc:date>
    <dc:format>image/svg+xml</dc:format>
    <dc:creator>
     <cc:Agent>
      <dc:title>Matplotlib v3.7.1, https://matplotlib.org/</dc:title>
     </cc:Agent>
    </dc:creator>
   </cc:Work>
  </rdf:RDF>
 </metadata>
 <defs>
  <style type="text/css">*{stroke-linejoin: round; stroke-linecap: butt}</style>
 </defs>
 <g id="figure_1">
  <g id="patch_1">
   <path d="M 0 432 
L 432 432 
L 432 0 
L 0 0 
z
" style="fill: #ffffff"/>
  </g>
  <g id="axes_1">
   <g id="patch_2">
    <path d="M 327.488 226.049313 
C 327.488 206.529925 323.643106 187.200339 316.17336 169.166776 
C 308.703614 151.133213 297.754282 134.746381 283.951991 120.944089 
C 270.149699 107.141798 253.762867 96.192467 235.729304 88.72272 
C 217.695741 81.252974 198.366155 77.40808 178.846767 77.40808 
C 159.327379 77.40808 139.997793 81.252974 121.96423 88.72272 
C 103.930667 96.192467 87.543835 107.141798 73.741543 120.944089 
C 59.939252 134.746381 48.989921 151.133213 41.520174 169.166776 
C 34.050428 187.200339 30.205534 206.529925 30.205534 226.049313 
C 30.205534 245.568701 34.050428 264.898288 41.520174 282.931851 
C 48.989921 300.965413 59.939252 317.352246 73.741543 331.154537 
C 87.543835 344.956829 103.930667 355.90616 121.96423 363.375906 
C 139.997793 370.845653 159.327379 374.690546 178.846767 374.690546 
C 198.366155 374.690546 217.695741 370.845653 235.729304 363.375906 
C 253.762867 355.90616 270.149699 344.956829 283.951991 331.154537 
C 297.754282 317.352246 308.703614 300.965413 316.17336 282.931851 
C 323.643106 264.898288 327.488 245.568701 327.488 226.049313 
M 178.846767 226.049313 
C 178.846767 226.049313 178.846767 226.049313 178.846767 226.049313 
C 178.846767 226.049313 178.846767 226.049313 178.846767 226.049313 
C 178.846767 226.049313 178.846767 226.049313 178.846767 226.049313 
C 178.846767 226.049313 178.846767 226.049313 178.846767 226.049313 
C 178.846767 226.049313 178.846767 226.049313 178.846767 226.049313 
C 178.846767 226.049313 178.846767 226.049313 178.846767 226.049313 
C 178.846767 226.049313 178.846767 226.049313 178.846767 226.049313 
C 178.846767 226.049313 178.846767 226.049313 178.846767 226.049313 
C 178.846767 226.049313 178.846767 226.049313 178.846767 226.049313 
C 178.846767 226.049313 178.846767 226.049313 178.846767 226.049313 
C 178.846767 226.049313 178.846767 226.049313 178.846767 226.049313 
C 178.846767 226.049313 178.846767 226.049313 178.846767 226.049313 
C 178.846767 226.049313 178.846767 226.049313 178.846767 226.049313 
C 178.846767 226.049313 178.846767 226.049313 178.846767 226.049313 
C 178.846767 226.049313 178.846767 226.049313 178.846767 226.049313 
C 178.846767 226.049313 178.846767 226.049313 178.846767 226.049313 
z
" style="fill: #ffffff"/>
   </g>
   <g id="patch_3">
    <path d="M 178.846767 196.7604 
L 191.397801 211.091574 
L 217.305365 219.268025 
L 178.846767 226.049313 
L 225.594625 354.487998 
L 178.846767 226.049313 
L 128.116882 255.338226 
L 178.846767 226.049313 
L 178.846767 226.049313 
z
" clip-path="url(#p58dc69e7ad)" style="fill: #0000ff; opacity: 0.25; stroke: #0000ff; stroke-linejoin: miter"/>
   </g>
   <g id="patch_4">
    <path d="M 178.846767 226.049313 
L 224.344264 171.827508 
L 202.08217 221.952285 
L 178.846767 226.049313 
L 219.194621 336.904131 
L 178.846767 226.049313 
L 158.413897 237.846237 
L 155.611364 221.952285 
L 163.680935 207.975378 
z
" clip-path="url(#p58dc69e7ad)" style="fill: #ff0000; opacity: 0.25; stroke: #ff0000; stroke-linejoin: miter"/>
   </g>
   <g id="patch_5">
    <path d="M 178.846767 205.826016 
L 191.846052 210.557369 
L 198.762827 222.537575 
L 178.846767 226.049313 
L 227.264192 359.075094 
L 171.929992 245.052996 
L 143.818989 246.27261 
L 158.930707 222.537575 
L 178.846767 226.049313 
z
" clip-path="url(#p58dc69e7ad)" style="fill: #008000; opacity: 0.25; stroke: #008000; stroke-linejoin: miter"/>
   </g>
   <g id="matplotlib.axis_1">
    <g id="xtick_1">
     <g id="line2d_1">
      <path d="M 178.846767 226.049313 
L 178.846767 77.40808 
" clip-path="url(#p58dc69e7ad)" style="fill: none; stroke: #b0b0b0; stroke-width: 0.8; stroke-linecap: square"/>
     </g>
     <g id="text_1">
      <!-- R -->
      <g transform="translate(175.372548 66.167455) scale(0.1 -0.1)">
       <defs>
        <path id="DejaVuSans-52" d="M 2841 2188 
Q 3044 2119 3236 1894 
Q 3428 1669 3622 1275 
L 4263 0 
L 3584 0 
L 2988 1197 
Q 2756 1666 2539 1819 
Q 2322 1972 1947 1972 
L 1259 1972 
L 1259 0 
L 628 0 
L 628 4666 
L 2053 4666 
Q 2853 4666 3247 4331 
Q 3641 3997 3641 3322 
Q 3641 2881 3436 2590 
Q 3231 2300 2841 2188 
z
M 1259 4147 
L 1259 2491 
L 2053 2491 
Q 2509 2491 2742 2702 
Q 2975 2913 2975 3322 
Q 2975 3731 2742 3939 
Q 2509 4147 2053 4147 
L 1259 4147 
z
" transform="scale(0.015625)"/>
       </defs>
       <use xlink:href="#DejaVuSans-52"/>
      </g>
     </g>
    </g>
    <g id="xtick_2">
     <g id="line2d_2">
      <path d="M 178.846767 226.049313 
L 274.39151 112.183523 
" clip-path="url(#p58dc69e7ad)" style="fill: none; stroke: #b0b0b0; stroke-width: 0.8; stroke-linecap: square"/>
     </g>
     <g id="text_2">
      <!-- L -->
      <g transform="translate(280.604599 104.218276) scale(0.1 -0.1)">
       <defs>
        <path id="DejaVuSans-4c" d="M 628 4666 
L 1259 4666 
L 1259 531 
L 3531 531 
L 3531 0 
L 628 0 
L 628 4666 
z
" transform="scale(0.015625)"/>
       </defs>
       <use xlink:href="#DejaVuSans-4c"/>
      </g>
     </g>
    </g>
    <g id="xtick_3">
     <g id="line2d_3">
      <path d="M 178.846767 226.049313 
L 325.229806 200.238034 
" clip-path="url(#p58dc69e7ad)" style="fill: none; stroke: #b0b0b0; stroke-width: 0.8; stroke-linecap: square"/>
     </g>
     <g id="text_3">
      <!-- B -->
      <g transform="translate(335.586645 200.566335) scale(0.1 -0.1)">
       <defs>
        <path id="DejaVuSans-42" d="M 1259 2228 
L 1259 519 
L 2272 519 
Q 2781 519 3026 730 
Q 3272 941 3272 1375 
Q 3272 1813 3026 2020 
Q 2781 2228 2272 2228 
L 1259 2228 
z
M 1259 4147 
L 1259 2741 
L 2194 2741 
Q 2656 2741 2882 2914 
Q 3109 3088 3109 3444 
Q 3109 3797 2882 3972 
Q 2656 4147 2194 4147 
L 1259 4147 
z
M 628 4666 
L 2241 4666 
Q 2963 4666 3353 4366 
Q 3744 4066 3744 3513 
Q 3744 3084 3544 2831 
Q 3344 2578 2956 2516 
Q 3422 2416 3680 2098 
Q 3938 1781 3938 1306 
Q 3938 681 3513 340 
Q 3088 0 2303 0 
L 628 0 
L 628 4666 
z
" transform="scale(0.015625)"/>
       </defs>
       <use xlink:href="#DejaVuSans-42"/>
      </g>
     </g>
    </g>
    <g id="xtick_4">
     <g id="line2d_4">
      <path d="M 178.846767 226.049313 
L 307.573851 300.36993 
" clip-path="url(#p58dc69e7ad)" style="fill: none; stroke: #b0b0b0; stroke-width: 0.8; stroke-linecap: square"/>
     </g>
     <g id="text_4">
      <!-- Lx -->
      <g transform="translate(313.952894 310.129305) scale(0.1 -0.1)">
       <defs>
        <path id="DejaVuSans-78" d="M 3513 3500 
L 2247 1797 
L 3578 0 
L 2900 0 
L 1881 1375 
L 863 0 
L 184 0 
L 1544 1831 
L 300 3500 
L 978 3500 
L 1906 2253 
L 2834 3500 
L 3513 3500 
z
" transform="scale(0.015625)"/>
       </defs>
       <use xlink:href="#DejaVuSans-4c"/>
       <use xlink:href="#DejaVuSans-78" x="55.712891"/>
      </g>
     </g>
    </g>
    <g id="xtick_5">
     <g id="line2d_5">
      <path d="M 178.846767 226.049313 
L 229.685063 365.726383 
" clip-path="url(#p58dc69e7ad)" style="fill: none; stroke: #b0b0b0; stroke-width: 0.8; stroke-linecap: square"/>
     </g>
     <g id="text_5">
      <!-- LB -->
      <g transform="translate(228.256939 381.641455) scale(0.1 -0.1)">
       <use xlink:href="#DejaVuSans-4c"/>
       <use xlink:href="#DejaVuSans-42" x="55.712891"/>
      </g>
     </g>
    </g>
    <g id="xtick_6">
     <g id="line2d_6">
      <path d="M 178.846767 226.049313 
L 128.008471 365.726383 
" clip-path="url(#p58dc69e7ad)" style="fill: none; stroke: #b0b0b0; stroke-width: 0.8; stroke-linecap: square"/>
     </g>
     <g id="text_6">
      <!-- By -->
      <g transform="translate(116.830345 381.641455) scale(0.1 -0.1)">
       <defs>
        <path id="DejaVuSans-79" d="M 2059 -325 
Q 1816 -950 1584 -1140 
Q 1353 -1331 966 -1331 
L 506 -1331 
L 506 -850 
L 844 -850 
Q 1081 -850 1212 -737 
Q 1344 -625 1503 -206 
L 1606 56 
L 191 3500 
L 800 3500 
L 1894 763 
L 2988 3500 
L 3597 3500 
L 2059 -325 
z
" transform="scale(0.015625)"/>
       </defs>
       <use xlink:href="#DejaVuSans-42"/>
       <use xlink:href="#DejaVuSans-79" x="68.603516"/>
      </g>
     </g>
    </g>
    <g id="xtick_7">
     <g id="line2d_7">
      <path d="M 178.846767 226.049313 
L 50.119683 300.36993 
" clip-path="url(#p58dc69e7ad)" style="fill: none; stroke: #b0b0b0; stroke-width: 0.8; stroke-linecap: square"/>
     </g>
     <g id="text_7">
      <!-- LxB -->
      <g transform="translate(28.819546 310.129305) scale(0.1 -0.1)">
       <use xlink:href="#DejaVuSans-4c"/>
       <use xlink:href="#DejaVuSans-78" x="55.712891"/>
       <use xlink:href="#DejaVuSans-42" x="114.892578"/>
      </g>
     </g>
    </g>
    <g id="xtick_8">
     <g id="line2d_8">
      <path d="M 178.846767 226.049313 
L 32.463728 200.238034 
" clip-path="url(#p58dc69e7ad)" style="fill: none; stroke: #b0b0b0; stroke-width: 0.8; stroke-linecap: square"/>
     </g>
     <g id="text_8">
      <!-- LBy -->
      <g transform="translate(9.500639 200.566335) scale(0.1 -0.1)">
       <use xlink:href="#DejaVuSans-4c"/>
       <use xlink:href="#DejaVuSans-42" x="55.712891"/>
       <use xlink:href="#DejaVuSans-79" x="124.316406"/>
      </g>
     </g>
    </g>
    <g id="xtick_9">
     <g id="line2d_9">
      <path d="M 178.846767 226.049313 
L 83.302024 112.183523 
" clip-path="url(#p58dc69e7ad)" style="fill: none; stroke: #b0b0b0; stroke-width: 0.8; stroke-linecap: square"/>
     </g>
     <g id="text_9">
      <!-- LxBy -->
      <g transform="translate(62.167841 104.218276) scale(0.1 -0.1)">
       <use xlink:href="#DejaVuSans-4c"/>
       <use xlink:href="#DejaVuSans-78" x="55.712891"/>
       <use xlink:href="#DejaVuSans-42" x="114.892578"/>
       <use xlink:href="#DejaVuSans-79" x="183.496094"/>
      </g>
     </g>
    </g>
   </g>
   <g id="matplotlib.axis_2">
    <g id="ytick_1">
     <g id="line2d_10">
      <path d="M 178.846767 197.736698 
C 182.564746 197.736698 186.246572 198.469058 189.681536 199.891867 
C 193.1165 201.314676 196.237802 203.400263 198.86681 206.029271 
C 201.495818 208.658279 203.581404 211.77958 205.004213 215.214544 
C 206.427022 218.649509 207.159383 222.331335 207.159383 226.049313 
C 207.159383 229.767292 206.427022 233.449118 205.004213 236.884082 
C 203.581404 240.319047 201.495818 243.440348 198.86681 246.069356 
C 196.237802 248.698364 193.1165 250.783951 189.681536 252.20676 
C 186.246572 253.629568 182.564746 254.361929 178.846767 254.361929 
C 175.128788 254.361929 171.446962 253.629568 168.011998 252.20676 
C 164.577034 250.783951 161.455732 248.698364 158.826724 246.069356 
C 156.197716 243.440348 154.11213 240.319047 152.689321 236.884082 
C 151.266512 233.449118 150.534151 229.767292 150.534151 226.049313 
C 150.534151 222.331335 151.266512 218.649509 152.689321 215.214544 
C 154.11213 211.77958 156.197716 208.658279 158.826724 206.029271 
C 161.455732 203.400263 164.577034 201.314676 168.011998 199.891867 
C 171.446962 198.469058 175.128788 197.736698 178.846767 197.736698 
" clip-path="url(#p58dc69e7ad)" style="fill: none; stroke: #b0b0b0; stroke-width: 0.8; stroke-linecap: square"/>
     </g>
     <g id="text_10">
      <!-- 0.1 -->
      <g transform="translate(189.681536 197.81218) scale(0.1 -0.1)">
       <defs>
        <path id="DejaVuSans-30" d="M 2034 4250 
Q 1547 4250 1301 3770 
Q 1056 3291 1056 2328 
Q 1056 1369 1301 889 
Q 1547 409 2034 409 
Q 2525 409 2770 889 
Q 3016 1369 3016 2328 
Q 3016 3291 2770 3770 
Q 2525 4250 2034 4250 
z
M 2034 4750 
Q 2819 4750 3233 4129 
Q 3647 3509 3647 2328 
Q 3647 1150 3233 529 
Q 2819 -91 2034 -91 
Q 1250 -91 836 529 
Q 422 1150 422 2328 
Q 422 3509 836 4129 
Q 1250 4750 2034 4750 
z
" transform="scale(0.015625)"/>
        <path id="DejaVuSans-2e" d="M 684 794 
L 1344 794 
L 1344 0 
L 684 0 
L 684 794 
z
" transform="scale(0.015625)"/>
        <path id="DejaVuSans-31" d="M 794 531 
L 1825 531 
L 1825 4091 
L 703 3866 
L 703 4441 
L 1819 4666 
L 2450 4666 
L 2450 531 
L 3481 531 
L 3481 0 
L 794 0 
L 794 531 
z
" transform="scale(0.015625)"/>
       </defs>
       <use xlink:href="#DejaVuSans-30"/>
       <use xlink:href="#DejaVuSans-2e" x="63.623047"/>
       <use xlink:href="#DejaVuSans-31" x="95.410156"/>
      </g>
     </g>
    </g>
    <g id="ytick_2">
     <g id="line2d_11">
      <path d="M 178.846767 169.424082 
C 186.282724 169.424082 193.646376 170.888803 200.516305 173.734421 
C 207.386234 176.580038 213.628836 180.751212 218.886852 186.009228 
C 224.144868 191.267244 228.316042 197.509847 231.16166 204.379775 
C 234.007277 211.249704 235.471999 218.613356 235.471999 226.049313 
C 235.471999 233.485271 234.007277 240.848923 231.16166 247.718851 
C 228.316042 254.58878 224.144868 260.831383 218.886852 266.089399 
C 213.628836 271.347414 207.386234 275.518588 200.516305 278.364206 
C 193.646376 281.209823 186.282724 282.674545 178.846767 282.674545 
C 171.41081 282.674545 164.047158 281.209823 157.177229 278.364206 
C 150.3073 275.518588 144.064698 271.347414 138.806682 266.089399 
C 133.548666 260.831383 129.377492 254.58878 126.531874 247.718851 
C 123.686257 240.848923 122.221535 233.485271 122.221535 226.049313 
C 122.221535 218.613356 123.686257 211.249704 126.531874 204.379775 
C 129.377492 197.509847 133.548666 191.267244 138.806682 186.009228 
C 144.064698 180.751212 150.3073 176.580038 157.177229 173.734421 
C 164.047158 170.888803 171.41081 169.424082 178.846767 169.424082 
" clip-path="url(#p58dc69e7ad)" style="fill: none; stroke: #b0b0b0; stroke-width: 0.8; stroke-linecap: square"/>
     </g>
     <g id="text_11">
      <!-- 0.2 -->
      <g transform="translate(200.516305 171.654733) scale(0.1 -0.1)">
       <defs>
        <path id="DejaVuSans-32" d="M 1228 531 
L 3431 531 
L 3431 0 
L 469 0 
L 469 531 
Q 828 903 1448 1529 
Q 2069 2156 2228 2338 
Q 2531 2678 2651 2914 
Q 2772 3150 2772 3378 
Q 2772 3750 2511 3984 
Q 2250 4219 1831 4219 
Q 1534 4219 1204 4116 
Q 875 4013 500 3803 
L 500 4441 
Q 881 4594 1212 4672 
Q 1544 4750 1819 4750 
Q 2544 4750 2975 4387 
Q 3406 4025 3406 3419 
Q 3406 3131 3298 2873 
Q 3191 2616 2906 2266 
Q 2828 2175 2409 1742 
Q 1991 1309 1228 531 
z
" transform="scale(0.015625)"/>
       </defs>
       <use xlink:href="#DejaVuSans-30"/>
       <use xlink:href="#DejaVuSans-2e" x="63.623047"/>
       <use xlink:href="#DejaVuSans-32" x="95.410156"/>
      </g>
     </g>
    </g>
    <g id="ytick_3">
     <g id="line2d_12">
      <path d="M 178.846767 141.111466 
C 190.000703 141.111466 201.046181 143.308548 211.351074 147.576975 
C 221.655967 151.845401 231.019871 158.102162 238.906895 165.989185 
C 246.793919 173.876209 253.050679 183.240113 257.319106 193.545006 
C 261.587532 203.849899 263.784614 214.895377 263.784614 226.049313 
C 263.784614 237.203249 261.587532 248.248727 257.319106 258.55362 
C 253.050679 268.858513 246.793919 278.222417 238.906895 286.109441 
C 231.019871 293.996465 221.655967 300.253226 211.351074 304.521652 
C 201.046181 308.790079 190.000703 310.987161 178.846767 310.987161 
C 167.692831 310.987161 156.647353 308.790079 146.34246 304.521652 
C 136.037567 300.253226 126.673663 293.996465 118.786639 286.109441 
C 110.899615 278.222417 104.642855 268.858513 100.374428 258.55362 
C 96.106002 248.248727 93.90892 237.203249 93.90892 226.049313 
C 93.90892 214.895377 96.106002 203.849899 100.374428 193.545006 
C 104.642855 183.240113 110.899615 173.876209 118.786639 165.989185 
C 126.673663 158.102162 136.037567 151.845401 146.34246 147.576975 
C 156.647353 143.308548 167.692831 141.111466 178.846767 141.111466 
" clip-path="url(#p58dc69e7ad)" style="fill: none; stroke: #b0b0b0; stroke-width: 0.8; stroke-linecap: square"/>
     </g>
     <g id="text_12">
      <!-- 0.3 -->
      <g transform="translate(211.351074 145.497287) scale(0.1 -0.1)">
       <defs>
        <path id="DejaVuSans-33" d="M 2597 2516 
Q 3050 2419 3304 2112 
Q 3559 1806 3559 1356 
Q 3559 666 3084 287 
Q 2609 -91 1734 -91 
Q 1441 -91 1130 -33 
Q 819 25 488 141 
L 488 750 
Q 750 597 1062 519 
Q 1375 441 1716 441 
Q 2309 441 2620 675 
Q 2931 909 2931 1356 
Q 2931 1769 2642 2001 
Q 2353 2234 1838 2234 
L 1294 2234 
L 1294 2753 
L 1863 2753 
Q 2328 2753 2575 2939 
Q 2822 3125 2822 3475 
Q 2822 3834 2567 4026 
Q 2313 4219 1838 4219 
Q 1578 4219 1281 4162 
Q 984 4106 628 3988 
L 628 4550 
Q 988 4650 1302 4700 
Q 1616 4750 1894 4750 
Q 2613 4750 3031 4423 
Q 3450 4097 3450 3541 
Q 3450 3153 3228 2886 
Q 3006 2619 2597 2516 
z
" transform="scale(0.015625)"/>
       </defs>
       <use xlink:href="#DejaVuSans-30"/>
       <use xlink:href="#DejaVuSans-2e" x="63.623047"/>
       <use xlink:href="#DejaVuSans-33" x="95.410156"/>
      </g>
     </g>
    </g>
    <g id="ytick_4">
     <g id="line2d_13">
      <path d="M 178.846767 112.79885 
C 193.718682 112.79885 208.445986 115.728293 222.185843 121.419528 
C 235.9257 127.110764 248.410906 135.453111 258.926938 145.969143 
C 269.442969 156.485174 277.785317 168.97038 283.476552 182.710237 
C 289.167787 196.450095 292.09723 211.177399 292.09723 226.049313 
C 292.09723 240.921228 289.167787 255.648532 283.476552 269.388389 
C 277.785317 283.128247 269.442969 295.613452 258.926938 306.129484 
C 248.410906 316.645515 235.9257 324.987863 222.185843 330.679098 
C 208.445986 336.370334 193.718682 339.299777 178.846767 339.299777 
C 163.974852 339.299777 149.247549 336.370334 135.507691 330.679098 
C 121.767834 324.987863 109.282628 316.645515 98.766596 306.129484 
C 88.250565 295.613452 79.908217 283.128247 74.216982 269.388389 
C 68.525747 255.648532 65.596304 240.921228 65.596304 226.049313 
C 65.596304 211.177399 68.525747 196.450095 74.216982 182.710237 
C 79.908217 168.97038 88.250565 156.485174 98.766596 145.969143 
C 109.282628 135.453111 121.767834 127.110764 135.507691 121.419528 
C 149.247549 115.728293 163.974852 112.79885 178.846767 112.79885 
" clip-path="url(#p58dc69e7ad)" style="fill: none; stroke: #b0b0b0; stroke-width: 0.8; stroke-linecap: square"/>
     </g>
     <g id="text_13">
      <!-- 0.4 -->
      <g transform="translate(222.185843 119.339841) scale(0.1 -0.1)">
       <defs>
        <path id="DejaVuSans-34" d="M 2419 4116 
L 825 1625 
L 2419 1625 
L 2419 4116 
z
M 2253 4666 
L 3047 4666 
L 3047 1625 
L 3713 1625 
L 3713 1100 
L 3047 1100 
L 3047 0 
L 2419 0 
L 2419 1100 
L 313 1100 
L 313 1709 
L 2253 4666 
z
" transform="scale(0.015625)"/>
       </defs>
       <use xlink:href="#DejaVuSans-30"/>
       <use xlink:href="#DejaVuSans-2e" x="63.623047"/>
       <use xlink:href="#DejaVuSans-34" x="95.410156"/>
      </g>
     </g>
    </g>
    <g id="ytick_5">
     <g id="line2d_14">
      <path d="M 178.846767 84.486234 
C 197.43666 84.486234 215.84579 88.148038 233.020612 95.262082 
C 250.195434 102.376126 265.801941 112.804061 278.94698 125.9491 
C 292.09202 139.09414 302.519954 154.700646 309.633998 171.875468 
C 316.748042 189.05029 320.409846 207.45942 320.409846 226.049313 
C 320.409846 244.639207 316.748042 263.048336 309.633998 280.223158 
C 302.519954 297.39798 292.09202 313.004487 278.94698 326.149526 
C 265.801941 339.294566 250.195434 349.7225 233.020612 356.836545 
C 215.84579 363.950589 197.43666 367.612392 178.846767 367.612392 
C 160.256874 367.612392 141.847744 363.950589 124.672922 356.836545 
C 107.4981 349.7225 91.891593 339.294566 78.746554 326.149526 
C 65.601514 313.004487 55.17358 297.39798 48.059536 280.223158 
C 40.945492 263.048336 37.283688 244.639207 37.283688 226.049313 
C 37.283688 207.45942 40.945492 189.05029 48.059536 171.875468 
C 55.17358 154.700646 65.601514 139.09414 78.746554 125.9491 
C 91.891593 112.804061 107.4981 102.376126 124.672922 95.262082 
C 141.847744 88.148038 160.256874 84.486234 178.846767 84.486234 
" clip-path="url(#p58dc69e7ad)" style="fill: none; stroke: #b0b0b0; stroke-width: 0.8; stroke-linecap: square"/>
     </g>
     <g id="text_14">
      <!-- 0.5 -->
      <g transform="translate(233.020612 93.182395) scale(0.1 -0.1)">
       <defs>
        <path id="DejaVuSans-35" d="M 691 4666 
L 3169 4666 
L 3169 4134 
L 1269 4134 
L 1269 2991 
Q 1406 3038 1543 3061 
Q 1681 3084 1819 3084 
Q 2600 3084 3056 2656 
Q 3513 2228 3513 1497 
Q 3513 744 3044 326 
Q 2575 -91 1722 -91 
Q 1428 -91 1123 -41 
Q 819 9 494 109 
L 494 744 
Q 775 591 1075 516 
Q 1375 441 1709 441 
Q 2250 441 2565 725 
Q 2881 1009 2881 1497 
Q 2881 1984 2565 2268 
Q 2250 2553 1709 2553 
Q 1456 2553 1204 2497 
Q 953 2441 691 2322 
L 691 4666 
z
" transform="scale(0.015625)"/>
       </defs>
       <use xlink:href="#DejaVuSans-30"/>
       <use xlink:href="#DejaVuSans-2e" x="63.623047"/>
       <use xlink:href="#DejaVuSans-35" x="95.410156"/>
      </g>
     </g>
    </g>
   </g>
   <g id="line2d_15">
    <path d="M 178.846767 196.7604 
L 191.397801 211.091574 
L 217.305365 219.268025 
L 178.846767 226.049313 
L 225.594625 354.487998 
L 178.846767 226.049313 
L 128.116882 255.338226 
L 178.846767 226.049313 
L 178.846767 226.049313 
L 178.846767 196.7604 
" clip-path="url(#p58dc69e7ad)" style="fill: none; stroke: #0000ff; stroke-linecap: square"/>
   </g>
   <g id="line2d_16">
    <path d="M 178.846767 226.049313 
L 224.344264 171.827508 
L 202.08217 221.952285 
L 178.846767 226.049313 
L 219.194621 336.904131 
L 178.846767 226.049313 
L 158.413897 237.846237 
L 155.611364 221.952285 
L 163.680935 207.975378 
L 178.846767 226.049313 
" clip-path="url(#p58dc69e7ad)" style="fill: none; stroke: #ff0000; stroke-linecap: square"/>
   </g>
   <g id="line2d_17">
    <path d="M 178.846767 205.826016 
L 191.846052 210.557369 
L 198.762827 222.537575 
L 178.846767 226.049313 
L 227.264192 359.075094 
L 171.929992 245.052996 
L 143.818989 246.27261 
L 158.930707 222.537575 
L 178.846767 226.049313 
L 178.846767 205.826016 
" clip-path="url(#p58dc69e7ad)" style="fill: none; stroke: #008000; stroke-linecap: square"/>
   </g>
   <g id="patch_6">
    <path d="M 178.846767 77.40808 
C 159.327379 77.40808 139.997793 81.252974 121.96423 88.72272 
C 103.930667 96.192467 87.543835 107.141798 73.741543 120.944089 
C 59.939252 134.746381 48.989921 151.133213 41.520174 169.166776 
C 34.050428 187.200339 30.205534 206.529925 30.205534 226.049313 
C 30.205534 245.568701 34.050428 264.898288 41.520174 282.931851 
C 48.989921 300.965413 59.939252 317.352246 73.741543 331.154537 
C 87.543835 344.956829 103.930667 355.90616 121.96423 363.375906 
C 139.997793 370.845653 159.327379 374.690546 178.846767 374.690546 
C 198.366155 374.690546 217.695741 370.845653 235.729304 363.375906 
C 253.762867 355.90616 270.149699 344.956829 283.951991 331.154537 
C 297.754282 317.352246 308.703614 300.965413 316.17336 282.931851 
C 323.643106 264.898288 327.488 245.568701 327.488 226.049313 
C 327.488 206.529925 323.643106 187.200339 316.17336 169.166776 
C 308.703614 151.133213 297.754282 134.746381 283.951991 120.944089 
C 270.149699 107.141798 253.762867 96.192467 235.729304 88.72272 
C 217.695741 81.252974 198.366155 77.40808 178.846767 77.40808 
" style="fill: none; stroke: #000000; stroke-width: 0.8; stroke-linejoin: miter; stroke-linecap: square"/>
   </g>
   <g id="legend_1">
    <g id="patch_7">
     <path d="M 341.552427 99.714209 
L 409.67274 99.714209 
Q 411.67274 99.714209 411.67274 97.714209 
L 411.67274 54.679834 
Q 411.67274 52.679834 409.67274 52.679834 
L 341.552427 52.679834 
Q 339.552427 52.679834 339.552427 54.679834 
L 339.552427 97.714209 
Q 339.552427 99.714209 341.552427 99.714209 
z
" style="fill: #ffffff; opacity: 0.8; stroke: #cccccc; stroke-linejoin: miter"/>
    </g>
    <g id="line2d_18">
     <path d="M 343.552427 60.778271 
L 353.552427 60.778271 
L 363.552427 60.778271 
" style="fill: none; stroke: #0000ff; stroke-linecap: square"/>
    </g>
    <g id="text_15">
     <!-- Part A -->
     <g transform="translate(371.552427 64.278271) scale(0.1 -0.1)">
      <defs>
       <path id="DejaVuSans-50" d="M 1259 4147 
L 1259 2394 
L 2053 2394 
Q 2494 2394 2734 2622 
Q 2975 2850 2975 3272 
Q 2975 3691 2734 3919 
Q 2494 4147 2053 4147 
L 1259 4147 
z
M 628 4666 
L 2053 4666 
Q 2838 4666 3239 4311 
Q 3641 3956 3641 3272 
Q 3641 2581 3239 2228 
Q 2838 1875 2053 1875 
L 1259 1875 
L 1259 0 
L 628 0 
L 628 4666 
z
" transform="scale(0.015625)"/>
       <path id="DejaVuSans-61" d="M 2194 1759 
Q 1497 1759 1228 1600 
Q 959 1441 959 1056 
Q 959 750 1161 570 
Q 1363 391 1709 391 
Q 2188 391 2477 730 
Q 2766 1069 2766 1631 
L 2766 1759 
L 2194 1759 
z
M 3341 1997 
L 3341 0 
L 2766 0 
L 2766 531 
Q 2569 213 2275 61 
Q 1981 -91 1556 -91 
Q 1019 -91 701 211 
Q 384 513 384 1019 
Q 384 1609 779 1909 
Q 1175 2209 1959 2209 
L 2766 2209 
L 2766 2266 
Q 2766 2663 2505 2880 
Q 2244 3097 1772 3097 
Q 1472 3097 1187 3025 
Q 903 2953 641 2809 
L 641 3341 
Q 956 3463 1253 3523 
Q 1550 3584 1831 3584 
Q 2591 3584 2966 3190 
Q 3341 2797 3341 1997 
z
" transform="scale(0.015625)"/>
       <path id="DejaVuSans-72" d="M 2631 2963 
Q 2534 3019 2420 3045 
Q 2306 3072 2169 3072 
Q 1681 3072 1420 2755 
Q 1159 2438 1159 1844 
L 1159 0 
L 581 0 
L 581 3500 
L 1159 3500 
L 1159 2956 
Q 1341 3275 1631 3429 
Q 1922 3584 2338 3584 
Q 2397 3584 2469 3576 
Q 2541 3569 2628 3553 
L 2631 2963 
z
" transform="scale(0.015625)"/>
       <path id="DejaVuSans-74" d="M 1172 4494 
L 1172 3500 
L 2356 3500 
L 2356 3053 
L 1172 3053 
L 1172 1153 
Q 1172 725 1289 603 
Q 1406 481 1766 481 
L 2356 481 
L 2356 0 
L 1766 0 
Q 1100 0 847 248 
Q 594 497 594 1153 
L 594 3053 
L 172 3053 
L 172 3500 
L 594 3500 
L 594 4494 
L 1172 4494 
z
" transform="scale(0.015625)"/>
       <path id="DejaVuSans-20" transform="scale(0.015625)"/>
       <path id="DejaVuSans-41" d="M 2188 4044 
L 1331 1722 
L 3047 1722 
L 2188 4044 
z
M 1831 4666 
L 2547 4666 
L 4325 0 
L 3669 0 
L 3244 1197 
L 1141 1197 
L 716 0 
L 50 0 
L 1831 4666 
z
" transform="scale(0.015625)"/>
      </defs>
      <use xlink:href="#DejaVuSans-50"/>
      <use xlink:href="#DejaVuSans-61" x="55.802734"/>
      <use xlink:href="#DejaVuSans-72" x="117.082031"/>
      <use xlink:href="#DejaVuSans-74" x="158.195312"/>
      <use xlink:href="#DejaVuSans-20" x="197.404297"/>
      <use xlink:href="#DejaVuSans-41" x="229.191406"/>
     </g>
    </g>
    <g id="line2d_19">
     <path d="M 343.552427 75.456396 
L 353.552427 75.456396 
L 363.552427 75.456396 
" style="fill: none; stroke: #ff0000; stroke-linecap: square"/>
    </g>
    <g id="text_16">
     <!-- Part B -->
     <g transform="translate(371.552427 78.956396) scale(0.1 -0.1)">
      <use xlink:href="#DejaVuSans-50"/>
      <use xlink:href="#DejaVuSans-61" x="55.802734"/>
      <use xlink:href="#DejaVuSans-72" x="117.082031"/>
      <use xlink:href="#DejaVuSans-74" x="158.195312"/>
      <use xlink:href="#DejaVuSans-20" x="197.404297"/>
      <use xlink:href="#DejaVuSans-42" x="229.191406"/>
     </g>
    </g>
    <g id="line2d_20">
     <path d="M 343.552427 90.134521 
L 353.552427 90.134521 
L 363.552427 90.134521 
" style="fill: none; stroke: #008000; stroke-linecap: square"/>
    </g>
    <g id="text_17">
     <!-- Part A1 -->
     <g transform="translate(371.552427 93.634521) scale(0.1 -0.1)">
      <use xlink:href="#DejaVuSans-50"/>
      <use xlink:href="#DejaVuSans-61" x="55.802734"/>
      <use xlink:href="#DejaVuSans-72" x="117.082031"/>
      <use xlink:href="#DejaVuSans-74" x="158.195312"/>
      <use xlink:href="#DejaVuSans-20" x="197.404297"/>
      <use xlink:href="#DejaVuSans-41" x="229.191406"/>
      <use xlink:href="#DejaVuSans-31" x="297.599609"/>
     </g>
    </g>
   </g>
  </g>
 </g>
 <defs>
  <clipPath id="p58dc69e7ad">
   <path d="M 327.488 226.049313 
C 327.488 206.529925 323.643106 187.200339 316.17336 169.166776 
C 308.703614 151.133213 297.754282 134.746381 283.951991 120.944089 
C 270.149699 107.141798 253.762867 96.192467 235.729304 88.72272 
C 217.695741 81.252974 198.366155 77.40808 178.846767 77.40808 
C 159.327379 77.40808 139.997793 81.252974 121.96423 88.72272 
C 103.930667 96.192467 87.543835 107.141798 73.741543 120.944089 
C 59.939252 134.746381 48.989921 151.133213 41.520174 169.166776 
C 34.050428 187.200339 30.205534 206.529925 30.205534 226.049313 
C 30.205534 245.568701 34.050428 264.898288 41.520174 282.931851 
C 48.989921 300.965413 59.939252 317.352246 73.741543 331.154537 
C 87.543835 344.956829 103.930667 355.90616 121.96423 363.375906 
C 139.997793 370.845653 159.327379 374.690546 178.846767 374.690546 
C 198.366155 374.690546 217.695741 370.845653 235.729304 363.375906 
C 253.762867 355.90616 270.149699 344.956829 283.951991 331.154537 
C 297.754282 317.352246 308.703614 300.965413 316.17336 282.931851 
C 323.643106 264.898288 327.488 245.568701 327.488 226.049313 
M 178.846767 226.049313 
C 178.846767 226.049313 178.846767 226.049313 178.846767 226.049313 
C 178.846767 226.049313 178.846767 226.049313 178.846767 226.049313 
C 178.846767 226.049313 178.846767 226.049313 178.846767 226.049313 
C 178.846767 226.049313 178.846767 226.049313 178.846767 226.049313 
C 178.846767 226.049313 178.846767 226.049313 178.846767 226.049313 
C 178.846767 226.049313 178.846767 226.049313 178.846767 226.049313 
C 178.846767 226.049313 178.846767 226.049313 178.846767 226.049313 
C 178.846767 226.049313 178.846767 226.049313 178.846767 226.049313 
C 178.846767 226.049313 178.846767 226.049313 178.846767 226.049313 
C 178.846767 226.049313 178.846767 226.049313 178.846767 226.049313 
C 178.846767 226.049313 178.846767 226.049313 178.846767 226.049313 
C 178.846767 226.049313 178.846767 226.049313 178.846767 226.049313 
C 178.846767 226.049313 178.846767 226.049313 178.846767 226.049313 
C 178.846767 226.049313 178.846767 226.049313 178.846767 226.049313 
C 178.846767 226.049313 178.846767 226.049313 178.846767 226.049313 
C 178.846767 226.049313 178.846767 226.049313 178.846767 226.049313 
z
"/>
  </clipPath>
 </defs>
</svg>
