<?xml version="1.0" encoding="utf-8" standalone="no"?>
<!DOCTYPE svg PUBLIC "-//W3C//DTD SVG 1.1//EN"
  "http://www.w3.org/Graphics/SVG/1.1/DTD/svg11.dtd">
<svg xmlns:xlink="http://www.w3.org/1999/xlink" width="460.8pt" height="345.6pt" viewBox="0 0 460.8 345.6" xmlns="http://www.w3.org/2000/svg" version="1.1">
 <metadata>
  <rdf:RDF xmlns:dc="http://purl.org/dc/elements/1.1/" xmlns:cc="http://creativecommons.org/ns#" xmlns:rdf="http://www.w3.org/1999/02/22-rdf-syntax-ns#">
   <cc:Work>
    <dc:type rdf:resource="http://purl.org/dc/dcmitype/StillImage"/>
    <dc:date>2023-02-09T13:33:29.816735</dc:date>
    <dc:format>image/svg+xml</dc:format>
    <dc:creator>
     <cc:Agent>
      <dc:title>Matplotlib v3.6.3, https://matplotlib.org/</dc:title>
     </cc:Agent>
    </dc:creator>
   </cc:Work>
  </rdf:RDF>
 </metadata>
 <defs>
  <style type="text/css">*{stroke-linejoin: round; stroke-linecap: butt}</style>
 </defs>
 <g id="figure_1">
  <g id="patch_1">
   <path d="M 0 345.6 
L 460.8 345.6 
L 460.8 0 
L 0 0 
z
" style="fill: #ffffff"/>
  </g>
  <g id="axes_1">
   <g id="patch_2">
    <path d="M 57.6 307.584 
L 414.72 307.584 
L 414.72 41.472 
L 57.6 41.472 
z
" style="fill: #ffffff"/>
   </g>
   <g id="PathCollection_1">
    <path d="M 73.832727 300.931311 
C 75.27631 300.931311 76.660962 300.357769 77.681729 299.337002 
C 78.702496 298.316235 79.276038 296.931583 79.276038 295.488 
C 79.276038 294.044417 78.702496 292.659765 77.681729 291.638998 
C 76.660962 290.618231 75.27631 290.044689 73.832727 290.044689 
C 72.389144 290.044689 71.004493 290.618231 69.983725 291.638998 
C 68.962958 292.659765 68.389417 294.044417 68.389417 295.488 
C 68.389417 296.931583 68.962958 298.316235 69.983725 299.337002 
C 71.004493 300.357769 72.389144 300.931311 73.832727 300.931311 
z
" clip-path="url(#p2b986e51b3)" style="fill: #1f77b4; stroke: #1f77b4"/>
    <path d="M 95.476364 258.501333 
C 96.360374 258.501333 97.208297 258.150112 97.833386 257.525023 
C 98.458476 256.899933 98.809697 256.05201 98.809697 255.168 
C 98.809697 254.28399 98.458476 253.436067 97.833386 252.810977 
C 97.208297 252.185888 96.360374 251.834667 95.476364 251.834667 
C 94.592353 251.834667 93.744431 252.185888 93.119341 252.810977 
C 92.494251 253.436067 92.14303 254.28399 92.14303 255.168 
C 92.14303 256.05201 92.494251 256.899933 93.119341 257.525023 
C 93.744431 258.150112 94.592353 258.501333 95.476364 258.501333 
z
" clip-path="url(#p2b986e51b3)" style="fill: #1f77b4; stroke: #1f77b4"/>
    <path d="M 160.407273 77.577002 
C 161.42804 77.577002 162.407137 77.171447 163.128928 76.449655 
C 163.850719 75.727864 164.256275 74.748767 164.256275 73.728 
C 164.256275 72.707233 163.850719 71.728136 163.128928 71.006345 
C 162.407137 70.284553 161.42804 69.878998 160.407273 69.878998 
C 159.386506 69.878998 158.407409 70.284553 157.685617 71.006345 
C 156.963826 71.728136 156.558271 72.707233 156.558271 73.728 
C 156.558271 74.748767 156.963826 75.727864 157.685617 76.449655 
C 158.407409 77.171447 159.386506 77.577002 160.407273 77.577002 
z
" clip-path="url(#p2b986e51b3)" style="fill: #1f77b4; stroke: #1f77b4"/>
    <path d="M 138.763636 244.237582 
C 141.21135 244.237582 143.559141 243.265095 145.289936 241.5343 
C 147.020731 239.803505 147.993218 237.455714 147.993218 235.008 
C 147.993218 232.560286 147.020731 230.212495 145.289936 228.4817 
C 143.559141 226.750905 141.21135 225.778418 138.763636 225.778418 
C 136.315923 225.778418 133.968131 226.750905 132.237336 228.4817 
C 130.506541 230.212495 129.534054 232.560286 129.534054 235.008 
C 129.534054 237.455714 130.506541 239.803505 132.237336 241.5343 
C 133.968131 243.265095 136.315923 244.237582 138.763636 244.237582 
z
" clip-path="url(#p2b986e51b3)" style="fill: #1f77b4; stroke: #1f77b4"/>
    <path d="M 203.694545 222.048823 
C 205.604226 222.048823 207.435948 221.290099 208.786296 219.939751 
C 210.136644 218.589403 210.895368 216.757681 210.895368 214.848 
C 210.895368 212.938319 210.136644 211.106597 208.786296 209.756249 
C 207.435948 208.405901 205.604226 207.647177 203.694545 207.647177 
C 201.784865 207.647177 199.953143 208.405901 198.602795 209.756249 
C 197.252447 211.106597 196.493722 212.938319 196.493722 214.848 
C 196.493722 216.757681 197.252447 218.589403 198.602795 219.939751 
C 199.953143 221.290099 201.784865 222.048823 203.694545 222.048823 
z
" clip-path="url(#p2b986e51b3)" style="fill: #1f77b4; stroke: #1f77b4"/>
    <path d="M 290.269091 201.354667 
C 292.037112 201.354667 293.732957 200.652225 294.983136 199.402045 
C 296.233316 198.151866 296.935758 196.456021 296.935758 194.688 
C 296.935758 192.919979 296.233316 191.224134 294.983136 189.973955 
C 293.732957 188.723775 292.037112 188.021333 290.269091 188.021333 
C 288.50107 188.021333 286.805225 188.723775 285.555046 189.973955 
C 284.304866 191.224134 283.602424 192.919979 283.602424 194.688 
C 283.602424 196.456021 284.304866 198.151866 285.555046 199.402045 
C 286.805225 200.652225 288.50107 201.354667 290.269091 201.354667 
z
" clip-path="url(#p2b986e51b3)" style="fill: #1f77b4; stroke: #1f77b4"/>
    <path d="M 138.763636 161.568823 
C 140.673317 161.568823 142.505039 160.810099 143.855387 159.459751 
C 145.205735 158.109403 145.964459 156.277681 145.964459 154.368 
C 145.964459 152.458319 145.205735 150.626597 143.855387 149.276249 
C 142.505039 147.925901 140.673317 147.167177 138.763636 147.167177 
C 136.853956 147.167177 135.022234 147.925901 133.671886 149.276249 
C 132.321538 150.626597 131.562813 152.458319 131.562813 154.368 
C 131.562813 156.277681 132.321538 158.109403 133.671886 159.459751 
C 135.022234 160.810099 136.853956 161.568823 138.763636 161.568823 
z
" clip-path="url(#p2b986e51b3)" style="fill: #1f77b4; stroke: #1f77b4"/>
    <path d="M 203.694545 121.98292 
C 205.798911 121.98292 207.81737 121.146847 209.305382 119.658836 
C 210.793393 118.170825 211.629466 116.152366 211.629466 114.048 
C 211.629466 111.943634 210.793393 109.925175 209.305382 108.437164 
C 207.81737 106.949153 205.798911 106.11308 203.694545 106.11308 
C 201.59018 106.11308 199.57172 106.949153 198.083709 108.437164 
C 196.595698 109.925175 195.759625 111.943634 195.759625 114.048 
C 195.759625 116.152366 196.595698 118.170825 198.083709 119.658836 
C 199.57172 121.146847 201.59018 121.98292 203.694545 121.98292 
z
" clip-path="url(#p2b986e51b3)" style="fill: #1f77b4; stroke: #1f77b4"/>
    <path d="M 138.763636 56.289655 
C 139.485428 56.289655 140.177754 56.002885 140.688137 55.492501 
C 141.198521 54.982117 141.485292 54.289791 141.485292 53.568 
C 141.485292 52.846209 141.198521 52.153883 140.688137 51.643499 
C 140.177754 51.133115 139.485428 50.846345 138.763636 50.846345 
C 138.041845 50.846345 137.349519 51.133115 136.839135 51.643499 
C 136.328752 52.153883 136.041981 52.846209 136.041981 53.568 
C 136.041981 54.289791 136.328752 54.982117 136.839135 55.492501 
C 137.349519 56.002885 138.041845 56.289655 138.763636 56.289655 
z
" clip-path="url(#p2b986e51b3)" style="fill: #1f77b4; stroke: #1f77b4"/>
    <path d="M 160.407273 178.377002 
C 161.42804 178.377002 162.407137 177.971447 163.128928 177.249655 
C 163.850719 176.527864 164.256275 175.548767 164.256275 174.528 
C 164.256275 173.507233 163.850719 172.528136 163.128928 171.806345 
C 162.407137 171.084553 161.42804 170.678998 160.407273 170.678998 
C 159.386506 170.678998 158.407409 171.084553 157.685617 171.806345 
C 156.963826 172.528136 156.558271 173.507233 156.558271 174.528 
C 156.558271 175.548767 156.963826 176.527864 157.685617 177.249655 
C 158.407409 177.971447 159.386506 178.377002 160.407273 178.377002 
z
" clip-path="url(#p2b986e51b3)" style="fill: #1f77b4; stroke: #1f77b4"/>
    <path d="M 138.763636 298.209655 
C 139.485428 298.209655 140.177754 297.922885 140.688137 297.412501 
C 141.198521 296.902117 141.485292 296.209791 141.485292 295.488 
C 141.485292 294.766209 141.198521 294.073883 140.688137 293.563499 
C 140.177754 293.053115 139.485428 292.766345 138.763636 292.766345 
C 138.041845 292.766345 137.349519 293.053115 136.839135 293.563499 
C 136.328752 294.073883 136.041981 294.766209 136.041981 295.488 
C 136.041981 296.209791 136.328752 296.902117 136.839135 297.412501 
C 137.349519 297.922885 138.041845 298.209655 138.763636 298.209655 
z
" clip-path="url(#p2b986e51b3)" style="fill: #1f77b4; stroke: #1f77b4"/>
    <path d="M 203.694545 116.769655 
C 204.416337 116.769655 205.108663 116.482885 205.619046 115.972501 
C 206.12943 115.462117 206.416201 114.769791 206.416201 114.048 
C 206.416201 113.326209 206.12943 112.633883 205.619046 112.123499 
C 205.108663 111.613115 204.416337 111.326345 203.694545 111.326345 
C 202.972754 111.326345 202.280428 111.613115 201.770045 112.123499 
C 201.259661 112.633883 200.97289 113.326209 200.97289 114.048 
C 200.97289 114.769791 201.259661 115.462117 201.770045 115.972501 
C 202.280428 116.482885 202.972754 116.769655 203.694545 116.769655 
z
" clip-path="url(#p2b986e51b3)" style="fill: #1f77b4; stroke: #1f77b4"/>
    <path d="M 203.694545 300.931311 
C 205.138128 300.931311 206.52278 300.357769 207.543547 299.337002 
C 208.564314 298.316235 209.137856 296.931583 209.137856 295.488 
C 209.137856 294.044417 208.564314 292.659765 207.543547 291.638998 
C 206.52278 290.618231 205.138128 290.044689 203.694545 290.044689 
C 202.250963 290.044689 200.866311 290.618231 199.845544 291.638998 
C 198.824776 292.659765 198.251235 294.044417 198.251235 295.488 
C 198.251235 296.931583 198.824776 298.316235 199.845544 299.337002 
C 200.866311 300.357769 202.250963 300.931311 203.694545 300.931311 
z
" clip-path="url(#p2b986e51b3)" style="fill: #1f77b4; stroke: #1f77b4"/>
    <path d="M 290.269091 302.154667 
C 292.037112 302.154667 293.732957 301.452225 294.983136 300.202045 
C 296.233316 298.951866 296.935758 297.256021 296.935758 295.488 
C 296.935758 293.719979 296.233316 292.024134 294.983136 290.773955 
C 293.732957 289.523775 292.037112 288.821333 290.269091 288.821333 
C 288.50107 288.821333 286.805225 289.523775 285.555046 290.773955 
C 284.304866 292.024134 283.602424 293.719979 283.602424 295.488 
C 283.602424 297.256021 284.304866 298.951866 285.555046 300.202045 
C 286.805225 301.452225 288.50107 302.154667 290.269091 302.154667 
z
" clip-path="url(#p2b986e51b3)" style="fill: #1f77b4; stroke: #1f77b4"/>
    <path d="M 398.487273 300.202045 
C 399.737452 300.202045 400.936596 299.705344 401.820606 298.821333 
C 402.704616 297.937323 403.201318 296.738179 403.201318 295.488 
C 403.201318 294.237821 402.704616 293.038677 401.820606 292.154667 
C 400.936596 291.270656 399.737452 290.773955 398.487273 290.773955 
C 397.237093 290.773955 396.03795 291.270656 395.153939 292.154667 
C 394.269929 293.038677 393.773228 294.237821 393.773228 295.488 
C 393.773228 296.738179 394.269929 297.937323 395.153939 298.821333 
C 396.03795 299.705344 397.237093 300.202045 398.487273 300.202045 
z
" clip-path="url(#p2b986e51b3)" style="fill: #1f77b4; stroke: #1f77b4"/>
   </g>
   <g id="matplotlib.axis_1">
    <g id="xtick_1">
     <g id="line2d_1">
      <path d="M 73.832727 307.584 
L 73.832727 41.472 
" clip-path="url(#p2b986e51b3)" style="fill: none; stroke: #b0b0b0; stroke-width: 0.8; stroke-linecap: square"/>
     </g>
     <g id="line2d_2">
      <defs>
       <path id="m195ad991da" d="M 0 0 
L 0 3.5 
" style="stroke: #000000; stroke-width: 0.8"/>
      </defs>
      <g>
       <use xlink:href="#m195ad991da" x="73.832727" y="307.584" style="stroke: #000000; stroke-width: 0.8"/>
      </g>
     </g>
     <g id="text_1">
      <!-- 0 -->
      <g transform="translate(70.651477 322.182437) scale(0.1 -0.1)">
       <defs>
        <path id="DejaVuSans-30" d="M 2034 4250 
Q 1547 4250 1301 3770 
Q 1056 3291 1056 2328 
Q 1056 1369 1301 889 
Q 1547 409 2034 409 
Q 2525 409 2770 889 
Q 3016 1369 3016 2328 
Q 3016 3291 2770 3770 
Q 2525 4250 2034 4250 
z
M 2034 4750 
Q 2819 4750 3233 4129 
Q 3647 3509 3647 2328 
Q 3647 1150 3233 529 
Q 2819 -91 2034 -91 
Q 1250 -91 836 529 
Q 422 1150 422 2328 
Q 422 3509 836 4129 
Q 1250 4750 2034 4750 
z
" transform="scale(0.015625)"/>
       </defs>
       <use xlink:href="#DejaVuSans-30"/>
      </g>
     </g>
    </g>
    <g id="xtick_2">
     <g id="line2d_3">
      <path d="M 117.12 307.584 
L 117.12 41.472 
" clip-path="url(#p2b986e51b3)" style="fill: none; stroke: #b0b0b0; stroke-width: 0.8; stroke-linecap: square"/>
     </g>
     <g id="line2d_4">
      <g>
       <use xlink:href="#m195ad991da" x="117.12" y="307.584" style="stroke: #000000; stroke-width: 0.8"/>
      </g>
     </g>
     <g id="text_2">
      <!-- 2 -->
      <g transform="translate(113.93875 322.182437) scale(0.1 -0.1)">
       <defs>
        <path id="DejaVuSans-32" d="M 1228 531 
L 3431 531 
L 3431 0 
L 469 0 
L 469 531 
Q 828 903 1448 1529 
Q 2069 2156 2228 2338 
Q 2531 2678 2651 2914 
Q 2772 3150 2772 3378 
Q 2772 3750 2511 3984 
Q 2250 4219 1831 4219 
Q 1534 4219 1204 4116 
Q 875 4013 500 3803 
L 500 4441 
Q 881 4594 1212 4672 
Q 1544 4750 1819 4750 
Q 2544 4750 2975 4387 
Q 3406 4025 3406 3419 
Q 3406 3131 3298 2873 
Q 3191 2616 2906 2266 
Q 2828 2175 2409 1742 
Q 1991 1309 1228 531 
z
" transform="scale(0.015625)"/>
       </defs>
       <use xlink:href="#DejaVuSans-32"/>
      </g>
     </g>
    </g>
    <g id="xtick_3">
     <g id="line2d_5">
      <path d="M 160.407273 307.584 
L 160.407273 41.472 
" clip-path="url(#p2b986e51b3)" style="fill: none; stroke: #b0b0b0; stroke-width: 0.8; stroke-linecap: square"/>
     </g>
     <g id="line2d_6">
      <g>
       <use xlink:href="#m195ad991da" x="160.407273" y="307.584" style="stroke: #000000; stroke-width: 0.8"/>
      </g>
     </g>
     <g id="text_3">
      <!-- 4 -->
      <g transform="translate(157.226023 322.182437) scale(0.1 -0.1)">
       <defs>
        <path id="DejaVuSans-34" d="M 2419 4116 
L 825 1625 
L 2419 1625 
L 2419 4116 
z
M 2253 4666 
L 3047 4666 
L 3047 1625 
L 3713 1625 
L 3713 1100 
L 3047 1100 
L 3047 0 
L 2419 0 
L 2419 1100 
L 313 1100 
L 313 1709 
L 2253 4666 
z
" transform="scale(0.015625)"/>
       </defs>
       <use xlink:href="#DejaVuSans-34"/>
      </g>
     </g>
    </g>
    <g id="xtick_4">
     <g id="line2d_7">
      <path d="M 203.694545 307.584 
L 203.694545 41.472 
" clip-path="url(#p2b986e51b3)" style="fill: none; stroke: #b0b0b0; stroke-width: 0.8; stroke-linecap: square"/>
     </g>
     <g id="line2d_8">
      <g>
       <use xlink:href="#m195ad991da" x="203.694545" y="307.584" style="stroke: #000000; stroke-width: 0.8"/>
      </g>
     </g>
     <g id="text_4">
      <!-- 6 -->
      <g transform="translate(200.513295 322.182437) scale(0.1 -0.1)">
       <defs>
        <path id="DejaVuSans-36" d="M 2113 2584 
Q 1688 2584 1439 2293 
Q 1191 2003 1191 1497 
Q 1191 994 1439 701 
Q 1688 409 2113 409 
Q 2538 409 2786 701 
Q 3034 994 3034 1497 
Q 3034 2003 2786 2293 
Q 2538 2584 2113 2584 
z
M 3366 4563 
L 3366 3988 
Q 3128 4100 2886 4159 
Q 2644 4219 2406 4219 
Q 1781 4219 1451 3797 
Q 1122 3375 1075 2522 
Q 1259 2794 1537 2939 
Q 1816 3084 2150 3084 
Q 2853 3084 3261 2657 
Q 3669 2231 3669 1497 
Q 3669 778 3244 343 
Q 2819 -91 2113 -91 
Q 1303 -91 875 529 
Q 447 1150 447 2328 
Q 447 3434 972 4092 
Q 1497 4750 2381 4750 
Q 2619 4750 2861 4703 
Q 3103 4656 3366 4563 
z
" transform="scale(0.015625)"/>
       </defs>
       <use xlink:href="#DejaVuSans-36"/>
      </g>
     </g>
    </g>
    <g id="xtick_5">
     <g id="line2d_9">
      <path d="M 246.981818 307.584 
L 246.981818 41.472 
" clip-path="url(#p2b986e51b3)" style="fill: none; stroke: #b0b0b0; stroke-width: 0.8; stroke-linecap: square"/>
     </g>
     <g id="line2d_10">
      <g>
       <use xlink:href="#m195ad991da" x="246.981818" y="307.584" style="stroke: #000000; stroke-width: 0.8"/>
      </g>
     </g>
     <g id="text_5">
      <!-- 8 -->
      <g transform="translate(243.800568 322.182437) scale(0.1 -0.1)">
       <defs>
        <path id="DejaVuSans-38" d="M 2034 2216 
Q 1584 2216 1326 1975 
Q 1069 1734 1069 1313 
Q 1069 891 1326 650 
Q 1584 409 2034 409 
Q 2484 409 2743 651 
Q 3003 894 3003 1313 
Q 3003 1734 2745 1975 
Q 2488 2216 2034 2216 
z
M 1403 2484 
Q 997 2584 770 2862 
Q 544 3141 544 3541 
Q 544 4100 942 4425 
Q 1341 4750 2034 4750 
Q 2731 4750 3128 4425 
Q 3525 4100 3525 3541 
Q 3525 3141 3298 2862 
Q 3072 2584 2669 2484 
Q 3125 2378 3379 2068 
Q 3634 1759 3634 1313 
Q 3634 634 3220 271 
Q 2806 -91 2034 -91 
Q 1263 -91 848 271 
Q 434 634 434 1313 
Q 434 1759 690 2068 
Q 947 2378 1403 2484 
z
M 1172 3481 
Q 1172 3119 1398 2916 
Q 1625 2713 2034 2713 
Q 2441 2713 2670 2916 
Q 2900 3119 2900 3481 
Q 2900 3844 2670 4047 
Q 2441 4250 2034 4250 
Q 1625 4250 1398 4047 
Q 1172 3844 1172 3481 
z
" transform="scale(0.015625)"/>
       </defs>
       <use xlink:href="#DejaVuSans-38"/>
      </g>
     </g>
    </g>
    <g id="xtick_6">
     <g id="line2d_11">
      <path d="M 290.269091 307.584 
L 290.269091 41.472 
" clip-path="url(#p2b986e51b3)" style="fill: none; stroke: #b0b0b0; stroke-width: 0.8; stroke-linecap: square"/>
     </g>
     <g id="line2d_12">
      <g>
       <use xlink:href="#m195ad991da" x="290.269091" y="307.584" style="stroke: #000000; stroke-width: 0.8"/>
      </g>
     </g>
     <g id="text_6">
      <!-- 10 -->
      <g transform="translate(283.906591 322.182437) scale(0.1 -0.1)">
       <defs>
        <path id="DejaVuSans-31" d="M 794 531 
L 1825 531 
L 1825 4091 
L 703 3866 
L 703 4441 
L 1819 4666 
L 2450 4666 
L 2450 531 
L 3481 531 
L 3481 0 
L 794 0 
L 794 531 
z
" transform="scale(0.015625)"/>
       </defs>
       <use xlink:href="#DejaVuSans-31"/>
       <use xlink:href="#DejaVuSans-30" x="63.623047"/>
      </g>
     </g>
    </g>
    <g id="xtick_7">
     <g id="line2d_13">
      <path d="M 333.556364 307.584 
L 333.556364 41.472 
" clip-path="url(#p2b986e51b3)" style="fill: none; stroke: #b0b0b0; stroke-width: 0.8; stroke-linecap: square"/>
     </g>
     <g id="line2d_14">
      <g>
       <use xlink:href="#m195ad991da" x="333.556364" y="307.584" style="stroke: #000000; stroke-width: 0.8"/>
      </g>
     </g>
     <g id="text_7">
      <!-- 12 -->
      <g transform="translate(327.193864 322.182437) scale(0.1 -0.1)">
       <use xlink:href="#DejaVuSans-31"/>
       <use xlink:href="#DejaVuSans-32" x="63.623047"/>
      </g>
     </g>
    </g>
    <g id="xtick_8">
     <g id="line2d_15">
      <path d="M 376.843636 307.584 
L 376.843636 41.472 
" clip-path="url(#p2b986e51b3)" style="fill: none; stroke: #b0b0b0; stroke-width: 0.8; stroke-linecap: square"/>
     </g>
     <g id="line2d_16">
      <g>
       <use xlink:href="#m195ad991da" x="376.843636" y="307.584" style="stroke: #000000; stroke-width: 0.8"/>
      </g>
     </g>
     <g id="text_8">
      <!-- 14 -->
      <g transform="translate(370.481136 322.182437) scale(0.1 -0.1)">
       <use xlink:href="#DejaVuSans-31"/>
       <use xlink:href="#DejaVuSans-34" x="63.623047"/>
      </g>
     </g>
    </g>
    <g id="text_9">
     <!-- Agglomeration -->
     <g transform="translate(199.299062 335.860562) scale(0.1 -0.1)">
      <defs>
       <path id="DejaVuSans-41" d="M 2188 4044 
L 1331 1722 
L 3047 1722 
L 2188 4044 
z
M 1831 4666 
L 2547 4666 
L 4325 0 
L 3669 0 
L 3244 1197 
L 1141 1197 
L 716 0 
L 50 0 
L 1831 4666 
z
" transform="scale(0.015625)"/>
       <path id="DejaVuSans-67" d="M 2906 1791 
Q 2906 2416 2648 2759 
Q 2391 3103 1925 3103 
Q 1463 3103 1205 2759 
Q 947 2416 947 1791 
Q 947 1169 1205 825 
Q 1463 481 1925 481 
Q 2391 481 2648 825 
Q 2906 1169 2906 1791 
z
M 3481 434 
Q 3481 -459 3084 -895 
Q 2688 -1331 1869 -1331 
Q 1566 -1331 1297 -1286 
Q 1028 -1241 775 -1147 
L 775 -588 
Q 1028 -725 1275 -790 
Q 1522 -856 1778 -856 
Q 2344 -856 2625 -561 
Q 2906 -266 2906 331 
L 2906 616 
Q 2728 306 2450 153 
Q 2172 0 1784 0 
Q 1141 0 747 490 
Q 353 981 353 1791 
Q 353 2603 747 3093 
Q 1141 3584 1784 3584 
Q 2172 3584 2450 3431 
Q 2728 3278 2906 2969 
L 2906 3500 
L 3481 3500 
L 3481 434 
z
" transform="scale(0.015625)"/>
       <path id="DejaVuSans-6c" d="M 603 4863 
L 1178 4863 
L 1178 0 
L 603 0 
L 603 4863 
z
" transform="scale(0.015625)"/>
       <path id="DejaVuSans-6f" d="M 1959 3097 
Q 1497 3097 1228 2736 
Q 959 2375 959 1747 
Q 959 1119 1226 758 
Q 1494 397 1959 397 
Q 2419 397 2687 759 
Q 2956 1122 2956 1747 
Q 2956 2369 2687 2733 
Q 2419 3097 1959 3097 
z
M 1959 3584 
Q 2709 3584 3137 3096 
Q 3566 2609 3566 1747 
Q 3566 888 3137 398 
Q 2709 -91 1959 -91 
Q 1206 -91 779 398 
Q 353 888 353 1747 
Q 353 2609 779 3096 
Q 1206 3584 1959 3584 
z
" transform="scale(0.015625)"/>
       <path id="DejaVuSans-6d" d="M 3328 2828 
Q 3544 3216 3844 3400 
Q 4144 3584 4550 3584 
Q 5097 3584 5394 3201 
Q 5691 2819 5691 2113 
L 5691 0 
L 5113 0 
L 5113 2094 
Q 5113 2597 4934 2840 
Q 4756 3084 4391 3084 
Q 3944 3084 3684 2787 
Q 3425 2491 3425 1978 
L 3425 0 
L 2847 0 
L 2847 2094 
Q 2847 2600 2669 2842 
Q 2491 3084 2119 3084 
Q 1678 3084 1418 2786 
Q 1159 2488 1159 1978 
L 1159 0 
L 581 0 
L 581 3500 
L 1159 3500 
L 1159 2956 
Q 1356 3278 1631 3431 
Q 1906 3584 2284 3584 
Q 2666 3584 2933 3390 
Q 3200 3197 3328 2828 
z
" transform="scale(0.015625)"/>
       <path id="DejaVuSans-65" d="M 3597 1894 
L 3597 1613 
L 953 1613 
Q 991 1019 1311 708 
Q 1631 397 2203 397 
Q 2534 397 2845 478 
Q 3156 559 3463 722 
L 3463 178 
Q 3153 47 2828 -22 
Q 2503 -91 2169 -91 
Q 1331 -91 842 396 
Q 353 884 353 1716 
Q 353 2575 817 3079 
Q 1281 3584 2069 3584 
Q 2775 3584 3186 3129 
Q 3597 2675 3597 1894 
z
M 3022 2063 
Q 3016 2534 2758 2815 
Q 2500 3097 2075 3097 
Q 1594 3097 1305 2825 
Q 1016 2553 972 2059 
L 3022 2063 
z
" transform="scale(0.015625)"/>
       <path id="DejaVuSans-72" d="M 2631 2963 
Q 2534 3019 2420 3045 
Q 2306 3072 2169 3072 
Q 1681 3072 1420 2755 
Q 1159 2438 1159 1844 
L 1159 0 
L 581 0 
L 581 3500 
L 1159 3500 
L 1159 2956 
Q 1341 3275 1631 3429 
Q 1922 3584 2338 3584 
Q 2397 3584 2469 3576 
Q 2541 3569 2628 3553 
L 2631 2963 
z
" transform="scale(0.015625)"/>
       <path id="DejaVuSans-61" d="M 2194 1759 
Q 1497 1759 1228 1600 
Q 959 1441 959 1056 
Q 959 750 1161 570 
Q 1363 391 1709 391 
Q 2188 391 2477 730 
Q 2766 1069 2766 1631 
L 2766 1759 
L 2194 1759 
z
M 3341 1997 
L 3341 0 
L 2766 0 
L 2766 531 
Q 2569 213 2275 61 
Q 1981 -91 1556 -91 
Q 1019 -91 701 211 
Q 384 513 384 1019 
Q 384 1609 779 1909 
Q 1175 2209 1959 2209 
L 2766 2209 
L 2766 2266 
Q 2766 2663 2505 2880 
Q 2244 3097 1772 3097 
Q 1472 3097 1187 3025 
Q 903 2953 641 2809 
L 641 3341 
Q 956 3463 1253 3523 
Q 1550 3584 1831 3584 
Q 2591 3584 2966 3190 
Q 3341 2797 3341 1997 
z
" transform="scale(0.015625)"/>
       <path id="DejaVuSans-74" d="M 1172 4494 
L 1172 3500 
L 2356 3500 
L 2356 3053 
L 1172 3053 
L 1172 1153 
Q 1172 725 1289 603 
Q 1406 481 1766 481 
L 2356 481 
L 2356 0 
L 1766 0 
Q 1100 0 847 248 
Q 594 497 594 1153 
L 594 3053 
L 172 3053 
L 172 3500 
L 594 3500 
L 594 4494 
L 1172 4494 
z
" transform="scale(0.015625)"/>
       <path id="DejaVuSans-69" d="M 603 3500 
L 1178 3500 
L 1178 0 
L 603 0 
L 603 3500 
z
M 603 4863 
L 1178 4863 
L 1178 4134 
L 603 4134 
L 603 4863 
z
" transform="scale(0.015625)"/>
       <path id="DejaVuSans-6e" d="M 3513 2113 
L 3513 0 
L 2938 0 
L 2938 2094 
Q 2938 2591 2744 2837 
Q 2550 3084 2163 3084 
Q 1697 3084 1428 2787 
Q 1159 2491 1159 1978 
L 1159 0 
L 581 0 
L 581 3500 
L 1159 3500 
L 1159 2956 
Q 1366 3272 1645 3428 
Q 1925 3584 2291 3584 
Q 2894 3584 3203 3211 
Q 3513 2838 3513 2113 
z
" transform="scale(0.015625)"/>
      </defs>
      <use xlink:href="#DejaVuSans-41"/>
      <use xlink:href="#DejaVuSans-67" x="68.408203"/>
      <use xlink:href="#DejaVuSans-67" x="131.884766"/>
      <use xlink:href="#DejaVuSans-6c" x="195.361328"/>
      <use xlink:href="#DejaVuSans-6f" x="223.144531"/>
      <use xlink:href="#DejaVuSans-6d" x="284.326172"/>
      <use xlink:href="#DejaVuSans-65" x="381.738281"/>
      <use xlink:href="#DejaVuSans-72" x="443.261719"/>
      <use xlink:href="#DejaVuSans-61" x="484.375"/>
      <use xlink:href="#DejaVuSans-74" x="545.654297"/>
      <use xlink:href="#DejaVuSans-69" x="584.863281"/>
      <use xlink:href="#DejaVuSans-6f" x="612.646484"/>
      <use xlink:href="#DejaVuSans-6e" x="673.828125"/>
     </g>
    </g>
   </g>
   <g id="matplotlib.axis_2">
    <g id="ytick_1">
     <g id="line2d_17">
      <path d="M 57.6 295.488 
L 414.72 295.488 
" clip-path="url(#p2b986e51b3)" style="fill: none; stroke: #b0b0b0; stroke-width: 0.8; stroke-linecap: square"/>
     </g>
     <g id="line2d_18">
      <defs>
       <path id="mb28502b8b0" d="M 0 0 
L -3.5 0 
" style="stroke: #000000; stroke-width: 0.8"/>
      </defs>
      <g>
       <use xlink:href="#mb28502b8b0" x="57.6" y="295.488" style="stroke: #000000; stroke-width: 0.8"/>
      </g>
     </g>
     <g id="text_10">
      <!-- 0 -->
      <g transform="translate(44.2375 299.287219) scale(0.1 -0.1)">
       <use xlink:href="#DejaVuSans-30"/>
      </g>
     </g>
    </g>
    <g id="ytick_2">
     <g id="line2d_19">
      <path d="M 57.6 255.168 
L 414.72 255.168 
" clip-path="url(#p2b986e51b3)" style="fill: none; stroke: #b0b0b0; stroke-width: 0.8; stroke-linecap: square"/>
     </g>
     <g id="line2d_20">
      <g>
       <use xlink:href="#mb28502b8b0" x="57.6" y="255.168" style="stroke: #000000; stroke-width: 0.8"/>
      </g>
     </g>
     <g id="text_11">
      <!-- 2 -->
      <g transform="translate(44.2375 258.967219) scale(0.1 -0.1)">
       <use xlink:href="#DejaVuSans-32"/>
      </g>
     </g>
    </g>
    <g id="ytick_3">
     <g id="line2d_21">
      <path d="M 57.6 214.848 
L 414.72 214.848 
" clip-path="url(#p2b986e51b3)" style="fill: none; stroke: #b0b0b0; stroke-width: 0.8; stroke-linecap: square"/>
     </g>
     <g id="line2d_22">
      <g>
       <use xlink:href="#mb28502b8b0" x="57.6" y="214.848" style="stroke: #000000; stroke-width: 0.8"/>
      </g>
     </g>
     <g id="text_12">
      <!-- 4 -->
      <g transform="translate(44.2375 218.647219) scale(0.1 -0.1)">
       <use xlink:href="#DejaVuSans-34"/>
      </g>
     </g>
    </g>
    <g id="ytick_4">
     <g id="line2d_23">
      <path d="M 57.6 174.528 
L 414.72 174.528 
" clip-path="url(#p2b986e51b3)" style="fill: none; stroke: #b0b0b0; stroke-width: 0.8; stroke-linecap: square"/>
     </g>
     <g id="line2d_24">
      <g>
       <use xlink:href="#mb28502b8b0" x="57.6" y="174.528" style="stroke: #000000; stroke-width: 0.8"/>
      </g>
     </g>
     <g id="text_13">
      <!-- 6 -->
      <g transform="translate(44.2375 178.327219) scale(0.1 -0.1)">
       <use xlink:href="#DejaVuSans-36"/>
      </g>
     </g>
    </g>
    <g id="ytick_5">
     <g id="line2d_25">
      <path d="M 57.6 134.208 
L 414.72 134.208 
" clip-path="url(#p2b986e51b3)" style="fill: none; stroke: #b0b0b0; stroke-width: 0.8; stroke-linecap: square"/>
     </g>
     <g id="line2d_26">
      <g>
       <use xlink:href="#mb28502b8b0" x="57.6" y="134.208" style="stroke: #000000; stroke-width: 0.8"/>
      </g>
     </g>
     <g id="text_14">
      <!-- 8 -->
      <g transform="translate(44.2375 138.007219) scale(0.1 -0.1)">
       <use xlink:href="#DejaVuSans-38"/>
      </g>
     </g>
    </g>
    <g id="ytick_6">
     <g id="line2d_27">
      <path d="M 57.6 93.888 
L 414.72 93.888 
" clip-path="url(#p2b986e51b3)" style="fill: none; stroke: #b0b0b0; stroke-width: 0.8; stroke-linecap: square"/>
     </g>
     <g id="line2d_28">
      <g>
       <use xlink:href="#mb28502b8b0" x="57.6" y="93.888" style="stroke: #000000; stroke-width: 0.8"/>
      </g>
     </g>
     <g id="text_15">
      <!-- 10 -->
      <g transform="translate(37.875 97.687219) scale(0.1 -0.1)">
       <use xlink:href="#DejaVuSans-31"/>
       <use xlink:href="#DejaVuSans-30" x="63.623047"/>
      </g>
     </g>
    </g>
    <g id="ytick_7">
     <g id="line2d_29">
      <path d="M 57.6 53.568 
L 414.72 53.568 
" clip-path="url(#p2b986e51b3)" style="fill: none; stroke: #b0b0b0; stroke-width: 0.8; stroke-linecap: square"/>
     </g>
     <g id="line2d_30">
      <g>
       <use xlink:href="#mb28502b8b0" x="57.6" y="53.568" style="stroke: #000000; stroke-width: 0.8"/>
      </g>
     </g>
     <g id="text_16">
      <!-- 12 -->
      <g transform="translate(37.875 57.367219) scale(0.1 -0.1)">
       <use xlink:href="#DejaVuSans-31"/>
       <use xlink:href="#DejaVuSans-32" x="63.623047"/>
      </g>
     </g>
    </g>
    <g id="text_17">
     <!-- Dispersion -->
     <g transform="translate(31.795312 200.899875) rotate(-90) scale(0.1 -0.1)">
      <defs>
       <path id="DejaVuSans-44" d="M 1259 4147 
L 1259 519 
L 2022 519 
Q 2988 519 3436 956 
Q 3884 1394 3884 2338 
Q 3884 3275 3436 3711 
Q 2988 4147 2022 4147 
L 1259 4147 
z
M 628 4666 
L 1925 4666 
Q 3281 4666 3915 4102 
Q 4550 3538 4550 2338 
Q 4550 1131 3912 565 
Q 3275 0 1925 0 
L 628 0 
L 628 4666 
z
" transform="scale(0.015625)"/>
       <path id="DejaVuSans-73" d="M 2834 3397 
L 2834 2853 
Q 2591 2978 2328 3040 
Q 2066 3103 1784 3103 
Q 1356 3103 1142 2972 
Q 928 2841 928 2578 
Q 928 2378 1081 2264 
Q 1234 2150 1697 2047 
L 1894 2003 
Q 2506 1872 2764 1633 
Q 3022 1394 3022 966 
Q 3022 478 2636 193 
Q 2250 -91 1575 -91 
Q 1294 -91 989 -36 
Q 684 19 347 128 
L 347 722 
Q 666 556 975 473 
Q 1284 391 1588 391 
Q 1994 391 2212 530 
Q 2431 669 2431 922 
Q 2431 1156 2273 1281 
Q 2116 1406 1581 1522 
L 1381 1569 
Q 847 1681 609 1914 
Q 372 2147 372 2553 
Q 372 3047 722 3315 
Q 1072 3584 1716 3584 
Q 2034 3584 2315 3537 
Q 2597 3491 2834 3397 
z
" transform="scale(0.015625)"/>
       <path id="DejaVuSans-70" d="M 1159 525 
L 1159 -1331 
L 581 -1331 
L 581 3500 
L 1159 3500 
L 1159 2969 
Q 1341 3281 1617 3432 
Q 1894 3584 2278 3584 
Q 2916 3584 3314 3078 
Q 3713 2572 3713 1747 
Q 3713 922 3314 415 
Q 2916 -91 2278 -91 
Q 1894 -91 1617 61 
Q 1341 213 1159 525 
z
M 3116 1747 
Q 3116 2381 2855 2742 
Q 2594 3103 2138 3103 
Q 1681 3103 1420 2742 
Q 1159 2381 1159 1747 
Q 1159 1113 1420 752 
Q 1681 391 2138 391 
Q 2594 391 2855 752 
Q 3116 1113 3116 1747 
z
" transform="scale(0.015625)"/>
      </defs>
      <use xlink:href="#DejaVuSans-44"/>
      <use xlink:href="#DejaVuSans-69" x="77.001953"/>
      <use xlink:href="#DejaVuSans-73" x="104.785156"/>
      <use xlink:href="#DejaVuSans-70" x="156.884766"/>
      <use xlink:href="#DejaVuSans-65" x="220.361328"/>
      <use xlink:href="#DejaVuSans-72" x="281.884766"/>
      <use xlink:href="#DejaVuSans-73" x="322.998047"/>
      <use xlink:href="#DejaVuSans-69" x="375.097656"/>
      <use xlink:href="#DejaVuSans-6f" x="402.880859"/>
      <use xlink:href="#DejaVuSans-6e" x="464.0625"/>
     </g>
    </g>
   </g>
   <g id="patch_3">
    <path d="M 57.6 307.584 
L 57.6 41.472 
" style="fill: none; stroke: #000000; stroke-width: 0.8; stroke-linejoin: miter; stroke-linecap: square"/>
   </g>
   <g id="patch_4">
    <path d="M 414.72 307.584 
L 414.72 41.472 
" style="fill: none; stroke: #000000; stroke-width: 0.8; stroke-linejoin: miter; stroke-linecap: square"/>
   </g>
   <g id="patch_5">
    <path d="M 57.6 307.584 
L 414.72 307.584 
" style="fill: none; stroke: #000000; stroke-width: 0.8; stroke-linejoin: miter; stroke-linecap: square"/>
   </g>
   <g id="patch_6">
    <path d="M 57.6 41.472 
L 414.72 41.472 
" style="fill: none; stroke: #000000; stroke-width: 0.8; stroke-linejoin: miter; stroke-linecap: square"/>
   </g>
   <g id="text_18">
    <g id="text_19">
     <!-- 1 -->
     <g transform="translate(73.832727 295.488) scale(0.15 -0.15)">
      <use xlink:href="#DejaVuSans-31"/>
     </g>
    </g>
    <g id="text_20">
     <!-- 1.2 -->
     <g transform="translate(96.017455 254.16) scale(0.15 -0.15)">
      <defs>
       <path id="DejaVuSans-2e" d="M 684 794 
L 1344 794 
L 1344 0 
L 684 0 
L 684 794 
z
" transform="scale(0.015625)"/>
      </defs>
      <use xlink:href="#DejaVuSans-31"/>
      <use xlink:href="#DejaVuSans-2e" x="63.623047"/>
      <use xlink:href="#DejaVuSans-32" x="95.410156"/>
     </g>
    </g>
    <g id="text_21">
     <!-- 1.2.3 -->
     <g transform="translate(162.571636 68.184) scale(0.15 -0.15)">
      <defs>
       <path id="DejaVuSans-33" d="M 2597 2516 
Q 3050 2419 3304 2112 
Q 3559 1806 3559 1356 
Q 3559 666 3084 287 
Q 2609 -91 1734 -91 
Q 1441 -91 1130 -33 
Q 819 25 488 141 
L 488 750 
Q 750 597 1062 519 
Q 1375 441 1716 441 
Q 2309 441 2620 675 
Q 2931 909 2931 1356 
Q 2931 1769 2642 2001 
Q 2353 2234 1838 2234 
L 1294 2234 
L 1294 2753 
L 1863 2753 
Q 2328 2753 2575 2939 
Q 2822 3125 2822 3475 
Q 2822 3834 2567 4026 
Q 2313 4219 1838 4219 
Q 1578 4219 1281 4162 
Q 984 4106 628 3988 
L 628 4550 
Q 988 4650 1302 4700 
Q 1616 4750 1894 4750 
Q 2613 4750 3031 4423 
Q 3450 4097 3450 3541 
Q 3450 3153 3228 2886 
Q 3006 2619 2597 2516 
z
" transform="scale(0.015625)"/>
      </defs>
      <use xlink:href="#DejaVuSans-31"/>
      <use xlink:href="#DejaVuSans-2e" x="63.623047"/>
      <use xlink:href="#DejaVuSans-32" x="95.410156"/>
      <use xlink:href="#DejaVuSans-2e" x="159.033203"/>
      <use xlink:href="#DejaVuSans-33" x="190.820312"/>
     </g>
    </g>
    <g id="text_22">
     <!-- 1.3 -->
     <g transform="translate(140.386909 233.496) scale(0.15 -0.15)">
      <use xlink:href="#DejaVuSans-31"/>
      <use xlink:href="#DejaVuSans-2e" x="63.623047"/>
      <use xlink:href="#DejaVuSans-33" x="95.410156"/>
     </g>
    </g>
    <g id="text_23">
     <!-- 1.4 -->
     <g transform="translate(206.941091 212.832) scale(0.15 -0.15)">
      <use xlink:href="#DejaVuSans-31"/>
      <use xlink:href="#DejaVuSans-2e" x="63.623047"/>
      <use xlink:href="#DejaVuSans-34" x="95.410156"/>
     </g>
    </g>
    <g id="text_24">
     <!-- 1.5 -->
     <g transform="translate(295.68 192.168) scale(0.15 -0.15)">
      <defs>
       <path id="DejaVuSans-35" d="M 691 4666 
L 3169 4666 
L 3169 4134 
L 1269 4134 
L 1269 2991 
Q 1406 3038 1543 3061 
Q 1681 3084 1819 3084 
Q 2600 3084 3056 2656 
Q 3513 2228 3513 1497 
Q 3513 744 3044 326 
Q 2575 -91 1722 -91 
Q 1428 -91 1123 -41 
Q 819 9 494 109 
L 494 744 
Q 775 591 1075 516 
Q 1375 441 1709 441 
Q 2250 441 2565 725 
Q 2881 1009 2881 1497 
Q 2881 1984 2565 2268 
Q 2250 2553 1709 2553 
Q 1456 2553 1204 2497 
Q 953 2441 691 2322 
L 691 4666 
z
" transform="scale(0.015625)"/>
      </defs>
      <use xlink:href="#DejaVuSans-31"/>
      <use xlink:href="#DejaVuSans-2e" x="63.623047"/>
      <use xlink:href="#DejaVuSans-35" x="95.410156"/>
     </g>
    </g>
    <g id="text_25">
     <!-- 1².3 -->
     <g transform="translate(140.386909 150.84) scale(0.15 -0.15)">
      <defs>
       <path id="DejaVuSans-b2" d="M 838 2444 
L 2163 2444 
L 2163 2088 
L 294 2088 
L 294 2431 
Q 400 2528 597 2703 
Q 1672 3656 1672 3950 
Q 1672 4156 1509 4282 
Q 1347 4409 1081 4409 
Q 919 4409 728 4354 
Q 538 4300 313 4191 
L 313 4575 
Q 553 4663 761 4706 
Q 969 4750 1147 4750 
Q 1600 4750 1872 4544 
Q 2144 4338 2144 4000 
Q 2144 3566 1109 2678 
Q 934 2528 838 2444 
z
" transform="scale(0.015625)"/>
      </defs>
      <use xlink:href="#DejaVuSans-31"/>
      <use xlink:href="#DejaVuSans-b2" x="63.623047"/>
      <use xlink:href="#DejaVuSans-2e" x="103.710938"/>
      <use xlink:href="#DejaVuSans-33" x="135.498047"/>
     </g>
    </g>
    <g id="text_26">
     <!-- 1².4 -->
     <g transform="translate(206.941091 109.512) scale(0.15 -0.15)">
      <use xlink:href="#DejaVuSans-31"/>
      <use xlink:href="#DejaVuSans-b2" x="63.623047"/>
      <use xlink:href="#DejaVuSans-2e" x="103.710938"/>
      <use xlink:href="#DejaVuSans-34" x="135.498047"/>
     </g>
    </g>
    <g id="text_27">
     <!-- 1³.3 -->
     <g transform="translate(140.386909 47.52) scale(0.15 -0.15)">
      <defs>
       <path id="DejaVuSans-b3" d="M 1638 3500 
Q 1925 3444 2083 3273 
Q 2241 3103 2241 2847 
Q 2241 2459 1944 2250 
Q 1647 2041 1094 2041 
Q 916 2041 720 2073 
Q 525 2106 306 2169 
L 306 2547 
Q 469 2463 655 2422 
Q 841 2381 1050 2381 
Q 1391 2381 1578 2504 
Q 1766 2628 1766 2847 
Q 1766 3078 1592 3197 
Q 1419 3316 1081 3316 
L 813 3316 
L 813 3653 
L 1106 3653 
Q 1400 3653 1551 3751 
Q 1703 3850 1703 4038 
Q 1703 4219 1547 4314 
Q 1391 4409 1094 4409 
Q 969 4409 809 4381 
Q 650 4353 397 4281 
L 397 4641 
Q 625 4694 825 4722 
Q 1025 4750 1197 4750 
Q 1647 4750 1911 4565 
Q 2175 4381 2175 4072 
Q 2175 3856 2034 3706 
Q 1894 3556 1638 3500 
z
" transform="scale(0.015625)"/>
      </defs>
      <use xlink:href="#DejaVuSans-31"/>
      <use xlink:href="#DejaVuSans-b3" x="63.623047"/>
      <use xlink:href="#DejaVuSans-2e" x="103.710938"/>
      <use xlink:href="#DejaVuSans-33" x="135.498047"/>
     </g>
    </g>
    <g id="text_28">
     <!-- 2.3 -->
     <g transform="translate(162.571636 171.504) scale(0.15 -0.15)">
      <use xlink:href="#DejaVuSans-32"/>
      <use xlink:href="#DejaVuSans-2e" x="63.623047"/>
      <use xlink:href="#DejaVuSans-33" x="95.410156"/>
     </g>
    </g>
    <g id="text_29">
     <!-- 3 -->
     <g transform="translate(140.386909 295.488) scale(0.15 -0.15)">
      <use xlink:href="#DejaVuSans-33"/>
     </g>
    </g>
    <g id="text_30">
     <!-- 3² -->
     <g transform="translate(206.941091 109.512) scale(0.15 -0.15)">
      <use xlink:href="#DejaVuSans-33"/>
      <use xlink:href="#DejaVuSans-b2" x="63.623047"/>
     </g>
    </g>
    <g id="text_31">
     <!-- 4 -->
     <g transform="translate(206.941091 295.488) scale(0.15 -0.15)">
      <use xlink:href="#DejaVuSans-34"/>
     </g>
    </g>
    <g id="text_32">
     <!-- 5 -->
     <g transform="translate(295.68 295.488) scale(0.15 -0.15)">
      <use xlink:href="#DejaVuSans-35"/>
     </g>
    </g>
    <g id="text_33">
     <!-- 6 -->
     <g transform="translate(406.603636 295.488) scale(0.15 -0.15)">
      <use xlink:href="#DejaVuSans-36"/>
     </g>
    </g>
   </g>
  </g>
  <defs>
   <clipPath id="p2b986e51b3">
    <rect x="57.6" y="41.472" width="357.12" height="266.112"/>
   </clipPath>
  </defs>
 </g>
</svg>
