<?xml version="1.0" encoding="UTF-8" standalone="no"?>
<!DOCTYPE svg PUBLIC "-//W3C//DTD SVG 1.1//EN"
 "http://www.w3.org/Graphics/SVG/1.1/DTD/svg11.dtd">
<!-- Generated by graphviz version 2.43.0 (0)
 -->
<!-- Title: %3 Pages: 1 -->
<svg width="312pt" height="476pt"
 viewBox="0.00 0.00 312.00 476.00" xmlns="http://www.w3.org/2000/svg" xmlns:xlink="http://www.w3.org/1999/xlink">
<g id="graph0" class="graph" transform="scale(1 1) rotate(0) translate(4 472)">
<title>%3</title>
<polygon fill="white" stroke="transparent" points="-4,4 -4,-472 308,-472 308,4 -4,4"/>
<!-- B -->
<g id="node1" class="node">
<title>B</title>
<ellipse fill="none" stroke="black" cx="213" cy="-450" rx="27" ry="18"/>
<text text-anchor="middle" x="213" y="-446.3" font-family="Times,serif" font-size="14.00">B</text>
</g>
<!-- LB -->
<g id="node2" class="node">
<title>LB</title>
<ellipse fill="none" stroke="black" cx="213" cy="-378" rx="27" ry="18"/>
<text text-anchor="middle" x="213" y="-374.3" font-family="Times,serif" font-size="14.00">LB</text>
</g>
<!-- B&#45;&gt;LB -->
<g id="edge1" class="edge">
<title>B&#45;&gt;LB</title>
<path fill="none" stroke="black" d="M207.16,-432.41C206.3,-424.51 206.05,-414.85 206.41,-405.94"/>
<polygon fill="black" stroke="black" points="209.9,-406.18 207.12,-395.96 202.92,-405.68 209.9,-406.18"/>
</g>
<!-- R -->
<g id="node3" class="node">
<title>R</title>
<ellipse fill="none" stroke="black" cx="277" cy="-162" rx="27" ry="18"/>
<text text-anchor="middle" x="277" y="-158.3" font-family="Times,serif" font-size="14.00">R</text>
</g>
<!-- B&#45;&gt;R -->
<g id="edge2" class="edge">
<title>B&#45;&gt;R</title>
<path fill="none" stroke="black" d="M225.9,-433.76C233.77,-423.67 243.37,-409.8 249,-396 277.6,-325.96 279.44,-234.94 278.3,-190.22"/>
<polygon fill="black" stroke="black" points="281.79,-190.02 277.96,-180.14 274.79,-190.25 281.79,-190.02"/>
</g>
<!-- LB&#45;&gt;B -->
<g id="edge6" class="edge">
<title>LB&#45;&gt;B</title>
<path fill="none" stroke="black" d="M218.88,-395.96C219.71,-403.83 219.95,-413.37 219.58,-422.19"/>
<polygon fill="black" stroke="black" points="216.07,-422.18 218.84,-432.41 223.06,-422.69 216.07,-422.18"/>
</g>
<!-- L -->
<g id="node5" class="node">
<title>L</title>
<ellipse fill="none" stroke="black" cx="213" cy="-90" rx="27" ry="18"/>
<text text-anchor="middle" x="213" y="-86.3" font-family="Times,serif" font-size="14.00">L</text>
</g>
<!-- LB&#45;&gt;L -->
<g id="edge7" class="edge">
<title>LB&#45;&gt;L</title>
<path fill="none" stroke="black" d="M209.59,-359.97C205.4,-312.18 205.15,-176.54 208.83,-118.22"/>
<polygon fill="black" stroke="black" points="212.35,-118.18 209.59,-107.94 205.37,-117.66 212.35,-118.18"/>
</g>
<!-- LxB -->
<g id="node6" class="node">
<title>LxB</title>
<ellipse fill="none" stroke="black" cx="56" cy="-18" rx="27" ry="18"/>
<text text-anchor="middle" x="56" y="-14.3" font-family="Times,serif" font-size="14.00">LxB</text>
</g>
<!-- LB&#45;&gt;LxB -->
<g id="edge9" class="edge">
<title>LB&#45;&gt;LxB</title>
<path fill="none" stroke="black" d="M187.14,-372.79C130.18,-361.12 0,-323.25 0,-235 0,-235 0,-235 0,-161 0,-117.37 20.24,-69.85 36.7,-42.33"/>
<polygon fill="black" stroke="black" points="39.71,-44.12 42.11,-33.8 33.8,-40.38 39.71,-44.12"/>
</g>
<!-- LBy -->
<g id="node7" class="node">
<title>LBy</title>
<ellipse fill="none" stroke="black" cx="122" cy="-306" rx="27" ry="18"/>
<text text-anchor="middle" x="122" y="-302.3" font-family="Times,serif" font-size="14.00">LBy</text>
</g>
<!-- LB&#45;&gt;LBy -->
<g id="edge8" class="edge">
<title>LB&#45;&gt;LBy</title>
<path fill="none" stroke="black" d="M195.88,-363.83C182.16,-353.27 162.69,-338.3 147.18,-326.37"/>
<polygon fill="black" stroke="black" points="149.1,-323.43 139.04,-320.11 144.83,-328.98 149.1,-323.43"/>
</g>
<!-- R&#45;&gt;LB -->
<g id="edge16" class="edge">
<title>R&#45;&gt;LB</title>
<path fill="none" stroke="black" d="M273.57,-180.18C267.43,-209.91 253.54,-272.69 236,-324 232.89,-333.1 228.88,-342.82 225.08,-351.42"/>
<polygon fill="black" stroke="black" points="221.88,-350.01 220.95,-360.56 228.26,-352.89 221.88,-350.01"/>
</g>
<!-- R&#45;&gt;L -->
<g id="edge15" class="edge">
<title>R&#45;&gt;L</title>
<path fill="none" stroke="black" d="M263.43,-146.15C254.69,-136.6 243.17,-123.99 233.34,-113.25"/>
<polygon fill="black" stroke="black" points="235.88,-110.84 226.55,-105.82 230.72,-115.57 235.88,-110.84"/>
</g>
<!-- By -->
<g id="node4" class="node">
<title>By</title>
<ellipse fill="none" stroke="black" cx="149" cy="-234" rx="27" ry="18"/>
<text text-anchor="middle" x="149" y="-230.3" font-family="Times,serif" font-size="14.00">By</text>
</g>
<!-- By&#45;&gt;R -->
<g id="edge3" class="edge">
<title>By&#45;&gt;R</title>
<path fill="none" stroke="black" d="M169.28,-221.91C190.44,-210.34 223.81,-192.09 247.8,-178.97"/>
<polygon fill="black" stroke="black" points="249.72,-181.91 256.81,-174.04 246.36,-175.77 249.72,-181.91"/>
</g>
<!-- L&#45;&gt;LB -->
<g id="edge4" class="edge">
<title>L&#45;&gt;LB</title>
<path fill="none" stroke="black" d="M216.41,-107.94C220.59,-155.62 220.85,-291.25 217.17,-349.68"/>
<polygon fill="black" stroke="black" points="213.66,-349.74 216.41,-359.97 220.64,-350.25 213.66,-349.74"/>
</g>
<!-- L&#45;&gt;LxB -->
<g id="edge5" class="edge">
<title>L&#45;&gt;LxB</title>
<path fill="none" stroke="black" d="M191.17,-79.27C164.18,-67.23 118.05,-46.67 87.3,-32.95"/>
<polygon fill="black" stroke="black" points="88.46,-29.64 77.9,-28.76 85.61,-36.03 88.46,-29.64"/>
</g>
<!-- LxB&#45;&gt;LB -->
<g id="edge12" class="edge">
<title>LxB&#45;&gt;LB</title>
<path fill="none" stroke="black" d="M52.25,-35.89C41.76,-61.91 18,-113.74 18,-161 18,-235 18,-235 18,-235 18,-313.81 121.83,-352.44 178.07,-368.11"/>
<polygon fill="black" stroke="black" points="177.42,-371.56 187.98,-370.78 179.23,-364.8 177.42,-371.56"/>
</g>
<!-- LxB&#45;&gt;LBy -->
<g id="edge13" class="edge">
<title>LxB&#45;&gt;LBy</title>
<path fill="none" stroke="black" d="M56.66,-36.16C58.11,-65.86 62.5,-128.59 75,-180 83.57,-215.24 99.22,-254.09 110.09,-278.98"/>
<polygon fill="black" stroke="black" points="107.03,-280.71 114.29,-288.43 113.43,-277.87 107.03,-280.71"/>
</g>
<!-- LBy&#45;&gt;By -->
<g id="edge10" class="edge">
<title>LBy&#45;&gt;By</title>
<path fill="none" stroke="black" d="M128.4,-288.41C131.51,-280.34 135.33,-270.43 138.83,-261.35"/>
<polygon fill="black" stroke="black" points="142.13,-262.55 142.46,-251.96 135.6,-260.03 142.13,-262.55"/>
</g>
<!-- LxBy -->
<g id="node8" class="node">
<title>LxBy</title>
<ellipse fill="none" stroke="black" cx="115" cy="-162" rx="30.59" ry="18"/>
<text text-anchor="middle" x="115" y="-158.3" font-family="Times,serif" font-size="14.00">LxBy</text>
</g>
<!-- LBy&#45;&gt;LxBy -->
<g id="edge11" class="edge">
<title>LBy&#45;&gt;LxBy</title>
<path fill="none" stroke="black" d="M118.35,-287.91C116.32,-277.57 114.02,-264.09 113,-252 111.26,-231.34 111.89,-207.89 112.89,-190.25"/>
<polygon fill="black" stroke="black" points="116.39,-190.3 113.54,-180.1 109.41,-189.85 116.39,-190.3"/>
</g>
<!-- LxBy&#45;&gt;LxB -->
<g id="edge14" class="edge">
<title>LxBy&#45;&gt;LxB</title>
<path fill="none" stroke="black" d="M108.12,-144.43C97.95,-119.96 78.82,-73.91 66.78,-44.94"/>
<polygon fill="black" stroke="black" points="69.91,-43.35 62.84,-35.46 63.44,-46.04 69.91,-43.35"/>
</g>
</g>
</svg>
